<svg id="Layer_1" data-name="Layer 1" xmlns="http://www.w3.org/2000/svg" viewBox="0 0 103.91 108.74">
  <defs>
    <style>
      .cls-1 {
        fill-rule: evenodd;
      }
    </style>
  </defs>
  <path class="cls-1" d="M26.14,23.75a2.5,2.5,0,0,1-3.53,3.53h0l-7.39-7.39a2.5,2.5,0,1,1,3.53-3.53l7.39,7.39ZM13,50.6a2.5,2.5,0,0,1,0,5H2.5a2.5,2.5,0,0,1,0-5Zm4,40a2.5,2.5,0,0,1-1.77-4.26l7.39-7.4a2.5,2.5,0,1,1,3.6,3.46.46.46,0,0,1-.07.07l-7.39,7.39a2.5,2.5,0,0,1-1.77.74Zm68.17-.73-7.39-7.39a2.5,2.5,0,0,1,3.53-3.54l7.4,7.39a2.5,2.5,0,0,1-3.47,3.6l-.06-.07ZM103.91,53.1a2.49,2.49,0,0,1-2.49,2.49H91a2.5,2.5,0,0,1,0-5h10.46a2.49,2.49,0,0,1,2.49,2.5ZM88.69,16.36a2.49,2.49,0,0,1,0,3.53h0L81.3,27.28a2.49,2.49,0,0,1-3.52-3.53l7.39-7.39a2.49,2.49,0,0,1,3.52,0h0ZM52,16.59a2.5,2.5,0,0,1-2.5-2.49V3.64a2.5,2.5,0,1,1,5-.11V14.1A2.49,2.49,0,0,1,52,16.59Zm5.55,34.24V48.42a2.4,2.4,0,1,1,2.41,2.41ZM52,23.9A29.2,29.2,0,0,0,34.88,76.78,8.86,8.86,0,0,1,38.09,81H46.4V55.82h-2a7,7,0,0,1,0-14,6.68,6.68,0,0,1,6.6,7v2h1.92v-2c0-3.86,2.72-7,6.59-7a7,7,0,1,1,0,14h-2V81h8.31A9,9,0,0,1,69,76.79,29.2,29.2,0,0,0,52,23.9Zm9.35,69.79H42.61c-2.52,0-3.24-2.16-4.06-3.09H65.37c-.82.93-1.74,3.09-4.06,3.09Zm-9.35,9a6.88,6.88,0,0,1-6.23-4H58.18A6.85,6.85,0,0,1,52,102.65Zm1-21.64H51V55.82h1.92ZM46.4,50.83H44a2.4,2.4,0,1,1,2.4-2.4ZM65.31,84.44v3.78H38.61V84.44ZM17.77,53.1A34.3,34.3,0,0,0,32,80.83a3.81,3.81,0,0,1,1.66,3.24v5.62a9,9,0,0,0,6.78,8.72,11.85,11.85,0,0,0,23.12,0,9,9,0,0,0,6.78-8.72V84.07A3.8,3.8,0,0,1,72,80.83,34.2,34.2,0,1,0,17.76,53.1Z"/>
</svg>
