<svg id="Layer_1" data-name="Layer 1" xmlns="http://www.w3.org/2000/svg" viewBox="0 0 103.91 108.74">
  <path d="M52,93.22,89.68,54.83a15.72,15.72,0,0,0,4.61-9.71,17.49,17.49,0,0,0-1.21-8,20.25,20.25,0,0,0-4.63-7A19.56,19.56,0,0,0,76.52,24.6c-4.6-.42-8.63,1.34-12.25,4.24-3.85,3.09-7.28,7.48-10.44,12a2.29,2.29,0,0,1-3.78,0c-3.16-4.5-6.57-8.87-10.41-12C36,25.94,32,24.18,27.38,24.6a19.55,19.55,0,0,0-11.92,5.59,20.28,20.28,0,0,0-4.64,7,17.51,17.51,0,0,0-1.21,8,15.83,15.83,0,0,0,4.61,9.71L52,93.22ZM16.51,52.6a2.29,2.29,0,1,1,3.27-3.22l33.81,34.4A2.29,2.29,0,1,1,50.32,87Zm70.89,0a2.29,2.29,0,1,1-3.27-3.22,8.17,8.17,0,0,0,2.46-5.5,10.54,10.54,0,0,0-2.17-6.45,2.29,2.29,0,1,1,3.7-2.71A15,15,0,0,1,91.18,44a12.65,12.65,0,0,1-3.77,8.58ZM93,58.06,53.57,98.13a2.29,2.29,0,0,1-3.25,0L11,58.06A20.29,20.29,0,0,1,5.05,45.54a22.16,22.16,0,0,1,1.49-10,24.8,24.8,0,0,1,5.7-8.57A24.09,24.09,0,0,1,27,20c6-.54,11.06,1.63,15.55,5.24A54.85,54.85,0,0,1,52,35.59a54.47,54.47,0,0,1,9.43-10.32C65.88,21.66,71,19.49,76.94,20a24.12,24.12,0,0,1,14.73,6.89,24.8,24.8,0,0,1,5.7,8.57,22,22,0,0,1,1.49,10A20.24,20.24,0,0,1,93,58.06Z"/>
</svg>
