<svg id="Layer_1" data-name="Layer 1" xmlns="http://www.w3.org/2000/svg" viewBox="0 0 103.91 108.74">
  <g>
    <path d="M74.27,103a5.66,5.66,0,0,1-5.4-4L59,67.79l-1.18-2.07-3.92,1.55L44.27,76.9l3,17.75a5.67,5.67,0,0,1-4.66,6.51,6.35,6.35,0,0,1-1,.08,5.62,5.62,0,0,1-5.54-4.73L32.63,75.9a3.28,3.28,0,0,1,0-.46,2.75,2.75,0,0,1,0-.55,4.55,4.55,0,0,1,0-.52,4.6,4.6,0,0,1,.08-.57,3.43,3.43,0,0,1,.14-.51,3.18,3.18,0,0,1,.2-.55,4.77,4.77,0,0,1,.26-.49,4,4,0,0,1,.25-.44,2.86,2.86,0,0,1,.38-.48,1.87,1.87,0,0,1,.21-.26l12-13.92L43.5,41.8,33.33,35a1.3,1.3,0,0,1-.25-.18,5.92,5.92,0,0,1-.94-.89l-.21-.27a5.29,5.29,0,0,1-.7-1.23l-6.94-19.1A5.65,5.65,0,1,1,34.91,9.49l6.25,17.16,7.55,5,19.17,1.61a1.93,1.93,0,0,1,.35,0l.37.08a5.09,5.09,0,0,1,.59.14,1.16,1.16,0,0,1,.24.07l13.71,5.15a5.63,5.63,0,0,1,2.42,1.78h0a2.26,2.26,0,0,1,.16.18,4.93,4.93,0,0,1,.33.54h0a2.36,2.36,0,0,1,.2.36l.1-.2.34,1.34,5.15,22.33a5.67,5.67,0,0,1-4.25,6.79,6,6,0,0,1-1.27.14,5.64,5.64,0,0,1-5.52-4.38L76.33,48.27l-7.45-2.79,2.44,17.06,8.39,33.18a5.41,5.41,0,0,1-.38,4.16A5.66,5.66,0,0,1,76,102.7,5.91,5.91,0,0,1,74.27,103ZM58.84,60.73a2.21,2.21,0,0,1,1.94,1.13l2.27,4a2.62,2.62,0,0,1,.18.43l9.91,31.36a1.23,1.23,0,0,0,1.16.84,1.41,1.41,0,0,0,.35-.05A1.2,1.2,0,0,0,75.44,97L67,63.48l0-.2-3-20.7A2.21,2.21,0,0,1,66.2,40l.63,0a2.3,2.3,0,0,1,.59.13L79,44.56a2.29,2.29,0,0,1,1.38,1.57l4.74,20.54a1.22,1.22,0,0,0,1.18.94l.28-.12a1.2,1.2,0,0,0,.75-.53A1.26,1.26,0,0,0,87.5,66L82.35,43.71c0-.11-.07-.21-.07-.22l-.19-.28a1.18,1.18,0,0,0-.49-.36L67.94,37.73l-.18,0-.2,0h-.2l0,0L47.79,36a2.2,2.2,0,0,1-1-.36l-8.63-5.76a2.3,2.3,0,0,1-.85-1.09L30.78,11a1.22,1.22,0,0,0-1.14-.8,1.47,1.47,0,0,0-.41.07,1.22,1.22,0,0,0-.73,1.55l6.92,19,.12.19a2.48,2.48,0,0,0,.3.29L46.05,38.1l.29.12a2.41,2.41,0,0,1,1.41,1.71l3,17.46a2.2,2.2,0,0,1-.51,1.82L37.5,74l-.29.33-.14.33c0,.07,0,.19,0,.19v.5l3.42,20.44a1.18,1.18,0,0,0,1.18,1,.75.75,0,0,0,.21,0,1.22,1.22,0,0,0,1-1.39L39.71,76.5a2.21,2.21,0,0,1,.62-1.94L51.1,63.79a2.56,2.56,0,0,1,.76-.49L58,60.88A2.18,2.18,0,0,1,58.84,60.73Zm0-29.91A10.82,10.82,0,1,1,69.64,20,10.83,10.83,0,0,1,58.83,30.82Zm0-17.18A6.37,6.37,0,1,0,65.19,20,6.38,6.38,0,0,0,58.83,13.64Z"/>
    <path d="M99.47,6.68a1.68,1.68,0,0,0-1.37-.4L86.07,8a1.72,1.72,0,0,0-1.48,1.7V24A6.59,6.59,0,0,0,82,23.44c-3.32,0-6,2.32-6,5.16s2.69,5.15,6,5.15,6-2.32,6-5.15V18.07l10.55-1.52a1.71,1.71,0,0,0,1.47-1.7V8A1.76,1.76,0,0,0,99.47,6.68ZM82,30.31c-1.38,0-2.58-.8-2.58-1.71s1.2-1.72,2.58-1.72,2.57.8,2.57,1.72S83.39,30.31,82,30.31Zm14.6-16.95L88,14.58v-3.4L96.62,10Z"/>
    <path d="M25.78,76.74,12,80.18a1.71,1.71,0,0,0-1.3,1.67V92.46a5.15,5.15,0,1,0,3.43,4.85V90.06l10.31-2.58v3.26a5.4,5.4,0,0,0-1.72-.3,5.15,5.15,0,1,0,5.16,5.15V78.41a1.71,1.71,0,0,0-2.13-1.67ZM9,99a1.72,1.72,0,1,1,1.72-1.71A1.72,1.72,0,0,1,9,99Zm13.74-1.71a1.72,1.72,0,1,1,1.72-1.72A1.72,1.72,0,0,1,22.75,97.31Zm1.72-13.37L14.16,86.52V83.19l10.31-2.58Z"/>
    <path d="M9,47.49a5.16,5.16,0,0,0,5.15-5.15V36.93L23,35.45a1.74,1.74,0,0,0,1.44-1.7V26.88a1.7,1.7,0,0,0-2-1.69L12.17,26.91a1.74,1.74,0,0,0-1.44,1.7v8.9A5.15,5.15,0,1,0,9,47.51Zm5.15-17.43L21,28.9v3.39l-6.88,1.15ZM9,40.62a1.72,1.72,0,1,1-1.72,1.72A1.72,1.72,0,0,1,9,40.62Z"/>
  </g>
</svg>
