<svg id="Layer_1" data-name="Layer 1" xmlns="http://www.w3.org/2000/svg" viewBox="0 0 103.91 108.74">
  <path d="M34.56,100.06a2,2,0,0,1-.76-.15,2.53,2.53,0,0,1-.82-.5,1.47,1.47,0,0,1-.4-.56l-.11-.25a2.13,2.13,0,0,1-.15-.75,2.53,2.53,0,0,1,.15-.8l.1-.3,5.78-11.54a2.22,2.22,0,0,1,2-1.24h3.55V71.72l.2-.74-3.34-1.91A38,38,0,0,1,24.6,50.65l-.11-.25-14-5.59a2.24,2.24,0,0,1-1.42-2.09V28.22A2.24,2.24,0,0,1,11.36,26H21.73V16.92A2.25,2.25,0,0,1,24,14.67h56a2.25,2.25,0,0,1,2.25,2.25V26H92.55a2.24,2.24,0,0,1,2.25,2.24v14.5a2.24,2.24,0,0,1-1.41,2.09l-14,5.59-.1.25A38.07,38.07,0,0,1,63.14,69.07L59.8,71l.14.49a1.6,1.6,0,0,1,.07.33V84h3.55a2.25,2.25,0,0,1,2,1.24l5.8,11.61.07.22a2,2,0,0,1,.14.69,2,2,0,0,1-.14.87l-.11.25a1,1,0,0,1-.3.44,2.07,2.07,0,0,1-.72.54,2.4,2.4,0,0,1-1,.23Zm3.64-4.5H65.71l-3.55-7.09H41.75ZM48.41,84h7.1V73.43l-2.44,1.39a2.18,2.18,0,0,1-1.11.3,2.21,2.21,0,0,1-1.12-.3l-2.43-1.39ZM26.23,36.27A33.44,33.44,0,0,0,43,65.16l9,5.12,8.95-5.12A33.42,33.42,0,0,0,77.68,36.27V19.17H26.23ZM13.61,41.2l9.1,3.64-.24-1.18a37.5,37.5,0,0,1-.74-7.39v-5.8H13.61Zm68.57-4.93a37.5,37.5,0,0,1-.74,7.39l-.23,1.18L90.3,41.2V30.47H82.18ZM44.72,52a2.31,2.31,0,0,1-.69-.11,2.25,2.25,0,0,1-1.44-2.84L44,44.85a3.9,3.9,0,0,0-1.43-4.39l-3.6-2.62a2.25,2.25,0,0,1,1.33-4.07H44.7a3.91,3.91,0,0,0,3.74-2.71l1.38-4.23a2.24,2.24,0,0,1,1.44-1.45,2.38,2.38,0,0,1,.7-.11,2.26,2.26,0,0,1,2.14,1.56l1.37,4.23a3.91,3.91,0,0,0,3.73,2.71h4.46A2.25,2.25,0,0,1,65,37.84l-3.6,2.62A3.9,3.9,0,0,0,60,44.85l1.38,4.23a2.25,2.25,0,0,1-2.14,3h0a2.22,2.22,0,0,1-1.32-.43L54.27,49A3.93,3.93,0,0,0,52,48.23a3.89,3.89,0,0,0-2.31.75l-3.6,2.61A2.21,2.21,0,0,1,44.72,52Zm6.72-17.11a8.31,8.31,0,0,1-4,2.89l-.82.28.5.71a8.29,8.29,0,0,1,1.52,4.68l0,.87.82-.26a8.62,8.62,0,0,1,4.93,0l.82.25,0-.86a8.36,8.36,0,0,1,1.52-4.68l.5-.71-.82-.28a8.28,8.28,0,0,1-4-2.89L52,34.23Z"/>
</svg>
