<svg id="Layer_1" data-name="Layer 1" xmlns="http://www.w3.org/2000/svg" viewBox="0 0 103.91 108.74">
  <g>
    <path d="M34.27,103.61a9,9,0,0,1-7.66-4.29,8.87,8.87,0,0,1-.32-8.74,3.92,3.92,0,0,0,.43-.92c.06-.17.12-.32.17-.43,2-5.61,1.45-10.39-1.63-15.09L25.12,74a108,108,0,0,1-8.87-15.33c-4.2-9.46-4.35-18.44-.45-26.7,5.29-11.35,14.17-18.09,26.38-20a57.44,57.44,0,0,1,9.3-.81,45.4,45.4,0,0,1,15.38,2.62c8,2.87,13.46,9,16.61,18.56a27.55,27.55,0,0,1,1.36,14.19,13.28,13.28,0,0,1-1.06,3.19,1.85,1.85,0,0,0,0,2.07c.45.68.87,1.4,1.27,2.1s.83,1.42,1.27,2.09c.28.57.61,1.11,1,1.69l.07.1c.2.34.41.69.62,1.06l.31.61a32.17,32.17,0,0,1,2.1,3.91c1.24,3,.46,5.16-2.34,6.56a19.36,19.36,0,0,1-2.15,1l-.86.35a1.81,1.81,0,0,1-.35.14l-.24.08.06.26c1.23,5.16.47,6.94-.73,8.88A2.77,2.77,0,0,0,83,82a13.66,13.66,0,0,0-.3,4.12A7.18,7.18,0,0,1,77,93.71a30.14,30.14,0,0,1-7.39.61h-1a19,19,0,0,1-2.88-.3h-.1a6.44,6.44,0,0,1-.83-.08l-.46-.05-.31,0v.32a9.33,9.33,0,0,1-2.46,6.53,9.11,9.11,0,0,1-6.6,2.91ZM51.36,15.93a54.08,54.08,0,0,0-8.37.74c-10.53,1.81-18.2,7.67-22.78,17.43-3.13,6.86-2.93,14.52.6,22.76a104.14,104.14,0,0,0,8.52,14.65l.15.15c3.88,5.81,4.61,12.4,2.13,19.53-.12.23-.2.45-.29.67a8.56,8.56,0,0,1-.63,1.31A4,4,0,0,0,34.27,99H54.65a3.94,3.94,0,0,0,3-1.27,3.85,3.85,0,0,0,1.15-3.15v-.18a5,5,0,0,1,1.26-3.88,4.81,4.81,0,0,1,3.59-1.27h.29a8.92,8.92,0,0,1,2.15.16h.23c.31,0,.65,0,1,.07a8.57,8.57,0,0,0,1,.07h1a30.66,30.66,0,0,0,6.56-.45,2.22,2.22,0,0,0,1.79-2.32,17.26,17.26,0,0,1,.45-5.47,7.29,7.29,0,0,1,1.38-3.07c.63-.94,1-1.72,0-5.68a4.23,4.23,0,0,1,2.6-5.3,1.33,1.33,0,0,1,.45-.2,1.8,1.8,0,0,0,.35-.12c.37-.19.75-.35,1.11-.51a11.86,11.86,0,0,0,1.43-.68,1.4,1.4,0,0,0,.3-.2l.2-.2-.31-.32a19.35,19.35,0,0,0-1.76-3.35l-.31-.62a26.62,26.62,0,0,0-1.63-2.82,41.2,41.2,0,0,1-2.57-4.37,6.75,6.75,0,0,1-.15-6.63,4.48,4.48,0,0,0,.69-1.72l0-.19a23.48,23.48,0,0,0-1.2-11.72c-2.69-8.09-7-13-13.66-15.31A37.92,37.92,0,0,0,51.36,15.93Z"/>
    <path d="M47.17,68.45a4.45,4.45,0,0,1-3.23-1.21,4.21,4.21,0,0,1,0-6A4.51,4.51,0,0,1,47.17,60a4.34,4.34,0,0,1,3.14,1.21,4.26,4.26,0,0,1,0,6A4.32,4.32,0,0,1,47.17,68.45ZM44.1,55.37l-.25-8.74H46a17.39,17.39,0,0,0,7.46-1.29,4.94,4.94,0,0,0,2.73-4.85,5.53,5.53,0,0,0-1.48-4,5.38,5.38,0,0,0-4-1.51,5.67,5.67,0,0,0-4.12,1.45,5.24,5.24,0,0,0-1.47,3.7H38.47a11.34,11.34,0,0,1,1.39-5.55,10,10,0,0,1,4.23-4,14.41,14.41,0,0,1,6.64-1.45,13.11,13.11,0,0,1,9,3,10.6,10.6,0,0,1,3.38,8.3c0,3.47-1.13,6.15-3.35,8a13.76,13.76,0,0,1-9,2.75h-.27l-.22,4.22Z"/>
  </g>
</svg>
