<svg id="Layer_1" data-name="Layer 1" xmlns="http://www.w3.org/2000/svg" viewBox="0 0 103.91 108.74">
  <defs>
    <style>
      .cls-1 {
        fill-rule: evenodd;
      }
    </style>
  </defs>
  <path class="cls-1" d="M21.22,98.77c-10.54,0-19.11-8.24-19.11-18.36A17.79,17.79,0,0,1,6,69.36a19,19,0,0,1,6.4-5.23l.64-.31-.22-.68a17.75,17.75,0,0,1-.84-5.4c0-9,7-16.83,16.28-18.16l.59-.09.11-.59A18,18,0,0,1,34.38,29a19.39,19.39,0,0,1,13.35-5.23H48c1.69,0,10.33-.32,14.4-6.66a2.42,2.42,0,0,1,4-.16c.29.38,7.06,9.39,4.77,20.37l-.19.89.9.11c9.5,1.17,16.66,9,16.66,18.21a17.64,17.64,0,0,1-.81,5.29l-.25.81.81.24A18.6,18.6,0,0,1,101.8,80.41c0,10.12-8.57,18.36-19.11,18.36ZM31,44.23c-7.85,0-14.24,6.08-14.24,13.51A12.8,12.8,0,0,0,18.4,64,2.43,2.43,0,0,1,17,67.51,13.56,13.56,0,0,0,7,80.41c0,7.44,6.4,13.5,14.27,13.5H82.69c7.87,0,14.27-6.06,14.27-13.5,0-7.09-5.85-13-13.32-13.48a2.42,2.42,0,0,1-1.91-3.68,13,13,0,0,0,1.91-6.75c0-7.45-6.4-13.51-14.27-13.51a14.89,14.89,0,0,0-1.61.09l-.25,0a2.43,2.43,0,0,1-2.22-3.39,18.67,18.67,0,0,0,.33-13.57,23.3,23.3,0,0,0-1-2.53l-.46-1-.84.73c-5.76,5-13.79,5.27-15.34,5.27h-.26c-7.72,0-14.11,6-14.25,13.26a2.45,2.45,0,0,1-2.42,2.38Zm19.84,42a14,14,0,0,1-13.22-9.47,2.42,2.42,0,0,1,1.5-3.08,2.38,2.38,0,0,1,.79-.13,2.43,2.43,0,0,1,2.29,1.64,9.12,9.12,0,0,0,17.28,0,2.43,2.43,0,0,1,2.29-1.64,2.38,2.38,0,0,1,.79.13,2.42,2.42,0,0,1,1.5,3.08A14,14,0,0,1,50.85,86.22ZM65.68,63.56a4.45,4.45,0,1,1,4.44-4.45A4.44,4.44,0,0,1,65.68,63.56Zm-28.41,0a4.45,4.45,0,1,1,4.44-4.45A4.44,4.44,0,0,1,37.27,63.56Z"/>
</svg>
