<svg id="Layer_1" data-name="Layer 1" xmlns="http://www.w3.org/2000/svg" viewBox="0 0 103.91 108.74">
  <g>
    <path d="M37.87,60.67a10.86,10.86,0,0,1-4.57-1.08,1.86,1.86,0,0,1-.8-2.5A1.94,1.94,0,0,1,34.19,56a1.79,1.79,0,0,1,.83.21,6.4,6.4,0,0,0,2.86.67,6.79,6.79,0,0,0,6-3.75,2,2,0,0,1,1.79-1.08,1.9,1.9,0,0,1,.81.17,1.84,1.84,0,0,1,.76,2.48A10.4,10.4,0,0,1,37.87,60.67Z"/>
    <path d="M66,60.78a10.51,10.51,0,0,1-9.39-5.93,1.87,1.87,0,0,1,.88-2.54,1.94,1.94,0,0,1,.86-.2A1.8,1.8,0,0,1,60,53.17,6.42,6.42,0,0,0,66,56.94a6.69,6.69,0,0,0,3-.69,2.15,2.15,0,0,1,.8-.16,1.79,1.79,0,0,1,1.68,1,1.91,1.91,0,0,1-.84,2.62A9.31,9.31,0,0,1,66,60.78Z"/>
    <path d="M52,103.92a38.18,38.18,0,0,1-11.3-74.65l.54-.17-.15.55a12.51,12.51,0,0,0-.27,4.91l0,.25-.24.09a33,33,0,1,0,35.3,8.3L75.63,43l.27-.21a12.67,12.67,0,0,0,3-3.4l.21-.35.28.29A38.11,38.11,0,0,1,52,103.92Z"/>
    <path d="M41.14,81a1.12,1.12,0,0,1-.82-.3.74.74,0,0,1-.19-.77c1.47-4.62,6.23-7.74,11.83-7.74s10.36,3.19,11.71,7.74a.62.62,0,0,1-.11.72,1.21,1.21,0,0,1-.9.35Z"/>
    <path d="M53.3,35.28a2.37,2.37,0,0,1-2.13-1.34,2.33,2.33,0,0,1,.2-2.46L63.3,15h-10a2.4,2.4,0,1,1,0-4.8H68.06a2.38,2.38,0,0,1,2.13,1.34A2.33,2.33,0,0,1,70,14L58.06,30.48h10a2.4,2.4,0,0,1,0,4.8Z"/>
    <path d="M75.85,25.78A2,2,0,0,1,74,24.64a2,2,0,0,1,.17-2.08L84.33,8.61H75.85a2,2,0,1,1,0-4.08H88.28a2,2,0,0,1,1.8,1.14,2,2,0,0,1-.17,2.08l-10.12,14h8.48a2.09,2.09,0,0,1,2.14,2,2,2,0,0,1-2,2Z"/>
  </g>
</svg>
