<svg id="Layer_1" data-name="Layer 1" xmlns="http://www.w3.org/2000/svg" viewBox="0 0 103.91 108.74">
  <g>
    <path d="M76.41,57.63c-2.61,0-5.21-.12-7.74-.36A14,14,0,0,1,56.25,46.16L54.11,35.93A14.1,14.1,0,0,1,54,30.79l.1-.58-.59-.05c-.52-.05-1-.07-1.55-.07s-1,0-1.56.07l-.58.05.09.58a13.89,13.89,0,0,1-.11,5.14L47.67,46.16A14,14,0,0,1,35.24,57.27c-2.53.24-5.13.36-7.74.36-2.43,0-4.91-.1-7.37-.31A14,14,0,0,1,7.29,44.47L6.45,34.32A14,14,0,0,1,19.31,19.17c3.19-.26,6.45-.38,9.68-.38,2.64,0,5.3.08,7.91.25a14.13,14.13,0,0,1,10.34,5.53c.21.29.41.57.6.87l.19.3.36-.06a21.39,21.39,0,0,1,7.14,0l.35.06.19-.3c.19-.3.39-.58.61-.87A14.09,14.09,0,0,1,67,19c2.61-.17,5.27-.25,7.91-.25,3.23,0,6.49.12,9.69.38A14,14,0,0,1,97.46,34.32l-.83,10.15A14,14,0,0,1,83.78,57.32C81.33,57.53,78.85,57.63,76.41,57.63ZM74.92,23.48c-2.54,0-5.1.08-7.61.25a9.42,9.42,0,0,0-6.9,3.69A9.31,9.31,0,0,0,58.71,35L60.84,45.2a9.32,9.32,0,0,0,8.27,7.4c2.38.22,4.84.34,7.3.34,2.3,0,4.65-.1,7-.3A9.34,9.34,0,0,0,92,44.09l.83-10.15a9.29,9.29,0,0,0-2.2-6.85,9.19,9.19,0,0,0-6.34-3.24C81.15,23.6,78,23.48,74.92,23.48ZM29,23.48c-3.1,0-6.24.12-9.31.37a9.33,9.33,0,0,0-8.55,10.09L12,44.09a9.32,9.32,0,0,0,8.55,8.55c2.34.2,4.68.3,7,.3,2.47,0,4.92-.12,7.3-.34a9.31,9.31,0,0,0,8.27-7.4L45.2,35a9.27,9.27,0,0,0-1.7-7.55,9.41,9.41,0,0,0-6.9-3.69C34.09,23.56,31.53,23.48,29,23.48Z"/>
    <path d="M30.56,96A23.79,23.79,0,0,1,28,95.82a25.13,25.13,0,0,1-12.09-4.25,15.91,15.91,0,0,1-6.34-9.38c-1.33-5.75.68-11.63,4.89-14.29A9.1,9.1,0,0,1,16.39,67a5.8,5.8,0,0,1,1.8-.29,5.69,5.69,0,0,1,4.13,9.58l-.06.07-.11.22a2,2,0,0,0-.1.37l0,.34.29.19a3.75,3.75,0,0,0,.8.4l.22.06.21-.11a6.6,6.6,0,0,0,2.08-2.6,42.77,42.77,0,0,0,2.3-5c.19-.49.4-1,.58-1.44A14.82,14.82,0,0,1,51.54,63l.35.28.34-.28a14.83,14.83,0,0,1,23.1,5.53c.2.46.41,1,.6,1.44a42.46,42.46,0,0,0,2.34,5,6.75,6.75,0,0,0,2.11,2.58l.2.11.22-.07a3.53,3.53,0,0,0,.8-.4l.29-.2,0-.34a1.89,1.89,0,0,0-.1-.36l0-.06-.12-.19a5.69,5.69,0,0,1,5.8-9.39,9.28,9.28,0,0,1,1.95.9c4.23,2.62,6.29,8.48,5,14.25a15.93,15.93,0,0,1-6.26,9.43,25.06,25.06,0,0,1-12,4.35,22.86,22.86,0,0,1-2.76.16h0a28.13,28.13,0,0,1-12.51-3,29.36,29.36,0,0,1-8.39-6.2L52,86.1l-.4.43a29.92,29.92,0,0,1-8.34,6.27A28.14,28.14,0,0,1,30.56,96ZM17.87,71.45a4,4,0,0,0-.89.42c-2.47,1.56-3.68,5.54-2.82,9.26,1.28,5.52,6.51,9.17,14.36,10a19.47,19.47,0,0,0,2,.11,23.54,23.54,0,0,0,10.56-2.64A25.15,25.15,0,0,0,50.06,81,2.32,2.32,0,0,1,52,80a2.37,2.37,0,0,1,1.92,1,24.9,24.9,0,0,0,9,7.55,23.52,23.52,0,0,0,10.4,2.55A20.28,20.28,0,0,0,75.5,91c7.84-.92,13-4.61,14.27-10.14.83-3.74-.42-7.7-2.89-9.23a3.54,3.54,0,0,0-.91-.42l-.08,0-.22,0a1,1,0,0,0-.84.46A1,1,0,0,0,85,72.78,5.62,5.62,0,0,1,86,74.43a5.27,5.27,0,0,1-1.88,6.72,6.59,6.59,0,0,1-3.57,1.2,4.7,4.7,0,0,1-1.44-.22c-3.49-1.08-5.65-5.72-7.56-10.38L71,70.39a10.16,10.16,0,0,0-9.32-6.13,10.33,10.33,0,0,0-8,3.86,2.36,2.36,0,0,1-3.66,0,10.3,10.3,0,0,0-7.9-3.79,10.16,10.16,0,0,0-9.36,6.21c-.17.4-.37.89-.54,1.32-1.89,4.72-4,9.37-7.48,10.48a4.79,4.79,0,0,1-1.49.24,6.63,6.63,0,0,1-3.54-1.18,5.26,5.26,0,0,1-1.94-6.7,5.78,5.78,0,0,1,1.07-1.66A1,1,0,0,0,19,71.85a1,1,0,0,0-.84-.45h-.09Z"/>
  </g>
</svg>
