<?xml version="1.0" encoding="utf-8"?>
<!-- Generator: Adobe Illustrator 25.0.1, SVG Export Plug-In . SVG Version: 6.00 Build 0)  -->
<svg version="1.1" id="Layer_1" xmlns="http://www.w3.org/2000/svg" xmlns:xlink="http://www.w3.org/1999/xlink" x="0px" y="0px"
	 viewBox="0 0 170.1 113.4" style="enable-background:new 0 0 170.1 113.4;" xml:space="preserve">
<g>
	<path d="M84.5,69.4c0-0.4-0.3-0.8-0.8-0.8c-0.4,0-0.8,0.3-0.8,0.8c0,0.3,0.1,0.5,0.4,0.6L82,73.7h-0.2c-0.4,0-0.8,0.3-0.8,0.8
		c0,0.4,0.3,0.8,0.8,0.8c0.2,0,0.3,0,0.4-0.1l3.1,2.2c0,0,0.1,0,0.1,0v-0.2h0.1l-1.6-7C84.3,70,84.4,69.7,84.5,69.4z M85.2,76.7
		l-2.8-1.9c0.1-0.1,0.1-0.2,0.1-0.4c0-0.2-0.1-0.5-0.3-0.6l1.3-3.7h0.1L85.2,76.7z"/>
	<path d="M115.5,12.7c0.3,0.3,0.8,0.3,1.1,0l5.8,3.1h0.1c0.1,0,0.1,0,0.1-0.1c0-0.1,0-0.2-0.1-0.2l-5.8-3.1c0-0.1,0-0.2,0-0.2
		c0-0.4-0.3-0.8-0.8-0.8c-0.4,0-0.8,0.3-0.8,0.8l0,0C115.2,12.4,115.3,12.6,115.5,12.7z"/>
	<path d="M76.9,42.4l4.6-6.6c0.4,0.1,0.8-0.1,0.9-0.5c0.1-0.4-0.1-0.8-0.5-0.9s-0.8,0.1-0.9,0.5c0,0.1,0,0.1,0,0.2
		c0,0.2,0.1,0.4,0.3,0.6l-4.7,6.8H76.9z"/>
	<path d="M147,25.9c0.4,0,0.8-0.4,0.7-0.8c0-0.4-0.4-0.8-0.8-0.7c-0.4,0-0.8,0.3-0.8,0.8c0,0.2,0.1,0.4,0.2,0.5l-2,2.5v0.1l1.7,1.2
		c0,0,0,0.1,0,0.1c0,0.4,0.3,0.8,0.8,0.8c0.4,0,0.8-0.3,0.8-0.8c0-0.4-0.3-0.8-0.8-0.8c-0.3,0-0.5,0.1-0.6,0.3l-1.5-1l1.9-2.2
		C146.8,25.9,146.9,25.9,147,25.9z"/>
	<path d="M121.5,23.2h-2.9c-0.1,0-0.2,0.1-0.2,0.2c0,0.1,0.1,0.2,0.2,0.2h2.9c0.1,0.3,0.4,0.5,0.7,0.5c0.4,0,0.8-0.3,0.8-0.8
		s-0.3-0.8-0.8-0.8C121.8,22.5,121.5,22.8,121.5,23.2z"/>
	<path d="M168.9,76.2l0.1,0.1l-4.3-8.2c0.2-0.1,0.3-0.4,0.3-0.6c0-0.2-0.1-0.5-0.3-0.6l0.9-3.2v-0.1l-5.7-4.1
		c0.1-0.1,0.1-0.2,0.1-0.4c0-0.4-0.3-0.8-0.8-0.8H159l-1.1-5.3c0.4-0.1,0.6-0.6,0.5-1s-0.6-0.6-1-0.5c-0.3,0.1-0.5,0.4-0.5,0.7
		c0,0.1,0,0.3,0.1,0.4l-2.2,2c0,0-0.1-0.1-0.1-0.1l1-4.6h0.1c0.4,0,0.8-0.3,0.8-0.8s-0.3-0.8-0.8-0.8c-0.2,0-0.3,0-0.4,0.1l-2.7-3.3
		l2.8,1.7c-0.1,0.4,0.2,0.8,0.5,0.9c0.1,0,0.1,0,0.2,0c0.4,0,0.8-0.3,0.8-0.8c0-0.4-0.3-0.8-0.8-0.8c0,0,0,0,0,0c-0.1,0-0.2,0-0.3,0
		l-3.1-6.6c0.3-0.1,0.4-0.4,0.4-0.7c0-0.4-0.4-0.8-0.8-0.8c-0.2,0-0.4,0.1-0.5,0.2l-4.4-4.6c0.1-0.1,0.2-0.3,0.2-0.5
		c0-0.4-0.3-0.8-0.8-0.8s-0.8,0.3-0.8,0.8c0,0.2,0.1,0.4,0.2,0.6l-3.4,5.5c-0.1,0-0.1,0-0.2,0c-0.1,0-0.2,0-0.3,0l-3.6-5.3
		c0.2-0.1,0.3-0.3,0.3-0.6c0-0.4-0.3-0.8-0.8-0.8l-1.5-6.6c0.4-0.2,0.5-0.7,0.3-1c-0.2-0.4-0.7-0.5-1-0.3c-0.2,0.1-0.4,0.4-0.4,0.7
		c0,0,0,0.1,0,0.1l-5.8,3.2l2.8-3.3l0.6-5.9c0.3,0,0.5-0.2,0.6-0.5l10.2,1.7c0,0,0.1,0,0.1,0l3.1-2.1c0.1,0.1,0.3,0.1,0.4,0.1
		c0.4,0,0.8-0.4,0.7-0.8s-0.4-0.8-0.8-0.7c-0.4,0-0.7,0.3-0.8,0.8c0,0.1,0,0.3,0.1,0.4l-3,2l-10.1-1.8c0-0.4-0.4-0.7-0.9-0.7
		c-0.4,0-0.6,0.3-0.7,0.7c0,0.3,0.2,0.6,0.5,0.7l-0.6,5.7l-7.1-1.4c0-0.4-0.3-0.8-0.8-0.8c-0.4,0-0.8,0.3-0.8,0.8
		c0,0.1,0,0.2,0.1,0.4l-2.6,2.1c-0.1-0.1-0.3-0.2-0.5-0.2c-0.3,0-0.5,0.1-0.6,0.3l-3.4-2.3h-0.2l-0.1,0l-6.9-0.4
		c-0.1-0.4-0.5-0.7-0.9-0.6c-0.4,0.1-0.6,0.4-0.6,0.8c0,0.1,0,0.3,0.1,0.4l-3.6,3.2c-0.1-0.1-0.3-0.2-0.5-0.2
		c-0.3,0-0.6,0.2-0.7,0.4l-2.5-1.1c0-0.1,0-0.1,0-0.2c0-0.4-0.3-0.8-0.8-0.8c-0.4,0-0.8,0.3-0.8,0.8c0,0.2,0.1,0.4,0.2,0.5L93,36.4
		h0.1h0.1l10.4-8c0.1,0.1,0.3,0.1,0.5,0.2c0.3,0,0.5-0.1,0.6-0.3l11.5,2.3c0.1,0.4,0.5,0.7,0.9,0.6s0.7-0.5,0.6-0.9
		s-0.5-0.7-0.9-0.6c-0.1,0-0.3,0.1-0.4,0.2l-2.9-2.8c0.2-0.1,0.2-0.3,0.2-0.5c0-0.1,0-0.1,0-0.2l2.9-1.9h0.1l3.3,2.3
		c0,0,0,0.1,0,0.1c0,0.4,0.4,0.8,0.8,0.7c0.3,0,0.6-0.2,0.7-0.5l10.7-1.4l-2.5,3c-0.1,0-0.2-0.1-0.3,0c-0.4,0-0.8,0.3-0.8,0.8
		c0,0.4,0.3,0.8,0.8,0.8c0.1,0,0.3,0,0.4-0.1l6.5,4.2l-5.1,3.8c-0.1-0.1-0.3-0.2-0.5-0.2c-0.2,0-0.4,0.1-0.5,0.2l-5-4.9
		c0.1-0.1,0.2-0.3,0.2-0.5c0-0.4-0.3-0.8-0.8-0.8c-0.4,0-0.8,0.3-0.8,0.8c0,0.2,0.1,0.4,0.2,0.5l-3.9,4.2c-0.1-0.1-0.3-0.1-0.4-0.1
		c-0.4,0-0.8,0.3-0.8,0.8s0.3,0.8,0.8,0.8c0.1,0,0.3,0,0.4-0.1l3.1,3.6h0.4l-3.3-3.8c0.1-0.1,0.1-0.3,0.1-0.4c0-0.1,0-0.3-0.1-0.4
		l4-4.2c0.1,0,0.2,0,0.3,0v8.9h0.4v-8.7l5,5c0,0.1-0.1,0.2-0.1,0.3c0,0.1,0,0.3,0.1,0.4l-3.8,3.3h0.5l3.5-3.1c0.3,0.2,0.7,0.2,1-0.1
		l2.3,0.8c0,0.1,0,0.1,0,0.2l-5.6,2.3h0.9l4.9-2c0.1,0.1,0.3,0.2,0.5,0.2h0.1l0.8,1.8h0.4l-0.9-1.9c0.1-0.1,0.2-0.1,0.2-0.2l7.1,0.1
		c0,0.1,0.1,0.3,0.2,0.3l-1,1.7h0.4l0.9-1.5c0.1,0,0.2,0.1,0.3,0.1c0.2,0,0.5-0.1,0.6-0.3l7.7,3.7c0,0,0,0.1,0,0.1c0,0,0,0.1,0,0.1
		l-6.8,1.6v0.4l6.9-1.7c0.1,0.1,0.1,0.1,0.2,0.2l-7.1,11.6v0.7l7.4-12.1h0.2l2,9.3c-0.2,0.1-0.4,0.4-0.4,0.7c0,0.1,0,0.2,0,0.2
		l-9.2,5.3v0.4l9.4-5.4c0.1,0.1,0.2,0.1,0.3,0.2l-2.6,9.8c-0.3,0-0.6,0.2-0.7,0.5l-7.8-2.5h-1.1l8.9,2.9l-6.1,1.2v-0.1l-3.3-4h-0.4
		l3.4,4.2h0.1l-7,8.2l3.3-12.5h-0.6l-6.1,9.9l-5.8-3.5l11.5-6.4H139l-11.1,6.2l-4.9-6.2h-0.4l5,6.4l-5.3,2l-0.9-8.3H121l0.9,8.2
		l-10.3-6.7l3.5-1.5h-0.9l-2.8,1.2l0.1-1.2h-0.3l-0.2,1.4l10.8,7.1c0,0,0.1,0,0.1,0h0.1l5.5-2c0,0,0.1-0.1,0.1-0.1l6.1,3.7l2.4,2.5
		c-0.2,0.3-0.2,0.8,0.2,1.1c0.1,0.1,0.3,0.1,0.5,0.1c0.3,0,0.6-0.2,0.7-0.5l4.9,1c0,0.3,0.1,0.5,0.4,0.6l-3.3,7.7h0
		c-0.4,0-0.8,0.3-0.8,0.8c0,0.1,0,0.3,0.1,0.4l-9.8,8.4c-0.1-0.1-0.2-0.1-0.3-0.1c-0.4,0-0.8,0.3-0.8,0.8c0,0.4,0.3,0.8,0.8,0.8
		c0,0,0,0,0,0c0.4,0,0.7-0.2,0.7-0.6l7.7,0.7c0,0,0.1,0,0.1,0l5.1-3.6c0.1,0.2,0.4,0.3,0.6,0.3c0.4,0,0.7-0.3,0.8-0.6L158,94
		c0.1,0,0.2-0.1,0.2-0.2c0-0.1-0.1-0.2-0.2-0.2l-14.5-0.5c-0.1-0.3-0.4-0.6-0.7-0.6c-0.4,0-0.8,0.3-0.8,0.8c0,0.1,0,0.1,0,0.2
		l-5.1,3.6l-7.6-0.7v-0.1l10.8-4.7c0.2,0.4,0.7,0.5,1,0.3c0.3-0.1,0.4-0.4,0.4-0.7v0.1l6.7-0.5c0.2,0.4,0.6,0.6,1,0.4
		c0.4-0.2,0.6-0.6,0.4-1c-0.1-0.2-0.2-0.4-0.4-0.4l1.5-5.9c0.4,0,0.7-0.4,0.7-0.8c0-0.2-0.1-0.4-0.2-0.5l5.3-9.4c0.1,0,0.1,0,0.2,0
		c0.4,0,0.8-0.4,0.7-0.8c0-0.4-0.4-0.8-0.8-0.7c-0.4,0-0.7,0.3-0.8,0.8c0,0.2,0.1,0.4,0.3,0.6l-5,8.9l2.2-8.1h0.1
		c0.4,0,0.8-0.3,0.8-0.8c0-0.4-0.3-0.8-0.8-0.8c0,0,0,0,0,0h-0.1l-1.6-5.3c0.2-0.1,0.4-0.4,0.4-0.6c0-0.2-0.1-0.5-0.3-0.6l3.8-8.8
		h0.1c0.2,0,0.3,0,0.5-0.1l2.1,1.8c0,0.1,0,0.2,0,0.3c0,0.4,0.3,0.8,0.8,0.8c0,0,0,0,0,0c0.2,0,0.3,0,0.4-0.1l5.7,4l-0.8,3h-0.1
		c-0.4,0-0.8,0.3-0.8,0.8c0,0.4,0.3,0.8,0.8,0.8c0,0,0,0,0,0h0.2l4.3,8.3c0,0.1,0.1,0.1,0.2,0.1h0.1
		C168.9,76.4,168.9,76.3,168.9,76.2C168.9,76.2,168.9,76.2,168.9,76.2z M93.9,35.7l6-8.6c0.1,0,0.2,0.1,0.3,0.1
		c0.2,0,0.5-0.1,0.6-0.3l2.5,1.2c0,0.1,0,0.2,0.1,0.4L93.9,35.7z M104.8,27.6l3.6-3.2c0.1,0.1,0.3,0.1,0.4,0.1
		c0.2,0,0.4-0.1,0.5-0.2l2.9,2.1c0,0,0,0.1,0,0.1c0,0,0,0.1,0,0.1l-7.4,1.1C104.8,27.7,104.8,27.6,104.8,27.6z M116.3,30.2
		C116.2,30.2,116.2,30.3,116.3,30.2L105,28.1l7.4-1.1c0.1,0.2,0.4,0.3,0.6,0.4c0.1,0,0.2,0,0.2,0L116.3,30.2z M113.6,26.1
		c-0.1-0.2-0.4-0.3-0.6-0.3c-0.2,0-0.5,0.1-0.6,0.3l-2.8-2V24l6.5,0.4L113.6,26.1z M121.6,26.7c0-0.1,0-0.1,0-0.2l2.6-2.2
		c0.3,0.3,0.8,0.2,1.1-0.1c0,0,0.1-0.1,0.1-0.1l6.3,1.3L121.6,26.7z M136.9,27.1l1.3,5.7c-0.3,0.1-0.4,0.4-0.4,0.7c0,0,0,0.1,0,0.1
		l-0.9,0.3L136.9,27.1z M130.1,29.7c0.1-0.1,0.1-0.3,0.1-0.4c0-0.1,0-0.2,0-0.2l5.8-3.2c0.1,0.2,0.3,0.3,0.5,0.3v7.7L130.1,29.7z
		 M136.8,34.3L136.8,34.3l1.1-0.4c0,0.1,0.1,0.1,0.1,0.1l-2.8,4.5L136.8,34.3z M134.6,39.1c-0.1,0-0.2,0-0.2,0
		c-0.3,0-0.6,0.2-0.7,0.5l-2.2-0.7c0-0.1,0-0.1,0-0.2c0-0.1,0-0.2,0-0.3l4.8-3.7L134.6,39.1z M142.1,40L142.1,40l-6.9-0.1
		c0,0,0-0.1,0-0.1c0-0.1,0-0.3-0.1-0.4l3.2-5.2c0.1,0,0.2,0,0.2,0h0.2l3.6,5.4C142.2,39.7,142.1,39.8,142.1,40z M137,76.1L137,76.1
		c-0.1,0-0.3,0.1-0.4,0.1l-2.4-2.4l6-9.7L137,76.1L137,76.1z M144.8,68.2l6.1-1.2l0.1,0.1l-7.3,10.5L144.8,68.2z M142.7,78L142.7,78
		l-4.9-1c0-0.1-0.1-0.3-0.1-0.4l6.8-8l-1.1,9C143,77.5,142.8,77.7,142.7,78z M143.3,79L143.3,79c0.3,0,0.5-0.1,0.6-0.2l6.2,4.2
		c-0.1,0.1-0.1,0.2-0.1,0.3c0,0,0,0.1,0,0.1l-9.9,3.5c-0.1-0.1-0.1-0.2-0.2-0.2L143.3,79z M140.1,91.5l-10.5,4.6l9.5-8.2
		c0.1,0.1,0.3,0.1,0.4,0.1l1.1,2.8C140.3,91,140.1,91.2,140.1,91.5z M141.3,90.9c-0.1-0.1-0.2-0.1-0.4-0.1l-1-2.8
		c0.3-0.1,0.4-0.4,0.5-0.7c0,0,0-0.1,0-0.1l9.7-3.4L141.3,90.9z M149,89.9c-0.4,0-0.7,0.3-0.7,0.7l-6.7,0.6l8.8-7.2
		c0.1,0,0.1,0.1,0.2,0.1L149,89.9z M150.8,82.5L150.8,82.5c-0.3,0-0.4,0.1-0.6,0.2l-6.2-4.2c0-0.1,0-0.2,0-0.2c0-0.1,0-0.1,0-0.2
		l8.9-4.4c0.1,0.1,0.1,0.1,0.2,0.2L150.8,82.5z M153.2,72.5c-0.2,0.1-0.3,0.4-0.3,0.6c0,0.1,0,0.1,0,0.2l-8.8,4.5l7.3-10.6
		c0.1,0,0.2,0,0.3,0h0.1L153.2,72.5z M143.3,39.6l3.4-5.5c0.1,0,0.2,0,0.2,0c0.1,0,0.2,0,0.2,0l4.5,4.7c0,0.1-0.1,0.2-0.1,0.3
		l-8.1,0.8C143.5,39.8,143.4,39.7,143.3,39.6z M151.8,43.8c-0.2,0-0.5,0.1-0.6,0.3l-7.6-3.7c0,0,0-0.1,0-0.1l8.1-0.8
		c0.1,0.2,0.3,0.3,0.5,0.4L151.8,43.8z M152.5,40.1l3.1,6.6l-0.1,0.1l-3-1.9c0-0.1,0.1-0.2,0.1-0.3c0-0.3-0.2-0.6-0.5-0.7
		L152.5,40.1z M152.2,45.3l2.9,3.6c-0.1,0.1-0.1,0.2-0.1,0.4c0,0.3,0.2,0.5,0.4,0.7l-1,4.6h-0.2L152.2,45.3z M152.1,64.5l2.3-8.5
		c0.2,0,0.3-0.1,0.4-0.2l0.3,0.2c0,0.1-0.1,0.2-0.1,0.3c0,0.3,0.2,0.5,0.4,0.7L152.1,64.5z M156,55.5c-0.3-0.1-0.5,0-0.7,0.2
		l-0.3-0.2c0-0.1,0.1-0.2,0.1-0.3c0-0.1,0-0.2-0.1-0.3l2.2-1.9L156,55.5z M158.5,58.4L158.5,58.4l-2.1-1.7c0.1-0.1,0.1-0.2,0.1-0.4
		c0-0.2-0.1-0.4-0.2-0.6l1.2-2.7h0.1l1.1,5.3L158.5,58.4z"/>
	<path d="M90.5,42.4l7.8-6.3c0.1,0.1,0.2,0.1,0.3,0.1l1.8,6.2h0.3L99,36.1c0.3-0.1,0.5-0.4,0.5-0.7c0-0.4-0.3-0.8-0.8-0.8
		c-0.4,0-0.8,0.3-0.8,0.8c0,0.2,0.1,0.3,0.2,0.5L90,42.4H90.5z"/>
	<path d="M106,97.5C106,97.5,106,97.5,106,97.5l0,0.2c-0.2,0-0.4,0.1-0.5,0.2l-3.4-2.7c0.1-0.1,0.1-0.2,0.1-0.4
		c0-0.4-0.3-0.8-0.8-0.8c-0.4,0-0.8,0.3-0.8,0.8c0,0,0,0.1,0,0.1l-2,0.5c0,0,0,0.1,0,0.1l6.6,2.6c0,0,0,0.1,0,0.1
		c0,0.4,0.3,0.8,0.8,0.8s0.8-0.3,0.8-0.8C106.8,97.9,106.5,97.5,106,97.5z M99.3,95.7l1.5-0.4c0.1,0.2,0.4,0.3,0.6,0.3
		c0.2,0,0.3,0,0.4-0.1L105,98L99.3,95.7z"/>
	<path d="M123.3,49.3h-2v3.5h2c0.5,0,1-0.1,1.3-0.5c0.3-0.3,0.5-0.8,0.4-1.3c0-0.5-0.1-0.9-0.4-1.3
		C124.3,49.5,123.8,49.3,123.3,49.3z"/>
	<path d="M83.9,49.3h-2l0,3.5h2c0.5,0,1-0.1,1.3-0.5c0.6-0.7,0.6-1.8,0-2.6C84.8,49.5,84.3,49.3,83.9,49.3z"/>
	<path d="M126.1,86c0,0-0.1,0-0.1,0c-0.1,0-0.3,0-0.4,0.1l-5.3-4.8c0.2-0.3,0.1-0.8-0.2-1c0,0,0,0,0,0l2.2-6.3l-17.4-9.8
		c0-0.1,0.1-0.1,0.1-0.2h-2.1l-16,3.4l3.1-3.4h-0.4l-3,3.3l-0.9-3.3H85l1,3.5L82.9,68c-0.1-0.2-0.3-0.4-0.5-0.5l0.6-3.8h-0.3
		l-0.5,3.6c-0.4,0-0.7,0.4-0.7,0.8c0,0.3,0.1,0.5,0.3,0.6L80,73.3l-4.8-6.1c0.1-0.1,0.2-0.3,0.2-0.5c0-0.4-0.3-0.8-0.8-0.8
		s-0.8,0.3-0.8,0.8c0,0.1,0,0.2,0,0.3L64,73.1c-0.1-0.1-0.4-0.2-0.6-0.2c-0.4,0-0.8,0.4-0.7,0.8c0,0.4,0.4,0.8,0.8,0.7
		c0.4,0,0.8-0.3,0.8-0.8c0-0.1,0-0.2,0-0.2l9.9-6.2c0.1,0.1,0.3,0.2,0.5,0.2c0.1,0,0.2,0,0.3-0.1l5,6.3H80c0,0,0.1,0,0.1,0
		c0,0,0,0,0-0.1l1.9-4.9h0.1c0.4,0,0.7-0.3,0.8-0.7l3.1-0.6l1,10.9c-0.3,0.1-0.5,0.4-0.5,0.7c0,0.4,0.3,0.7,0.6,0.8l1,10.8
		c0,0,0,0.1,0.1,0.1l4.6,2h0.2v0c0,0,0,0,0,0l-5.2-12.8l22.8,17.5c0,0.1-0.1,0.2-0.1,0.3c0,0.4,0.3,0.8,0.8,0.8c0,0,0,0,0,0
		c0.3,0,0.6-0.2,0.7-0.5l6.4,1.1c0,0.4,0.3,0.8,0.8,0.8s0.8-0.3,0.8-0.8c0,0,0,0,0,0l4.6-1.3c0.2,0.4,0.7,0.5,1,0.3
		c0.4-0.2,0.5-0.7,0.3-1c-0.1-0.2-0.3-0.3-0.5-0.4l0.7-9c0.4,0,0.7-0.4,0.7-0.8C126.8,86.4,126.5,86,126.1,86z M120.1,81.5l5.3,4.8
		c-0.1,0.1-0.1,0.3-0.1,0.4l-8.9,3.4c-0.1-0.1-0.1-0.2-0.2-0.2l3.4-8.4h0.1C119.8,81.6,120,81.6,120.1,81.5z M105.2,75.2
		c0.1,0,0.2-0.1,0.3-0.2l13.4,5.8c0,0,0,0.1,0,0.1l-12.2,2.4c-0.1-0.3-0.4-0.5-0.7-0.5L105.2,75.2z M105.7,82.9
		c-0.2,0.1-0.3,0.2-0.4,0.4l-17.2-4c0,0,0,0,0-0.1l16.2-4.3c0.1,0.2,0.3,0.3,0.5,0.3L105.7,82.9z M106.8,83.7l12.2-2.4
		c0.1,0.1,0.1,0.2,0.2,0.3l-3.4,8.4h-0.1c-0.2,0-0.4,0.1-0.5,0.2l-8.5-6.2C106.7,83.8,106.8,83.7,106.8,83.7z M119.8,80.2
		L119.8,80.2c-0.3,0-0.6,0.1-0.7,0.4l-13.4-5.8l16.2-0.7L119.8,80.2z M104.5,64.2l17,9.6l-15.8,0.6c-0.1-0.3-0.3-0.6-0.7-0.6
		l-0.8-9.5C104.3,64.3,104.4,64.2,104.5,64.2z M103.4,63.9c0.1,0.1,0.2,0.3,0.4,0.3l0.8,9.6c-0.2,0.1-0.3,0.2-0.4,0.3l-17.4-6.8
		L103.4,63.9z M92.6,92.4l-4.1-1.8l-1-10.3L92.6,92.4z M87.4,78.4L87.4,78.4l-1-10.8l17.8,6.8c0,0,0,0.1,0,0.1L88,78.8
		C87.9,78.6,87.6,78.4,87.4,78.4z M110.8,97L110.8,97L88,79.5l17.2,4c0,0.4,0.4,0.7,0.8,0.7h0.1L110.8,97L110.8,97z M111.5,96.9
		c-0.1,0-0.2,0-0.2,0l0.1,0h-0.1l-4.8-12.6h0.1l8.5,6.2c0,0.1-0.1,0.2-0.1,0.3c0,0.2,0.1,0.4,0.2,0.5L111.5,96.9z M111.9,97l3.7-5.7
		c0.1,0,0.2,0,0.3,0c0.1,0,0.1,0,0.2,0l2.2,3.6c-0.1,0.1-0.2,0.3-0.2,0.5l-6,1.7L111.9,97z M119.8,98.3c-0.2-0.4-0.7-0.5-1-0.3
		c-0.2,0.1-0.3,0.2-0.3,0.4l-5.5-0.9l10.9-0.3L119.8,98.3z M112.6,97.1l5.5-1.6c0.2,0.4,0.7,0.5,1,0.3c0.1-0.1,0.2-0.2,0.3-0.3
		l4.6,1.5L112.6,97.1z M119.5,95.2c0-0.4-0.3-0.8-0.8-0.8c0,0,0,0,0,0c-0.1,0-0.2,0-0.3,0l-2.2-3.5l8,5.5L119.5,95.2z M125.1,96.2
		c-0.1,0-0.3,0.1-0.4,0.2l-8.3-5.4c0-0.1,0.1-0.2,0.1-0.3c0,0,0-0.1,0-0.1l8.8-3.4c0.1,0.2,0.2,0.3,0.4,0.4L125.1,96.2z"/>
	<path d="M144.3,60.8L144.3,60.8l0-18.1H1.9v21h142.4v-2.5l0,0V60.8z M16.5,57.8c-0.4,0.7-0.9,1.2-1.6,1.5c-0.7,0.4-1.5,0.5-2.4,0.5
		c-0.8,0-1.6-0.2-2.3-0.5C9.6,59.1,9,58.6,8.6,58C8.2,57.4,8,56.8,8,56.1h3c0,0.4,0.2,0.8,0.5,1.1c0.3,0.3,0.7,0.4,1.1,0.4
		c1,0,1.5-0.7,1.5-2.2c0-1.5-0.6-2-1.9-2c-0.6,0-1.2,0.2-1.6,0.7l-2.4-0.6L9,47h7.5v2.3h-5.1l-0.3,2.5c0.3-0.1,0.5-0.3,0.8-0.3
		c0.3-0.1,0.7-0.1,1-0.1c1.1-0.1,2.2,0.3,3,1.1C17.2,54,17.4,56.1,16.5,57.8z M21.9,56.6c0.5,0.7,1.3,1.1,2.1,1
		c0.6,0,1.3-0.2,1.8-0.6v-2h-2.2v-2.1h5.3v5.2c-0.6,0.6-1.3,1-2.1,1.3c-1,0.3-2,0.5-3,0.5c-1.5,0.1-3-0.5-4.1-1.5
		c-1.1-1.2-1.6-2.7-1.6-4.3V53c0-1.1,0.2-2.3,0.7-3.3c0.4-0.9,1.1-1.6,1.9-2.2c0.9-0.5,1.9-0.8,2.9-0.8c1.3-0.1,2.7,0.3,3.7,1.1
		c0.9,0.8,1.5,2,1.6,3.2h-3c0-0.6-0.3-1.1-0.7-1.5c-0.4-0.3-1-0.5-1.5-0.4c-0.7,0-1.4,0.4-1.8,1C21.4,51,21.2,52,21.2,53v0.8
		C21.2,54.7,21.4,55.7,21.9,56.6z M44.4,49.4h-3.9v10.3h-3.1V49.4h-3.8V47h10.8V49.4z M54.2,49.4h-5.8V52h4.9v2.3h-4.9v3.1h5.8v2.3
		h-8.9V47h8.9V49.4z M58.3,56.6c0.4,0.6,1.1,0.9,1.8,0.9c0.6,0,1.2-0.1,1.6-0.5c0.4-0.4,0.6-1,0.6-1.6l3.1,0c0,0.8-0.3,1.6-0.7,2.3
		c-0.5,0.7-1.1,1.2-1.9,1.6c-0.9,0.4-1.8,0.6-2.7,0.6c-1.5,0.1-3-0.5-4-1.6c-1-1.3-1.6-3-1.5-4.6V53c0-1.1,0.2-2.2,0.7-3.3
		c0.4-0.9,1.1-1.7,1.9-2.2c0.9-0.5,1.9-0.8,2.9-0.8c1.4-0.1,2.7,0.4,3.8,1.2c1,0.9,1.6,2.1,1.6,3.4h-3.1c0-0.6-0.2-1.2-0.6-1.7
		c-0.5-0.4-1.1-0.6-1.7-0.5c-0.7,0-1.3,0.3-1.7,0.9c-0.4,0.8-0.6,1.8-0.6,2.7v0.9C57.7,54.7,57.9,55.7,58.3,56.6z M77.2,59.7h-3.1
		v-5.3h-4.6v5.3h-3.1V47h3.1v5h4.6v-5h3.1V59.7z M89.1,59.7h-3.3l-2.3-4.5h-1.7v4.5h-3.1V47h5.1c1.3-0.1,2.5,0.3,3.6,1
		c0.9,0.7,1.4,1.7,1.3,2.8c0,0.8-0.2,1.5-0.5,2.2c-0.4,0.6-1,1.1-1.7,1.4l2.7,5.1V59.7z M93.4,59.7h-3.1V47h3.1V59.7z M105.3,49.4
		h-3.9v10.3h-3.1V49.4h-3.8V47h10.8V49.4z M116.4,56.9c-0.4,0.9-1.1,1.7-2,2.2c-1.8,1-4,1-5.9,0c-0.9-0.5-1.6-1.2-2-2.1
		c-0.5-1-0.8-2.1-0.8-3.2v-0.7c0-1.1,0.2-2.3,0.7-3.3c0.4-0.9,1.1-1.7,2-2.2c1.8-1,4.1-1,5.9,0c0.9,0.5,1.6,1.3,2,2.2
		c0.5,1,0.7,2.1,0.7,3.3l0,0.6C117.1,54.7,116.8,55.9,116.4,56.9z M128.6,59.7h-3.3l-2.3-4.5h-1.7v4.5h-3.1V47h5.1
		c1.3-0.1,2.5,0.3,3.6,1c0.9,0.7,1.4,1.7,1.3,2.8c0,0.8-0.2,1.5-0.5,2.2c-0.4,0.6-1,1.1-1.7,1.4l2.7,5.1V59.7z M135.9,55.1v4.6h-3.2
		v-4.6l-4.1-8.1h3.3l2.4,5.5l2.4-5.5h3.4L135.9,55.1z"/>
	<path d="M113.2,50.2c-0.4-0.6-1.1-1-1.8-1c-1.6,0-2.4,1.2-2.5,3.5v0.9c-0.1,1,0.2,2,0.6,2.9c0.4,0.7,1.1,1,1.9,1
		c0.7,0,1.4-0.4,1.8-1c0.5-0.9,0.7-1.9,0.6-2.8l0-0.5C114,52.1,113.7,51.1,113.2,50.2z"/>
</g>
</svg>
