<svg id="Layer_1" data-name="Layer 1" xmlns="http://www.w3.org/2000/svg" viewBox="0 0 170.1 113.4">
  <g>
    <g>
      <path d="M49.84,54.19a14.41,14.41,0,0,1-5.65-5.35,14.78,14.78,0,0,1-2-7.74,14.73,14.73,0,0,1,2-7.74A14.36,14.36,0,0,1,49.84,28a16.83,16.83,0,0,1,8.07-1.93,17,17,0,0,1,6.82,1.33,13.67,13.67,0,0,1,5.13,3.82l-4.32,4a9.3,9.3,0,0,0-7.3-3.4A9.77,9.77,0,0,0,53.43,33a8.32,8.32,0,0,0-3.3,3.3,10.34,10.34,0,0,0,0,9.63,8.32,8.32,0,0,0,3.3,3.3,9.66,9.66,0,0,0,4.81,1.18A9.24,9.24,0,0,0,65.54,47l4.32,4a13.35,13.35,0,0,1-5.15,3.86,17,17,0,0,1-6.84,1.33A16.61,16.61,0,0,1,49.84,54.19Z"/>
      <path d="M70,37.19c1-3.45,4.24-5.66,8.44-5.66,4.83,0,8,2.81,8,8.59v11.6H82.15l-.28-2.42a6.67,6.67,0,0,1-5.62,2.78c-4.08,0-6.81-2.26-6.81-5.82,0-4.72,4.59-5.86,8.71-6.34,2.34-.28,3.64-.59,3.64-2s-1-2.41-3.56-2.41a4,4,0,0,0-4.16,3.16Zm7.09,10.93c2.46,0,4.67-1.55,4.67-5v-.08l-4.31.59c-2.62.36-3.37,1-3.37,2.42S75.22,48.12,77.12,48.12Z"/>
      <path d="M93.3,55a11.46,11.46,0,0,1-5.49-1.8l1.65-4a9.17,9.17,0,0,0,5.24,1.87q3.94,0,4-2.73a4,4,0,0,0-1-2.57,12.38,12.38,0,0,0-3.83-2.61A18.74,18.74,0,0,1,90,40.82a6.34,6.34,0,0,1-1.56-2.23,7.44,7.44,0,0,1-.54-2.89,6.36,6.36,0,0,1,1.47-4.14,7.15,7.15,0,0,1,4-2.4V26.07h4l0,2.92A8.91,8.91,0,0,1,102,30.54l-1.37,3.87a8.41,8.41,0,0,0-5-1.69,3.34,3.34,0,0,0-2.41.83,2.85,2.85,0,0,0-.85,2.12c0,1.45,1.6,3,4.82,4.52a16.05,16.05,0,0,1,3.66,2.29,7,7,0,0,1,1.71,2.44,7.93,7.93,0,0,1,.58,3.1,6.24,6.24,0,0,1-1.55,4.22,8.07,8.07,0,0,1-4.32,2.48v1.4h-4Z"/>
      <path d="M121.65,56v-8.1a.81.81,0,0,0-.76-.84h-12a.81.81,0,0,0-.77.84v5.83h-3.24V31.53h3.24v5.18a.81.81,0,0,0,.77.84h12a.81.81,0,0,0,.76-.84V31.53h3.24V56ZM108.94,40.63a.81.81,0,0,0-.77.84v1.72a.8.8,0,0,0,.77.83h12a.8.8,0,0,0,.76-.83V41.47a.8.8,0,0,0-.76-.84Z"/>
    </g>
    <g>
      <path d="M63.36,60.47a4.3,4.3,0,0,1,4.29-4.35,4.35,4.35,0,1,1,0,8.7A4.3,4.3,0,0,1,63.36,60.47Z"/>
      <path d="M108.12,80.43v4.62H102.2V57.38h5.92l.07,11.93c0,.74,1.16,1.08,1.65.53l8.58-9.72h7.31l-9.18,10.71a.6.6,0,0,0,0,.74L128,87.33h-7.53l-8.1-10.52a.56.56,0,0,0-.87,0l-3.12,3.08A.87.87,0,0,0,108.12,80.43Z"/>
      <path d="M88.94,82.13a18.79,18.79,0,0,1-4.3-1.84l1.29-4.12a21.05,21.05,0,0,0,3.67,1.76,10.69,10.69,0,0,0,3.56.71,3.34,3.34,0,0,0,1.34-.25,2.24,2.24,0,0,0,.91-.7,1.65,1.65,0,0,0,.32-1,1.62,1.62,0,0,0-.37-1,3.84,3.84,0,0,0-1.06-.86,17.31,17.31,0,0,0-1.89-.9l-1-.41a22.78,22.78,0,0,1-3.37-1.7A6.75,6.75,0,0,1,86,69.68a5.68,5.68,0,0,1-.79-3.09,5,5,0,0,1,1-3.13,6.33,6.33,0,0,1,2.77-2,10.61,10.61,0,0,1,3.92-.69,13.47,13.47,0,0,1,3.85.53,16.8,16.8,0,0,1,3.35,1.4l-1.3,4a13.16,13.16,0,0,0-2.06-1A15.83,15.83,0,0,0,94.53,65a8.59,8.59,0,0,0-1.72-.23,3.21,3.21,0,0,0-1.75.42,1.37,1.37,0,0,0-.65,1.21,1.62,1.62,0,0,0,.78,1.26,13,13,0,0,0,2.6,1.36l.7.29A20.44,20.44,0,0,1,98,71.23a7.05,7.05,0,0,1,2.16,2.27,6.08,6.08,0,0,1,.77,3.11,5.16,5.16,0,0,1-1,3.12,6.77,6.77,0,0,1-2.84,2.18A10,10,0,0,1,93,82.7,15.23,15.23,0,0,1,88.94,82.13Z"/>
      <path d="M76.54,64.82A8.15,8.15,0,1,1,68.41,73,8.13,8.13,0,0,1,76.54,64.82Zm0,13.42A5.27,5.27,0,1,0,71.29,73,5.28,5.28,0,0,0,76.54,78.24Z"/>
      <path d="M57.22,87.33l-8.28-10-.15-.07h-1a.2.2,0,0,0-.2.19V85H42.14V57.27h5.45V71.18a.53.53,0,0,0,.53.53h.77l.14-.06,6-6.92h6.79l-8.58,9.65a.17.17,0,0,0,0,.23L63.8,87.33Z"/>
      <rect x="62.39" y="67.7" width="3.81" height="14.99" rx="0.13" transform="translate(128.59 150.4) rotate(-180)"/>
    </g>
  </g>
</svg>
