<?xml version="1.0" encoding="utf-8"?>
<!-- Generator: Adobe Illustrator 25.0.1, SVG Export Plug-In . SVG Version: 6.00 Build 0)  -->
<svg version="1.1" id="Layer_1" xmlns="http://www.w3.org/2000/svg" xmlns:xlink="http://www.w3.org/1999/xlink" x="0px" y="0px"
	 viewBox="0 0 170.1 113.4" style="enable-background:new 0 0 170.1 113.4;" xml:space="preserve">
<style type="text/css">
	.st0{fill:#FFFFFF;}
	.st1{fill:#1D1D1B;}
</style>
<path class="st0" d="M74,105c-10.8,0-26.3-1.8-38.5-10.1L35,94.6c-1.5-0.9-4.9-3-6.6-4.4c-2.2-1.8-6.4-6.9-6.2-13.1
	c0.1-1.7,0.2-3.4,0.3-5.1l0.1-1.5c0-0.4,0.1-0.9,0.1-1.3l0.1-0.5l0-0.3l0-0.1c0.2-1.3,0.2-2.5,0.2-3.8c-0.3-1.3-0.8-2.6-1.6-3.7
	l-0.2-0.2v-0.1c-1-1.6-1.8-3.2-2.3-5c-0.1-0.5-0.2-0.9-0.3-1.3l0-0.2c0-0.3-0.1-0.7-0.2-1c0-0.1-0.1-0.2-0.1-0.3l-0.1-0.2
	c-0.3-0.8-0.6-1.5-0.8-2.3c-0.5-0.7-0.9-1.5-1.1-2.3c-0.3-1.1-0.6-2.2-0.8-3.3l0-0.1v-0.1c0-0.1,0-0.2,0-0.3c0-0.1,0-0.2,0-0.2
	c-0.9-1.7-0.7-3.9,0.6-5.4c0.6-0.7,1.3-1.3,2-1.9c2-1.3,4.2-2.4,6.4-3.2c1.1-0.4,2.2-0.7,3.2-1.1l0.2-0.1c0.5-1.1,1.4-1.9,2.5-2.4
	c1-0.5,2.3-1.2,3.7-1.8c0.9-0.4,1.6-0.7,2.3-1c0.3-0.7,0.6-1.5,1-2.2c0.6-1,1.2-2,1.9-2.9c0.4-0.5,0.8-0.9,1.3-1.3l0.2-0.2
	c1.1-1.1,2.5-2.1,4-2.7c0.3-0.1,0.6-0.3,0.9-0.4c0.2-0.1,0.4-0.2,0.6-0.3c1.8-1,3.8-1.8,5.9-2.2c5.4-0.9,10.6-2.5,15.4-4.9
	c1.2-0.7,2.5-1.2,3.9-1.5c0.4-0.1,0.7-0.1,1-0.1c1.5,0,2.9,0.8,3.6,2.2c0.1,0.3,0.2,0.5,0.3,0.8c0.1,0,0.3,0,0.4,0
	c0.4,0,0.8,0,1.2,0c8.8,0,15.9,2,24.4,5.1c12.2,4.5,31,8.2,33.3,8.4l0.2,0l0.3,0.1c0.4,0.2,0.6,0.4,0.7,0.6c0.1,0.3,0.1,0.6,0,0.8
	c-0.2,0.6-0.8,0.6-1,0.7c-1.8,0.7-8.8,3.2-16.3,3.9c6.2,1.7,14,3.6,14.4,3.7l2.8,0.7l-2.8,1.4h0c-2.6,1.2-9.5,3.7-20.4,4.1
	c-0.1,0-0.2,0-0.3,0c8.6,2.4,20,3.8,26.7,4.6c6.2,0.7,6.3,0.7,6.6,1.6l0,0.1v0.6l-0.4,0.4C139,54,129.5,55,121,55.9
	c-2.8,0.3-6,0.6-8.7,1.2c-3.4,0.7-5.6,1.9-6.7,3.8c-0.4,0.7-0.6,1.4-0.8,2.1c26.9,0.3,47.1,12.7,49.3,14.1l3,2l-3.9,0
	c-4.5,0-13.4,0.1-21.7,0.1l-0.4,0c-3.2,0-6.5,0.1-9.8,0.3c11.3,1.5,28.4,3.5,28.6,3.6l6.6,0.8l-6.6,1.3h0c-0.4,0.1-2.5,0.5-4.8,1
	c-6,1.2-16,3.2-18.4,3.5l-0.3,0c-2.9,0.4-6.4,0.9-9.9,1.4c8.4,1.7,21.9,4.3,23.8,4.6l8.2,1.5l-8.2,0.6c-0.1,0-0.7,0-1.5,0.1
	c-5.3,0.4-21.6,1.6-27.2,1.6l-0.4,0c-7,0-13.9-0.6-20.8-1.8c5.7,1.2,7.2,2,7.1,3.4c-0.1,1.7-2.4,2.3-12.1,3.1c-0.5,0-0.8,0.1-1,0.1
	l-0.1,0c-3.3,0.4-6.7,0.6-10,0.6H74z"/>
<path class="st1" d="M74,104.2c-10.7,0-26-1.8-38.1-10c0,0-0.2-0.1-0.5-0.3c-1.3-0.8-4.8-3-6.5-4.4c-2.1-1.7-6.1-6.5-5.9-12.4
	c0.1-1.8,0.2-3.5,0.3-5.3l0.1-1.2c0-0.6,0.1-1.2,0.2-1.8v-0.3c0.2-1.3,0.2-2.7,0.2-4c-0.3-1.5-0.9-2.9-1.7-4.1v-0.1
	c-1-1.5-1.8-3.2-2.3-5c-0.1-0.5-0.2-1-0.3-1.3c0-0.4-0.1-0.7-0.2-1.1c0-0.1-0.1-0.3-0.2-0.4L19,52.2c-0.3-0.7-0.6-1.5-0.8-2.3
	c-0.5-0.6-0.9-1.4-1.1-2.2c-0.3-1.1-0.5-2.2-0.8-3.3c0-0.2,0-0.4-0.1-0.6v-0.1c-0.9-1.4-0.7-3.3,0.4-4.6c0.5-0.7,1.2-1.2,1.9-1.7
	c2-1.3,4-2.3,6.2-3.1c1.3-0.5,2.6-0.9,3.7-1.2l0,0c0.4-1,1.2-1.9,2.2-2.3c1.1-0.5,2.4-1.2,3.7-1.8c1-0.5,1.8-0.8,2.6-1.1
	c0.3-0.8,0.7-1.6,1.1-2.4c0.5-1,1.1-1.9,1.8-2.8c0.3-0.4,0.7-0.8,1.2-1.1l0.2-0.2c1.1-1.1,2.4-2,3.8-2.6c0.5-0.2,1-0.5,1.6-0.8
	c1.8-1,3.7-1.8,5.7-2.2c5.4-0.9,10.7-2.6,15.6-5c1.2-0.6,2.4-1.1,3.7-1.5c0.2,0,0.5-0.1,0.7-0.1c1.2,0,2.3,0.7,2.9,1.7
	c0.2,0.4,0.3,0.8,0.4,1.3c0.8,0,1.5-0.1,2.2-0.1c8.7,0,15.7,1.9,24.1,5.1c12,4.4,31,8.2,33.5,8.4h0.1h0.1h0.1
	c0.3,0.1,0.3,0.3,0.2,0.4s-0.1,0.2-0.4,0.1c-1.6,0.6-11.7,4.4-20.9,4h-1.1c5.6,1.7,19.8,5.2,20,5.2l0.6,0.2l-0.5,0.3
	c-0.1,0-7.2,3.7-20.3,4.2c-2,0-3.9,0-5.9-0.2c8.7,3.7,23.9,5.5,32.2,6.4c5.4,0.6,5.8,0.7,5.9,1v0.2l-0.1,0.1
	c-6.9,5.7-16.3,6.7-24.7,7.6c-3.1,0.3-6.1,0.7-8.8,1.2c-3.7,0.7-6,2.1-7.3,4.2c-0.6,1-0.9,2.2-0.9,3.4c28.3,0.1,49.6,13.9,49.8,14
	l0.6,0.4h-0.7c-0.1,0-11.5,0.1-22,0.1c-5.9,0-11.8,0.3-17.7,1c8.3,1.2,35.7,4.5,36,4.6l1.4,0.2l-1.4,0.3c-0.2,0-19.9,4-23.3,4.5
	c-4.5,0.7-10,1.5-15.4,2c6.2,1.4,28.7,5.7,29,5.8l1.7,0.3l-1.7,0.1c-0.2,0-22.9,1.7-29.1,1.7c-9.9-0.1-19.8-1.3-29.4-3.6
	c-1.6-0.4-3.3-0.6-5-0.6c-0.5,0-1,0-1.4,0.1c2.7,1,5.9,2,9.2,2.9c0.3,0.1,1,0.2,2,0.4c6.5,1.3,10.3,2.2,10.2,3.3s-3.3,1.6-11.4,2.3
	c-0.6,0-1,0.1-1.2,0.1C80.7,104,77.3,104.2,74,104.2z M72.6,9.7c-0.2,0-0.4,0-0.7,0.1c-1.3,0.3-2.5,0.8-3.6,1.4
	c-5,2.5-10.3,4.2-15.8,5.1c-1.9,0.4-3.8,1.1-5.5,2.1c-0.5,0.3-1.1,0.5-1.6,0.8c-1.4,0.6-2.6,1.5-3.7,2.5l-0.3,0.2
	c-0.4,0.3-0.8,0.7-1.1,1.1c-0.7,0.9-1.3,1.8-1.8,2.7c-0.4,0.8-0.8,1.6-1.1,2.4v0.1h-0.1c-0.8,0.3-1.7,0.7-2.7,1.1
	c-1.3,0.6-2.6,1.2-3.7,1.8c-0.9,0.4-1.7,1.2-2,2.2v0.1h-0.1h-0.1h-0.1c-1.1,0.4-2.4,0.8-3.7,1.2c-2.2,0.8-4.2,1.8-6.1,3.1
	c-0.7,0.5-1.3,1-1.8,1.6c-1,1.1-1.2,2.8-0.4,4.1v0.1v0.2c0,0.2,0,0.4,0.1,0.6c0.2,1.1,0.5,2.2,0.7,3.2c0.2,0.8,0.5,1.5,1,2.1v0.1
	c0.2,0.8,0.5,1.6,0.8,2.3l0.1,0.2c0.1,0.1,0.1,0.3,0.2,0.4c0.1,0.4,0.2,0.8,0.2,1.1c0.1,0.4,0.1,0.9,0.3,1.3
	c0.5,1.7,1.3,3.4,2.3,4.9v0.1c0.9,1.3,1.5,2.7,1.8,4.3c0,1.3,0,2.7-0.2,4v0.3c-0.1,0.6-0.1,1.2-0.2,1.8l-0.1,1.2
	c-0.1,1.8-0.2,3.5-0.3,5.3c-0.2,5.7,3.6,10.3,5.7,12c2.1,1.6,4.2,3,6.5,4.4l0.5,0.3c12,8.3,27.2,10,37.9,10c3.3,0,6.7-0.2,10-0.5
	l1.2-0.1c9.5-0.8,10.9-1.6,11-1.9c0-0.6-3.3-1.5-9.8-2.8c-1-0.2-1.7-0.3-2-0.4c-3.6-1-7.3-2.2-10.1-3.2l-0.8-0.3l0.9-0.1
	c0.8-0.1,1.6-0.2,2.5-0.2c1.7,0,3.4,0.2,5.1,0.6c9.6,2.3,19.5,3.5,29.4,3.5c5.2,0,21.9-1.1,27.4-1.5c-6-1.1-25.8-4.9-28.6-5.8
	l-1.1-0.3l1.2-0.1c5.8-0.5,11.8-1.4,16.6-2.1c2.9-0.4,17.4-3.3,21.9-4.2c-6.2-0.8-31.1-3.8-36.1-4.6l-1.3-0.2l1.3-0.2
	c6.4-0.9,12.8-1.3,19.2-1.2c8.9,0,18.5-0.1,21.2-0.1c-3.8-2.3-23.6-13.5-49.1-13.5h-0.2V64c0-1.4,0.3-2.7,1-3.9
	c1.3-2.2,3.8-3.6,7.6-4.4c2.7-0.5,5.7-0.8,8.8-1.2c8.2-0.9,17.4-1.9,24.2-7.2c-0.8-0.2-2.9-0.4-5.3-0.7c-8.8-1-25.1-2.9-33.5-7
	l-1.1-0.5l2,0.1c2.1,0.2,4.2,0.3,6.2,0.2c10.9-0.4,17.6-3,19.5-3.8c-3.1-0.8-17.2-4.3-20.8-5.5l-1.3-0.5h1.4c0.9,0,1.7,0,2.6,0
	c8.1,0.3,16.9-2.6,19.9-3.7c-0.5-0.1-1.3-0.2-2.4-0.4c-2.5-0.5-5.6-1.1-8.7-1.8c-7.4-1.6-14.7-3.6-21.8-6c-8.4-3.1-15.4-5-24-5
	c-0.8,0-1.7,0-2.5,0.1h-0.2v-0.2c0-0.5-0.1-0.9-0.3-1.3C74.5,10.2,73.6,9.7,72.6,9.7z"/>
<path class="st1" d="M55.9,45.6c0.8,1.9,1.5,3.9,1.9,6c0.5,3.1,0.4,4.1-1.3,6.8c-0.3-1-0.7-2-1.4-2.9c-0.2,0.8-0.4,1.6-0.8,2.3
	c-0.3-1.6-1.1-3.1-2.2-4.3c0.8,2.8,1.8,8.8-2.5,12c2.2,0.3,4.9,0.7,6.9-0.5c2.9-1.8,3.3-5.5,3.9-8.5c0.7,0.3,1.3,0.9,2,1.2
	c-0.1-0.5-0.1-1-0.1-1.5c0.5,0.2,0.8,0.8,1.2,1.1c0-1.3,0.4-2.3,0.4-3.6c1.4,0.4,2.7,1.1,3.8,1.9c-0.5-1.3-0.9-2.6-1.2-3.9
	c-1.2,0.9-4.9-0.7-5.9-1.4C58.9,49,57.3,47.4,55.9,45.6z"/>
<path class="st1" d="M145.8,75.9c-21-9.1-44.3-9.2-44.3-9.2c-1.3-4-0.2-11.6,10.2-13.5s19.1-1.3,26.4-4.2c0.1,0,0.1-0.1,0.1-0.2
	c0,0-0.1-0.1-0.1-0.1c-22.2-1.4-34.3-5.3-39.9-12.3c-0.9-1.1,15.4,2.1,25.1-0.4c0.1,0,0.1-0.1,0.1-0.2c0-0.1-0.1-0.1-0.1-0.1
	c-7.6-1-15.2-4.4-25.4-8c-9.4-3.3,14.6,1.4,27.8-1.2c0.1,0,0.1-0.1,0.1-0.2c0-0.1-0.1-0.1-0.1-0.1c-23-2.3-33.5-13.1-54.2-10.3
	c-1.6,0.2,1.2-2.7,1-3.4c-2.3,0.1-8.4,4.8-19.5,6.5c-2.3,0.4-4.3,1.7-6.5,2.7c-1.1,0.5-2.1,1.2-2.9,2c-0.4,0.3-0.8,0.6-1.1,1
	c-0.6,0.8-1.1,1.6-1.6,2.4c-0.4,0.8-0.8,1.6-1,2.4c-0.1,0.5-0.5,0.9-1,1c-1.1,0.4-2.1,0.8-3.1,1.3c-1.2,0.6-2.4,1.1-3.6,1.7
	c-0.6,0.3-1,0.7-0.4,1.5c0,0.1,0.1,0.1,0.1,0.2c-0.2,0.1-0.4,0.2-0.6,0.2c-1.8,0.6-3.6,1.1-5.3,1.8c-2,0.7-3.9,1.7-5.7,2.8
	c-0.5,0.3-0.9,0.7-1.2,1.2c-0.3,0.3-0.3,0.7-0.1,1c0.3,0.5,0.5,1.2,0.5,1.8c0.2,1,0.4,2,0.7,3c0.1,0.5,0.4,1,0.8,1.4
	c0.1,0.1,0.2,0.3,0.2,0.4c0.2,1,0.6,2,1,3c0.3,0.9,0.5,1.8,0.6,2.7c0.5,1.5,1.1,3,2,4.3c1.1,1.6,1.9,3.5,2.1,5.4
	c0,2.2-0.1,4.3-0.4,6.5c-0.1,2.2-0.3,4.3-0.4,6.5c-0.2,4.6,3.1,8.6,4.8,9.9c2,1.6,6.7,4.4,6.8,4.5c17.2,11.8,41.9,9.5,46,9
	c0.1,0,0.1,0,0.1-0.1s0-0.1-0.1-0.1c-2.5-0.7-12.9-3.6-16.3-6.2c-0.1-0.1-0.1-0.2,0-0.2c0,0,0,0,0,0c6.7-3.9,14-2,15.1-1.7
	c15.4,5,31.3,3.4,38.5,4c0.1,0,0.2-0.1,0.2-0.2c0-0.1,0-0.1-0.1-0.2c-10.4-3-23.5-6-26-7.8C95,88.2,95,88.1,95,88
	c0,0,0.1-0.1,0.2-0.1c9.1,2.1,33-2.7,39.5-3.2c0.1,0,0.1-0.1,0.1-0.2c0-0.1-0.1-0.1-0.1-0.1c-5.8-0.8-25.3-1-35-6
	c-0.1,0-0.1-0.1-0.1-0.2c0-0.1,0.1-0.1,0.2-0.1c4.9,0.7,26-4.5,45.9-1.9C146,76.3,146,76,145.8,75.9z M111.5,48.3
	c0,0-13.7,6.4-24.4-0.3c5.7,1.8,11.8,2,17.5,0.5c-11.2-3.6-11.9-7-14.9-9.4C103.4,47.7,111.5,48.3,111.5,48.3z M78.9,18
	c2.3-0.1,4.7,0.2,6.9,1c2.7,1,5.3,1.9,8,3.1c-5.2-0.7-10.4-0.9-15.6-0.5c3.7,1.5,6.8,4.1,10.1,6.4s7,4.2,11,4.1
	c-7.1,1.2-14.4-0.7-20.1-5.3c-2.3-1.9-3.4-3.3-6.6-4.7c-3.9-1.7-13.5-1.1-14.8-0.8C63.5,19.7,73,18,78.9,18z M22.7,40.8
	c2.7-2,10.5-4.3,11.1-4.8c0.3-0.2-0.3-0.5,0.3-1.2s6.5-2.4,7.5-3.5c1.7-1.8,1.6-3.7,4.5-4.3c0.5,0,1,0,1.4,0.1
	c3.4,0.3,6.8,0.1,10.1-0.6c1.3-0.3,1.7-0.5,2.5,0.5c0.7,1.1,1.2,2.3,1.6,3.5c-0.3-0.7,0.8-3.5,1-4.3l5.7,3.8
	c0.3,0.1,0.5,0.4,0.6,0.6c0,0.2,0,0.4-0.1,0.5c-0.5,1.7-1.3,3.5-1,5.3c0.1,0.3,0.8,3.3,1.1,3.3c-0.8,0-1.5-0.2-2.1-0.7
	c0.3,2,0.9,3.8,1.9,5.5c-2.1-3-8.1-2.5-9.5-2c-0.6,6.6,8.4,6.6,8.4,6.6s1.4,6.3,1.7,8.7c0,0-3.2-1.8-4.2-2.3l-1,4.7
	c-0.3-0.3-0.6-0.6-0.8-1c-0.5,1-1.1,4.5-2.6,6.3c-2.6,2.9-7.4,4.1-11.7,2.8c-1.1,1.7-2.4,3.3-3.9,4.7c1.8-4.9,3.3-10.3,1.8-15.5
	c-1.1-2.3-2.4-4.6-3.8-6.7c-1-1.5-2.5-2.6-4.2-3.1c-1.6-0.6-3.6-0.3-5.1-1.3c-0.5-0.5-1.3-0.8-2-0.7c-0.5,0.2-0.9,0.4-1.3,0.7
	C30,46.9,29.4,47,28.8,47c-0.2,0-1.2-0.4-1.4-0.3c1-0.3,1.7-1.1,2.1-2c0.9-3.2,4.2-2.7,6.9-3.7c1.3-0.5,7.1-2.7,9-3.1
	c0.8-0.2,1.8-0.8,2.3-0.3c0.7,0.7,1.5,1.3,2.5,1.5l0,0c0,0.1-1.9,1.3-1.9,1.4c1.3,0,2.7,0,4-0.2c2-0.1,4.9,0.3,5.5-0.2
	c0.5-0.9,0.8-1.9,0.8-2.9c-1.6-0.2-3.3-0.1-4.9,0.3c2.1-3,6.3-1.8,6.4-1.7c-0.4-0.9-1.1-1.7-2.1-2.1c-1.2-0.3-2.4-0.2-3.5,0.2
	c-1.5,0.6-4.6,2.4-4.8,2.5c-0.6,0.1-1.2-0.1-1.6-0.5c-0.4-0.5-0.5-1.1-0.2-1.7c0.1-0.3,0.3-0.6,0.5-0.8c0.2-0.3,0.4-0.5,0.7-0.8
	l-4.8,2.7c-2.7,1.3-5.4,2.5-8.3,3.6c-1.6,0.6-3.2,1.1-4.9,1.5c-0.9,0-1.7-0.1-2.6-0.2C26.6,40,24.6,40.3,22.7,40.8z M23.3,50.5
	c-0.2-0.7-0.6-1.7-0.3-2c0.7-0.1,2,0.9,2.6,1.1c2,0.6,4.2,0.2,5.9-1c0.3-0.2,0.6-0.4,0.9-0.4c0.5,0,1,0.3,1.4,0.7
	c1,0.9,2.7,0.8,3.9,1c3,0.8,5.3,3.2,6,6.2c-2-2.8-5.3-4.4-8.7-4.2c0.2,0,0.6,0.2,0.6,0.3c-0.2,2.4-0.3,4.8-0.1,7.2
	c0,0.2-3.3-4.5-3.3-8.1c-0.4-0.3-4,0-4.6,0l-2.1-0.2c0,0,1.1,0.7,1.2,1c0,2.6,1,4.6,1.6,6.5C27.9,58.6,25.4,57.8,23.3,50.5z
	 M49.9,78.1c-2.4,0.7-8.3,2.6-9.2,4.9s1.8,6.2,2,6.2c-1.8-0.1-3.4-0.8-4.7-2c-0.8-0.9-1.5-1.8-2-2.9c-0.7-1.5-1.2-3.1-1.7-4.7
	c-0.2,0.8-0.3,1.5-0.3,2.3c-0.5-1-1-2.1-1.4-3.2c-0.8,1.4-0.1,6.5-0.1,6.5s-2.7-3.3-3.1-5.9c-0.4-2.3-0.5-4.7-0.4-7
	c0.2-1.5,0.7-3,1.3-4.4c0.2,2,0.6,4,1.1,6l2.9-0.4c-0.4-2-0.4-4,0.1-5.9c0.6,1.2,1.6,4.2,3.1,5.6c1.9,1.6,5.4,3.7,6.4,3.8
	c0.8-2.2,2.4-0.5,2.4-0.5s0.5-1.7,0.8-2.7c0.3,0.7,1.1,1.7,1.8,1.7c1.6-0.1,3.2-0.4,4.8-0.9c-0.2,0.6-0.7,4.3-4.2,6.3
	C49.9,80,50,79,49.9,78.1z M64.3,91.8c-1.7,0.6-3.5,1.8-5.3,1.7c1.5,0.7,5.9,3.3,10.2,5.4c-2.1-0.1-4.1-0.7-6-1.5
	c-0.8-0.3-1.6-0.7-2.4-1.1c-0.7-0.3-1.4-0.5-2.1-0.8c-3-1.1-6.2-1.8-9-3.2c1,0,1.7,0.1,2.4,0.1c1,0,2.1-0.1,3.1-0.2
	c2-0.2,4.1-0.7,6.1-1.2c3.8-0.8,7.6-1.6,11.4-1C69.8,90.3,67,90.9,64.3,91.8z M80.7,66.8c1.2,2.4,3.6,4.7,6.2,6.7
	c-2.9-1-6-1.5-9.1-1.5c8.5,12.2,41,12.4,41,12.4S88,91,68.4,69.2c3.4-0.6,6.9-0.6,10.3,0c0,0-1.9-3.7-4.2-4.7
	c3.6-0.9,5.5-1.7,5.5-1.7l-3.4-3.4c5.2,3.3,10.8,6.1,16.5,8.3c14.3,5.5,31.9,5.7,31.9,5.7S103.9,77.3,80.7,66.8z"/>
</svg>
