<?xml version="1.0" encoding="utf-8"?>
<!-- Generator: Adobe Illustrator 25.0.1, SVG Export Plug-In . SVG Version: 6.00 Build 0)  -->
<svg version="1.1" id="Layer_1" xmlns="http://www.w3.org/2000/svg" xmlns:xlink="http://www.w3.org/1999/xlink" x="0px" y="0px"
	 viewBox="0 0 170.1 113.4" style="enable-background:new 0 0 170.1 113.4;" xml:space="preserve">
<g>
	<g>
		<g>
			<g>
				<path d="M42.3,44.8c1.7-0.5,4.5-0.7,7.3-0.7c2.5,0,5.3,0.4,7.2,1.6c2,1.2,3.2,3,3.2,5.9c0,3.1-1.4,5.5-3.6,7.1
					c-2.2,1.7-5.4,2.4-8.9,2.4c-1.1,0-2-0.1-2.6-0.2l-1.8,9.3h-5.7L42.3,44.8z M45.8,56.3c0.7,0.2,1.4,0.2,2.5,0.2
					c3.3,0,5.9-1.7,5.9-4.4c0-2.7-2.1-3.4-4.4-3.4c-1.2,0-2.1,0.1-2.6,0.2L45.8,56.3z"/>
			</g>
			<g>
				<path d="M90.8,42.7l-2.2,11l0.1,0C90.1,52,92.5,51,95,51c4.1,0,6.3,3.1,6.3,7c0,5.8-4.1,12.9-13.2,12.9c-4.9,0-7.4-2.1-7.3-5.7
					c0-1.2,0.2-2.4,0.5-3.7L85,42.7H90.8z M87,62c-0.1,0.6-0.3,1.3-0.2,2.2c0.1,1.5,1,2.2,2.4,2.2c3.4,0,5.9-3.9,5.9-7.4
					c0-1.9-1-3.4-2.8-3.4c-2.2,0-4.5,2.1-5.2,5.8L87,62z"/>
			</g>
			<g>
				<path d="M71,70.5l0.4-2l-0.1,0c-1.5,1.7-3.8,2.7-6.3,2.7c-4.1,0-6.3-3.1-6.3-7c0-5.8,4.1-12.9,13.2-12.9c4.9,0,7.4,2.1,7.3,5.7
					c0,1.2-0.2,2.4-0.5,3.7l-1.9,9.8H71z M73,60.2c0.1-0.6,0.3-1.3,0.2-2.2c-0.1-1.5-1-2.2-2.4-2.2c-3.4,0-5.9,3.9-5.9,7.4
					c0,1.9,1,3.4,2.8,3.4c2.2,0,4.5-2.1,5.2-5.8L73,60.2z"/>
			</g>
			<g>
				<path d="M101.7,70.3l5.3-27.7h5.8l-5.3,27.7H101.7z"/>
			</g>
			<g>
				<path d="M132.6,59.1c0,7.2-5.3,11.7-12.1,11.7c-4.8,0-8.8-2.9-8.8-8.3c0-6.6,4.9-11.6,12-11.6C128.9,50.9,132.6,54.2,132.6,59.1
					z M117.8,62.4c0,2.5,1.4,3.9,3.5,3.9c3.3,0,5.1-3.8,5.1-7c0-1.9-0.9-4-3.5-4C119.4,55.4,117.8,59.6,117.8,62.4z"/>
			</g>
		</g>
		<g>
			<path d="M44.4,92.3c-0.3,0-0.6-0.1-0.8-0.3c-0.4-0.4-0.4-1.1,0-1.6l9.1-9.1c0.2-0.2,0.5-0.3,0.8-0.3H135c3.3,0,5.3,0,6.5-0.5
				c0,0,0,0,0,0c1.7-0.6,3-2,3.7-3.7c0,0,0,0,0,0c0.5-1.2,0.5-3.2,0.5-6.5V44.1c0-3.3,0-5.3-0.5-6.5c0,0,0,0,0,0
				c-0.6-1.7-2-3-3.7-3.7c0,0,0,0,0,0c-1.2-0.5-3.2-0.5-6.5-0.5H35.1c-3.3,0-5.3,0-6.5,0.5c0,0,0,0,0,0c-1.7,0.6-3,2-3.7,3.7
				c0,0,0,0,0,0c-0.5,1.2-0.5,3.2-0.5,6.5v26.2c0,3.3,0,5.3,0.5,6.5c0,0,0,0,0,0c0.6,1.7,2,3,3.7,3.7c0,0,0,0,0,0
				c1.2,0.5,3.2,0.5,6.5,0.5c0.6,0,1.1,0.5,1.1,1.1c0,0.6-0.5,1.1-1.1,1.1c-3.6,0-5.8,0-7.4-0.7c-2.3-0.8-4.1-2.6-4.9-4.9
				c-0.7-1.6-0.7-3.8-0.7-7.4V44.1c0-3.6,0-5.8,0.7-7.4c0.8-2.3,2.6-4.1,4.9-4.9c1.6-0.7,3.8-0.7,7.4-0.7H135c3.6,0,5.8,0,7.4,0.7
				c2.3,0.8,4.1,2.6,4.9,4.9c0.7,1.6,0.7,3.8,0.7,7.4v26.2c0,3.6,0,5.8-0.7,7.4c-0.8,2.3-2.6,4.1-4.9,4.9c-1.6,0.7-3.8,0.7-7.4,0.7
				H53.9L45.1,92C44.9,92.2,44.6,92.3,44.4,92.3z"/>
		</g>
	</g>
</g>
</svg>
