<?xml version="1.0" encoding="utf-8"?>
<!-- Generator: Adobe Illustrator 25.0.1, SVG Export Plug-In . SVG Version: 6.00 Build 0)  -->
<svg version="1.1" id="Layer_1" xmlns="http://www.w3.org/2000/svg" xmlns:xlink="http://www.w3.org/1999/xlink" x="0px" y="0px"
	 viewBox="0 0 170.1 113.4" style="enable-background:new 0 0 170.1 113.4;" xml:space="preserve">
<style type="text/css">
	.st0{fill:#1D1D1B;}
</style>
<path class="st0" d="M28.2,68.4v-2l-5.3,0.1v-2.1l4.7-9.9h2.7l-4.5,9.6h2.5v-3.2h2.4v3.2H32v2.3h-1.4v2L28.2,68.4z M13.7,68.5
	L24,45.7h2.6L16.4,68.5L13.7,68.5z M12.3,59.7l-0.1-10.8l-2.5,2.3v-3l2.8-2.4h2.2l0.2,13.9L12.3,59.7z"/>
<path class="st0" d="M76.9,66c-2.4,0.2-4.7-0.6-6.5-2.2l-0.3-0.2l2-2l0.2,0.3c1.2,1.1,2.8,1.7,4.5,1.6c1.4,0,3.7-0.4,3.7-2.4
	c0-0.8-0.3-1.7-2.2-1.9l-2.5-0.2c-4-0.3-4.9-2.5-4.9-4.4c0-2.9,2.3-4.8,5.9-4.8c2-0.1,4,0.4,5.7,1.6l0.3,0.2l-1.9,2l-0.2-0.2
	c-1.1-0.8-2.5-1.2-3.9-1.1c-1.1,0-3.1,0.3-3,2.2c0,0.8,0.3,1.7,2.4,1.9l2.4,0.2c3.2,0.3,4.8,1.7,4.8,4.4
	C83.4,63.9,80.9,65.9,76.9,66L76.9,66z"/>
<path class="st0" d="M94.6,65.8c-2.2,0-3.5-0.4-4.5-1.4c-0.9-0.9-1.3-2.1-1.3-3.3c0-3,2-4.7,5.6-4.8h4.2v-1.1c0-2.1-1.1-3-3.6-3
	c-1.4-0.2-2.8,0.5-3.5,1.6l-0.2,0.3l-2-1.8l0.2-0.3c1.5-2,3.3-2.4,5.6-2.5c5.3-0.1,6.5,2.9,6.5,5.3l0.1,10.7h-2.9v-1
	C97.5,65.4,96,65.9,94.6,65.8L94.6,65.8z M94.6,58.6c-2.1,0-3.1,0.8-3,2.4c0,1.1,0.4,2.2,3.2,2.2c1.1,0.1,2.3-0.2,3.1-1
	c0.5-0.7,0.8-1.5,0.6-2.4v-1.3L94.6,58.6z"/>
<path class="st0" d="M113.8,65.4c-2.2,0.1-4.1-1.6-4.3-3.9c0-0.2,0-0.3,0-0.5l-0.1-9h-1.9v-2.4h1.9l-0.1-4.8h2.9v4.8h3.2V52h-3.2
	l0.1,8.9c0,1.3,0.6,1.9,1.8,1.9h1.5v2.6L113.8,65.4z"/>
<path class="st0" d="M128.1,65.4c-1.7,0.1-3.4-0.6-4.6-1.8c-1.7-1.7-2-4.1-2-6.3c0-2.1,0.2-4.5,1.9-6.3c2.6-2.5,6.6-2.5,9.2-0.1
	c1.7,1.7,2,4.1,2,6.3s-0.2,4.5-1.9,6.3C131.4,64.7,129.8,65.4,128.1,65.4z M127.9,51.8c-0.9,0-1.8,0.4-2.5,1c-1,1-1.1,2.7-1.1,4.5
	c0,1.7,0.2,3.5,1.2,4.5c0.7,0.7,1.6,1,2.5,1c1,0,1.9-0.4,2.5-1c1-1,1.1-2.8,1.1-4.5c0-1.6-0.1-3.4-1.2-4.5
	C129.8,52.1,128.8,51.8,127.9,51.8L127.9,51.8z"/>
<path class="st0" d="M141.6,65l-0.2-15.9h2.9v1.3c1.1-1,2.5-1.5,3.9-1.5c1.5-0.1,2.9,0.4,3.9,1.5l0.2,0.2l-2.1,2.2l-0.2-0.2
	c-0.6-0.7-1.5-1.1-2.4-1c-1.8,0-3.3,1.5-3.3,3.4c0,0.1,0,0.3,0,0.4l0.1,9.7L141.6,65z"/>
<path class="st0" d="M157.5,64.8l-0.2-15.9h2.9l0.2,15.9H157.5z M157.1,45.3v-3.2h3.2v3.2H157.1z"/>
<path class="st0" d="M45.6,75.6c-10.5-10.3-10.7-27.2-0.4-37.7l0.9-0.9l20,19.5L46.5,76.5L45.6,75.6z M46.1,40.6
	c-8.1,9.2-7.9,23.1,0.4,32.1l15.9-16.2L46.1,40.6z"/>
</svg>
