<?xml version="1.0" encoding="utf-8"?>
<!-- Generator: Adobe Illustrator 25.0.1, SVG Export Plug-In . SVG Version: 6.00 Build 0)  -->
<svg version="1.1" id="Layer_1" xmlns="http://www.w3.org/2000/svg" xmlns:xlink="http://www.w3.org/1999/xlink" x="0px" y="0px"
	 viewBox="0 0 170.1 113.4" style="enable-background:new 0 0 170.1 113.4;" xml:space="preserve">
<style type="text/css">
	.st0{fill:#A1A1A1;}
</style>
<path d="M47,35.8L42.4,20c-0.3-0.9-1.2-1.4-2.1-1.2c-0.9,0.3-1.4,1.2-1.2,2.1l5,17l0,0c0,0.2,0.1,0.3,0.2,0.5l0.1,0.1
	c0.1,0.1,0.2,0.3,0.3,0.3l0,0c0.1,0.1,0.3,0.2,0.4,0.2h0.1c0.2,0,0.3,0.1,0.5,0.1l0,0l17.8-0.5c0.9,0,1.7-0.8,1.7-1.8
	c0-0.5-0.3-1-0.7-1.3c-0.3-0.2-0.7-0.3-1.1-0.3L47,35.8z"/>
<path d="M25.7,35.8L9.3,35.3c-0.9,0-1.7,0.7-1.8,1.7c0,0.9,0.7,1.7,1.7,1.8l17.7,0.5l0,0c0.2,0,0.3,0,0.5-0.1h0.1
	c0.2,0,0.3-0.1,0.5-0.2l0,0c0.1-0.1,0.2-0.2,0.4-0.3l0-0.1c0.1-0.1,0.2-0.3,0.2-0.5l0,0l5-17c0.3-0.9-0.3-1.9-1.2-2.1
	c-0.5-0.1-1.1-0.1-1.5,0.3c-0.3,0.2-0.5,0.5-0.6,0.9L25.7,35.8z"/>
<path class="st0" d="M20.3,54.7l-5.5,15.4c-0.3,0.9,0.1,1.9,1,2.2c0.9,0.3,1.9-0.1,2.2-1l6-16.7l0,0c0.1-0.2,0.1-0.3,0.1-0.5V54
	c0-0.2,0-0.3-0.1-0.5l0,0c-0.1-0.2-0.1-0.3-0.2-0.4L23.7,53c-0.1-0.1-0.2-0.3-0.4-0.3l0,0l-14.7-10c-0.8-0.5-1.9-0.3-2.4,0.5
	S5.9,45,6.7,45.5L20.3,54.7z"/>
<path d="M36.1,66.2l13,10c0.7,0.6,1.8,0.4,2.4-0.3c0.6-0.7,0.4-1.8-0.3-2.4l-14-10.9l0,0c-0.1-0.1-0.3-0.2-0.4-0.2h-0.1
	c-0.2-0.1-0.3-0.1-0.5-0.1l0,0c-0.2,0-0.3,0-0.5,0.1h-0.1c-0.2,0.1-0.3,0.1-0.4,0.2l0,0l-14,10.9c-0.7,0.6-0.9,1.7-0.3,2.4
	c0.6,0.7,1.7,0.9,2.4,0.3L36.1,66.2z"/>
<path d="M51.9,54.7l13.5-9.2c0.8-0.5,1-1.6,0.4-2.4c-0.5-0.8-1.6-1-2.4-0.5l-14.7,10l0,0c-0.1,0.1-0.3,0.2-0.4,0.3l0,0.1
	c-0.1,0.1-0.2,0.3-0.2,0.4l0,0c0,0.2-0.1,0.3-0.1,0.5v0.1c0,0.2,0,0.3,0.1,0.5l0,0l6,16.7c0.3,0.9,1.3,1.3,2.2,1
	c0.5-0.2,0.8-0.6,1-1.1c0.1-0.4,0.1-0.8,0-1.1L51.9,54.7z"/>
<path d="M84.5,34.9l-0.3,1.8c0,0.2-0.2,0.3-0.4,0.3l0,0c-0.5,0-2.6-0.2-3.8-0.2c-0.9,0-1.6,0.1-1.6,1.2c0,0.4,0.2,0.6,0.9,1l2.1,1.4
	c1.1,0.5,1.8,1.6,1.9,2.9c0,3.3-2.6,4.6-5.6,4.6c-1.1,0-2.3-0.1-3.4-0.4c-0.2,0-0.3-0.1-0.3-0.3v0l0.3-1.8c0-0.2,0.2-0.3,0.4-0.3
	l0,0c0.7,0.1,2.7,0.2,3.4,0.2c1,0,1.8-0.3,1.8-1.5c0-0.4-0.2-0.8-0.9-1.3L76.9,41c-1-0.6-1.6-1.6-1.6-2.8c0-3.2,2.6-4.1,5.3-4.1
	c1.3,0,2.5,0.1,3.7,0.4c0.1,0,0.2,0.1,0.2,0.2V34.9z"/>
<path d="M95.6,38.5v0.2c-0.4,3.4-3,4.3-6.1,4.3c-0.4,0-1,0-1.4,0l-0.8,4.4c0,0.2-0.2,0.3-0.4,0.3h-2.3c-0.1,0-0.3-0.1-0.3-0.2
	c0,0,0,0,0,0v-0.1l2.1-12.1c0.1-0.6,0.4-0.8,1-0.9c1.2-0.2,2.5-0.2,3.7-0.2c2.7,0,4.7,1.1,4.7,3.7C95.7,38,95.7,38.3,95.6,38.5z
	 M90.6,36.7c-0.2,0-1.3,0-1.5,0.1l-0.7,3.7c0.2,0,1.3,0,1.4,0c1.6,0,2.5-0.6,2.6-1.8v-0.2c0-0.1,0-0.2,0-0.3
	C92.6,37.1,92,36.7,90.6,36.7L90.6,36.7z"/>
<path d="M107.1,40l-0.4,2.1c-0.7,4.2-3,5.8-6.3,5.8c-2.3,0.2-4.2-1.5-4.4-3.8c0-0.2,0-0.5,0-0.7c0-0.5,0-0.9,0.1-1.4l0.4-2.1
	c0.8-4.5,3.3-5.8,6.3-5.8c2.4,0,4.4,1.3,4.4,4.4C107.3,39.1,107.2,39.5,107.1,40z M102.4,36.9c-1.5,0-2.4,0.8-2.8,3.1l-0.4,2.1
	c-0.1,0.4-0.1,0.8-0.1,1.2c0,1.3,0.6,1.8,1.8,1.8c1.5,0,2.4-0.9,2.8-3.1l0.4-2.1c0.1-0.4,0.1-0.8,0.1-1.2
	C104.2,37.4,103.6,36.9,102.4,36.9L102.4,36.9z"/>
<path d="M116.1,42.2l1.8,5.1c0,0,0,0.1,0,0.2c0,0.1-0.1,0.3-0.3,0.3H115c-0.2,0-0.2-0.2-0.3-0.3l-1.6-4.5l0,0h-0.3
	c-0.4,0-0.9,0-1.3,0l-0.8,4.6c0,0.2-0.2,0.3-0.4,0.3h-2.3c-0.1,0-0.3-0.1-0.3-0.2c0,0,0,0,0,0v-0.1l0,0l2.1-12.1
	c0.1-0.6,0.4-0.8,1-0.9c1.2-0.2,2.5-0.2,3.7-0.2c2.7,0,4.7,1,4.7,3.4C119.3,39.7,118,41.6,116.1,42.2z M113.9,36.8
	c-0.3,0-1.2,0-1.4,0l-0.6,3.5c0.2,0,1.1,0,1.3,0c1.8,0,2.9-0.4,2.9-2.3C116,37.1,115.3,36.8,113.9,36.8z"/>
<path d="M130.4,34.7l-0.3,1.8c-0.1,0.2-0.2,0.3-0.4,0.3h-2.9l-1.8,10.5c0,0.2-0.2,0.3-0.4,0.3h-2.3c-0.1,0-0.3-0.1-0.3-0.2
	c0,0,0,0,0,0v-0.1l1.8-10.5h-2.9c-0.1,0-0.3-0.1-0.3-0.2c0,0,0,0,0-0.1v-0.1l0.3-1.8c0-0.2,0.2-0.3,0.4-0.3h8.9
	C130.3,34.3,130.4,34.5,130.4,34.7C130.4,34.6,130.4,34.6,130.4,34.7L130.4,34.7z"/>
<path d="M139.5,47.7h-2.5c-0.2,0-0.3-0.1-0.3-0.3c0,0,0,0,0,0l-0.1-3H133l-1.2,3c-0.1,0.2-0.2,0.3-0.4,0.3h-2.6
	c-0.2,0-0.2-0.1-0.2-0.2c0-0.1,0-0.1,0-0.2l4.6-11.2c0.5-1.3,1.9-2.2,3.3-2c1.2,0,2.5,0.3,2.6,2l0.7,11.2l0,0
	C139.9,47.5,139.7,47.7,139.5,47.7C139.5,47.7,139.5,47.7,139.5,47.7z M136.4,37c0-0.2,0-0.3-0.2-0.3s-0.2,0.1-0.3,0.3l-2,5h2.7
	L136.4,37z"/>
<path d="M79.4,56.2l-2.2,12.7c0,0.2-0.2,0.3-0.4,0.3h-2.4c-0.1,0-0.3-0.1-0.3-0.2c0,0,0,0,0,0v-0.1l2.2-12.7c0-0.2,0.2-0.3,0.4-0.3
	h2.4c0.1,0,0.3,0.1,0.3,0.2C79.4,56.2,79.4,56.2,79.4,56.2L79.4,56.2z"/>
<path d="M90.2,56.4c-0.1,0.5-0.2,1.1-0.3,1.6c-0.1,0.2-0.1,0.3-0.2,0.5l-6.3,7.8c-0.1,0.1-0.1,0.1-0.1,0.2c0,0,0,0.1,0.2,0.1h4.7
	c0.1,0,0.3,0.1,0.3,0.2c0,0,0,0,0,0v0.1l-0.3,2c-0.1,0.2-0.2,0.3-0.4,0.3h-8.2c-0.4,0-0.7-0.1-0.7-0.4c0,0,0-0.1,0-0.1l0.3-1.4
	c0.1-0.3,0.2-0.6,0.4-0.8l6.2-7.6c0.1-0.1,0.1-0.1,0.1-0.2c0-0.1-0.1-0.1-0.2-0.1h-4.2c-0.2,0-0.3-0.1-0.3-0.2c0,0,0,0,0,0v0l0.4-2
	c0-0.2,0.2-0.3,0.4-0.3h7.8C90,55.9,90.2,56,90.2,56.4L90.2,56.4z"/>
<path d="M101.2,56.4l-0.3,1.9c0,0.2-0.1,0.2-0.3,0.2l0,0c-0.9,0-2.2-0.1-3.7-0.1s-2.5,0.6-2.9,3l-0.4,2.2c-0.1,0.4-0.1,0.8-0.1,1.2
	c0,1.5,0.7,1.9,1.6,1.9c0.5,0,1,0,1.4-0.1l0.7-4.1c0-0.2,0.2-0.4,0.4-0.4h2.3c0.1,0,0.3,0.1,0.3,0.2c0,0,0,0,0,0v0.1l-1.1,6
	c0,0.2-0.1,0.4-0.4,0.4c-1.4,0.3-2.7,0.4-4.1,0.4c-2.3,0.1-4.2-1.7-4.3-4c0-0.1,0-0.3,0-0.4c0-0.5,0-0.9,0.1-1.3l0.4-2.2
	c0.9-5,3.6-5.7,6.5-5.7c1.2,0,2.5,0.1,3.7,0.4c0.1,0,0.2,0.1,0.2,0.2L101.2,56.4z"/>
<path d="M109,67.2l-0.3,1.7c0,0.2-0.1,0.3-0.4,0.4c-1,0.2-2,0.2-3,0.2c-2,0-3.8-0.7-3.8-3c0-0.3,0-0.6,0.1-0.9l1.6-9.3
	c0-0.2,0.2-0.4,0.4-0.4h2.4c0.1,0,0.3,0.1,0.3,0.2c0,0,0,0,0,0v0.1l-1.6,9.3c0,0.2,0,0.3-0.1,0.5c0,0.6,0.3,0.8,1,0.8h3.1
	c0.2,0,0.3,0.1,0.3,0.3C109,67,109,67,109,67.2L109,67.2z"/>
<path d="M116.4,53l-0.2,1.3c0,0.2-0.2,0.3-0.4,0.3h-3.5c-0.1,0-0.3-0.1-0.3-0.2c0,0,0,0,0,0l0,0l0.2-1.3c0-0.2,0.2-0.3,0.4-0.3h3.5
	C116.2,52.7,116.4,52.8,116.4,53C116.4,53,116.4,53,116.4,53L116.4,53z M115.2,56.2L113,68.9c0,0.2-0.2,0.3-0.4,0.3h-2.4
	c-0.1,0-0.2-0.1-0.3-0.2c0,0,0,0,0,0v-0.1l2.2-12.7c0-0.2,0.2-0.3,0.4-0.3h2.4c0.1,0,0.3,0.1,0.3,0.2
	C115.2,56.2,115.2,56.2,115.2,56.2L115.2,56.2z"/>
<path d="M132,53l-0.2,1.3c0,0.2-0.2,0.3-0.4,0.3h-3.5c-0.2,0-0.3-0.1-0.3-0.2c0,0,0,0,0,0l0,0l0.2-1.3c0-0.2,0.2-0.3,0.4-0.3h3.5
	C131.8,52.7,132,52.8,132,53C132,53,132,53,132,53L132,53z M130.8,56.2l-2.2,12.7c0,0.2-0.2,0.3-0.4,0.3h-2.4
	c-0.1,0-0.3-0.1-0.3-0.2c0,0,0,0,0,0v-0.1l2.2-12.7c0-0.2,0.2-0.3,0.4-0.3h2.4c0.1,0,0.3,0.1,0.3,0.2
	C130.8,56.2,130.8,56.2,130.8,56.2L130.8,56.2z"/>
<path d="M126.1,56.2l-0.3,1.9c-0.1,0.2-0.2,0.3-0.4,0.3h-2.9l-1.8,10.5c0,0.2-0.2,0.3-0.4,0.3h-2.3c-0.1,0-0.3-0.1-0.3-0.2
	c0,0,0,0,0,0v-0.1l1.8-10.5h-2.9c-0.1,0-0.3-0.1-0.3-0.2c0,0,0,0,0,0v-0.1l0.3-1.9c0-0.2,0.2-0.3,0.4-0.3h8.9
	C125.9,55.9,126.1,56,126.1,56.2C126.1,56.2,126.1,56.2,126.1,56.2L126.1,56.2z"/>
<path d="M139.7,62.5c0.7,0.5,1.2,1.3,1.2,2.2c0,3.8-3.3,4.8-6.4,4.8c-1.1,0-2.2-0.1-3.3-0.2c-0.6-0.1-0.8-0.3-0.8-0.8
	c0-0.1,0-0.3,0-0.4l1.9-10.9c0.1-0.8,0.4-1.1,1.2-1.2c1.1-0.1,2.2-0.2,3.3-0.2c3,0,5,0.9,5,3.1C141.9,60.3,141.1,61.8,139.7,62.5z
	 M136.3,63.5h-2l-0.6,3.4h1.5c1.5,0,2.8-0.4,2.8-2.1C137.9,64.1,137.5,63.5,136.3,63.5L136.3,63.5z M136.6,58.3h-1.4l-0.6,3.1h2
	c1,0.2,2-0.5,2.2-1.6c0-0.2,0-0.3,0-0.5C138.8,58.5,138.2,58.3,136.6,58.3z"/>
<path d="M151.9,69.3h-2.5c-0.2,0-0.3-0.1-0.3-0.3c0,0,0,0,0,0L149,66h-3.7l-1.2,2.9c-0.1,0.2-0.2,0.3-0.4,0.3h-2.6
	c-0.2,0-0.2-0.1-0.2-0.2c0-0.1,0-0.1,0-0.2l4.6-11.2c0.5-1.3,1.9-2.2,3.3-2c1.2,0,2.5,0.3,2.6,2l0.7,11.2l0,0
	C152.2,69.1,152.1,69.2,151.9,69.3z M148.7,58.6c0-0.2,0-0.3-0.2-0.3s-0.2,0.1-0.3,0.3l-2,5h2.7L148.7,58.6z"/>
<path d="M163.8,56.5l-0.3,1.8c0,0.2-0.2,0.3-0.4,0.3l0,0c-0.5,0-2.6-0.2-3.8-0.2c-0.9,0-1.6,0.2-1.6,1.2c0,0.4,0.2,0.6,0.9,1
	l2.1,1.5c1.1,0.5,1.8,1.6,1.9,2.9c0,3.3-2.6,4.6-5.6,4.6c-1.1,0-2.3-0.1-3.4-0.4c-0.2,0-0.3-0.1-0.3-0.3l0,0l0.3-1.8
	c0-0.2,0.2-0.3,0.4-0.3h0.1c0.7,0.1,2.7,0.2,3.4,0.2c1,0,1.9-0.3,1.9-1.5c0-0.4-0.2-0.8-0.9-1.2l-2.2-1.5c-1-0.6-1.6-1.6-1.6-2.8
	c0-3.1,2.6-4.1,5.3-4.1c1.3,0,2.5,0.1,3.7,0.4C163.7,56.3,163.8,56.4,163.8,56.5L163.8,56.5z"/>
<path d="M84.2,90.8h-2.5c-0.2,0-0.3-0.1-0.3-0.3c0,0,0,0,0,0l-0.1-2.9h-3.7l-1.2,2.9c-0.1,0.2-0.2,0.3-0.4,0.3h-2.6
	c-0.1,0-0.2-0.1-0.2-0.2c0,0,0,0,0,0c0-0.1,0-0.1,0-0.2l4.6-11.1c0.5-1.3,1.9-2.2,3.3-2c1.2,0,2.5,0.3,2.6,2l0.7,11.1l0,0
	C84.5,90.7,84.4,90.8,84.2,90.8C84.2,90.8,84.2,90.8,84.2,90.8z M81,80.1c0-0.2,0-0.3-0.2-0.3s-0.2,0.1-0.3,0.3l-2,5h2.7L81,80.1z"
	/>
<path d="M92.4,92.2l-1.5,2c-0.1,0.2-0.2,0.4-0.4,0.4H89c-0.1,0-0.3-0.1-0.3-0.2c0,0,0,0,0,0c0,0,0-0.1,0-0.1l0.9-2
	c0.1-0.2,0.2-0.3,0.4-0.3h2.2c0.2,0,0.2,0.1,0.2,0.2C92.5,92.1,92.5,92.1,92.4,92.2z M97.1,78l-0.3,1.9c0,0.2-0.1,0.2-0.3,0.2h-0.1
	c-0.9,0-2.2-0.1-3.7-0.1s-2.5,0.6-2.9,3l-0.4,2.2c-0.1,0.4-0.1,0.8-0.1,1.2c0,1.5,0.7,1.9,1.6,1.9c0.5,0,1,0,1.4-0.1l0.7-4.1
	c0-0.2,0.2-0.4,0.4-0.4h2.3c0.1,0,0.3,0.1,0.3,0.2c0,0,0,0,0,0v0.1l-1.1,6c0,0.2-0.1,0.4-0.4,0.4c-1.4,0.3-2.7,0.4-4.1,0.4
	c-2.3,0.1-4.2-1.7-4.2-3.9c0-0.1,0-0.3,0-0.4c0-0.5,0-0.9,0.1-1.3l0.4-2.2c0.9-5,3.6-5.7,6.5-5.7c1.2,0,2.5,0.1,3.7,0.4
	c0.1,0,0.2,0.1,0.2,0.2L97.1,78z"/>
<path d="M107.2,77.9l-0.3,1.7c0,0.2-0.2,0.3-0.4,0.4h-3.7c-0.7,0-1.2,0.1-1.4,1.2l-0.3,1.7h4.7c0.2,0,0.3,0.1,0.3,0.3c0,0,0,0,0,0
	l0,0l-0.3,1.7c0,0.2-0.2,0.4-0.4,0.4h-4.7l-0.3,1.9c0,0.2-0.1,0.3-0.1,0.5c0,0.6,0.3,0.8,1,0.8h3.6c0.2,0,0.3,0.1,0.3,0.3
	c0,0,0,0,0,0v0.1l-0.3,1.7c0,0.2-0.2,0.4-0.4,0.4c-1.2,0.2-2.3,0.2-3.5,0.2c-1.9,0-3.8-0.7-3.8-3c0-0.3,0-0.6,0.1-0.9l1.1-6
	c0.6-3.5,2.6-3.8,5.1-3.8c1.1,0,2.3,0.1,3.4,0.2c0.2,0,0.3,0.1,0.3,0.2S107.2,77.9,107.2,77.9z"/>
<path d="M119.7,77.8l-2.2,12.3c-0.1,0.4-0.4,0.7-0.8,0.7h-1.5c-0.4,0.1-0.8-0.2-1-0.6l-3-7.1c0-0.1-0.1-0.2-0.1-0.2s-0.1,0-0.1,0.2
	l-1.3,7.3c0,0.2-0.2,0.4-0.4,0.4h-2.1c-0.2,0-0.3-0.1-0.3-0.3c0,0,0,0,0,0l0,0l2.2-12.4c0.1-0.4,0.4-0.7,0.8-0.7h1.4
	c0.4,0,0.8,0.2,1,0.6l3.1,7.4c0.1,0.1,0.1,0.1,0.1,0.1s0.1,0,0.1-0.2l1.3-7.6c0-0.2,0.2-0.3,0.4-0.3h2.1
	C119.5,77.5,119.7,77.6,119.7,77.8C119.7,77.8,119.7,77.8,119.7,77.8L119.7,77.8z"/>
<path d="M130.6,77.8l-0.3,1.8c-0.1,0.2-0.2,0.3-0.4,0.3h-2.9L125,90.5c0,0.2-0.2,0.4-0.4,0.4h-2.3c-0.1,0-0.3-0.1-0.3-0.2
	c0,0,0,0,0,0v-0.1l1.9-10.5h-2.9c-0.1,0-0.3-0.1-0.3-0.2c0,0,0,0,0,0v-0.1l0.3-1.8c0-0.2,0.2-0.3,0.4-0.3h8.9
	C130.4,77.4,130.5,77.6,130.6,77.8C130.6,77.7,130.6,77.7,130.6,77.8L130.6,77.8z"/>
<path d="M150.4,85.4l1.8,5.1c0,0,0,0.1,0,0.2c0,0.1-0.1,0.3-0.3,0.3h-2.6c-0.2,0-0.2-0.2-0.3-0.4l-1.6-4.6l0,0L147,86
	c-0.4,0-0.9,0-1.3,0l-0.7,4.5c0,0.2-0.2,0.3-0.4,0.4h-2.3c-0.2,0-0.3-0.1-0.3-0.3c0,0,0,0,0,0v-0.1l2.1-12.1c0.1-0.6,0.4-0.8,1-0.9
	c1.2-0.2,2.5-0.2,3.7-0.2c2.7,0,4.7,1,4.7,3.4C153.6,82.8,152.3,84.7,150.4,85.4z M148.2,79.9c-0.2,0-1.2,0-1.4,0l-0.6,3.4
	c0.2,0,1.1,0,1.3,0c1.8,0,2.9-0.4,2.9-2.3C150.3,80.2,149.6,79.9,148.2,79.9z"/>
<path d="M163.7,90.8h-2.5c-0.2,0-0.3-0.2-0.3-0.3c0,0,0,0,0,0l-0.1-2.9h-3.7l-1.2,2.9c-0.1,0.2-0.2,0.3-0.4,0.3H153
	c-0.1,0-0.2-0.1-0.2-0.2c0,0,0,0,0,0c0-0.1,0-0.1,0-0.2l4.6-11.1c0.5-1.3,1.9-2.2,3.4-2c1.2,0,2.5,0.3,2.6,2l0.7,11.1l0,0
	C164.1,90.7,163.9,90.8,163.7,90.8C163.7,90.8,163.7,90.8,163.7,90.8z M160.6,80.1c0-0.2,0-0.3-0.2-0.3s-0.2,0.1-0.3,0.3l-2,5h2.7
	L160.6,80.1z"/>
<path d="M142.1,77.8l-1.4,8c-0.8,4.5-3.3,5.2-6.1,5.2c-2.5,0-4.4-1.2-4.4-3.9c0-0.4,0-0.9,0.1-1.3l1.4-8c0-0.2,0.2-0.3,0.4-0.3h2.4
	c0.2,0,0.3,0.1,0.3,0.3c0,0,0,0,0,0l0,0l-1.4,8c-0.1,0.3-0.1,0.7-0.1,1.1c0,1.1,0.5,1.6,1.8,1.6c1.6,0,2.2-0.8,2.6-2.6l1.4-8
	c0-0.2,0.2-0.3,0.4-0.3h2.3c0.2,0,0.3,0.1,0.3,0.3C142.1,77.7,142.1,77.7,142.1,77.8L142.1,77.8z M140.1,74.9l-0.2,1.3
	c0,0.2-0.2,0.3-0.4,0.3h-4.7c-0.1,0-0.3-0.1-0.3-0.2c0,0,0,0,0,0l0,0l0.2-1.3c0-0.2,0.2-0.3,0.4-0.3h4.7
	C139.9,74.6,140,74.7,140.1,74.9C140.1,74.9,140.1,74.9,140.1,74.9z"/>
</svg>
