<svg id="Layer_1" data-name="Layer 1" xmlns="http://www.w3.org/2000/svg" viewBox="0 0 170.08 113.39"><title>yearbook_1</title><g id="OrWaBf"><path d="M20,41.6c0,.51.11,1,.13,1.57a5.18,5.18,0,0,1-.12.88c-.18,1-.38,2-.57,3a1.46,1.46,0,0,1-.09.36,6.76,6.76,0,0,0-.5,2.74,2.25,2.25,0,0,1-.11.68,9,9,0,0,0-.27,1.93c0,.84-.15,1.67-.23,2.5a1,1,0,0,0,0,.29,2.31,2.31,0,0,0,.16.41c.13-.07.31-.12.37-.23.26-.43.49-.87.72-1.32s.36-.82.56-1.22c.4-.81.83-1.62,1.24-2.42l1.19-2.35c.17-.32.35-.63.54-.94a37.23,37.23,0,0,1,2.21-3.62c.39-.53.72-1.11,1.1-1.65a15.5,15.5,0,0,1,2.1-2.47,7.52,7.52,0,0,1,1.18-.82.86.86,0,0,1,.85,0c.56.24,1.12.46,1.68.68a1.52,1.52,0,0,1,1,.87c.22.56.5,1.1.7,1.67a3.06,3.06,0,0,1,0,1.67,8.91,8.91,0,0,0-.17,1.92c0,.36-.07.71-.1,1.06l-.09,1.68c0,.23,0,.46-.06.69l-.15,2c0,.39-.09.79-.11,1.18,0,.6,0,1.21-.08,1.81s-.08.92-.12,1.38v0c-.08.84-.15,1.68-.24,2.51-.07.67-.15,1.33-.23,2-.1.85-.2,1.7-.31,2.55-.05.37-.12.74-.18,1.11-.17,1-.33,1.95-.51,2.93-.05.27-.15.52-.22.78s-.13.45-.18.68L30.65,70l-.09.38c-.13.52-.26,1-.4,1.56a5.47,5.47,0,0,0-.13.55,7.25,7.25,0,0,1-.83,2.61c-.18.35-.31.73-.49,1.08S28.23,77,28,77.4a1,1,0,0,1-.3.29A10.59,10.59,0,0,0,26,79.26c-.31.29-.51.34-.86.07l-.82-.63a1.12,1.12,0,0,1-.42-.89c0-.4-.11-.79-.18-1.19s-.18-.8-.24-1.21a7.54,7.54,0,0,1-.06-1.06,1.81,1.81,0,0,1,.05-.57c.23-.78.45-1.56.71-2.32.11-.34.33-.65.46-1,.21-.55.41-1.11.59-1.67.13-.39.23-.79.34-1.18.06-.2.14-.4.18-.6.2-1,.41-2.06.59-3.09.13-.76.22-1.52.33-2.28.09-.59.19-1.18.29-1.76a.8.8,0,0,0,0-.15c.09-.87.17-1.74.25-2.6l.06-.65c.05-.5.13-1,.13-1.5a12.75,12.75,0,0,0-.1-2.62c0-.22,0-.45,0-.67s-.08-.27-.16-.3a.37.37,0,0,0-.3.15,6.53,6.53,0,0,0-.35.7c-.11.23-.21.47-.31.7l-.18.36c-.27.58-.55,1.16-.83,1.74l-.69,1.42c-.27.55-.52,1.11-.79,1.66-.41.85-.85,1.7-1.25,2.56a6.78,6.78,0,0,1-1.69,2.45,3.76,3.76,0,0,1-1.83,1,2.11,2.11,0,0,0-.36.09,3.42,3.42,0,0,1-2.42.05,4,4,0,0,1-2.47-1.8A7.48,7.48,0,0,1,13,60.74a6.19,6.19,0,0,1-.28-2.23,1,1,0,0,0,0-.17,13.29,13.29,0,0,1-.17-3.21,21.22,21.22,0,0,1,.14-2.87,28.4,28.4,0,0,0,.05-2.92c0-.3,0-.59.07-.89.06-.67.12-1.35.17-2s.07-1.26.11-1.89c0-.06,0-.13,0-.19l.24-1.74c.08-.69.14-1.38.25-2.07a2,2,0,0,1,.27-.81,5.76,5.76,0,0,1,.82-1.09,1.43,1.43,0,0,1,.67-.34A12.72,12.72,0,0,1,17.8,38a1.93,1.93,0,0,1,1.87,1.26A3.55,3.55,0,0,1,20,41.6Z"/><path d="M87.08,70.31a1.83,1.83,0,0,1-2-.65,1,1,0,0,0-.31-.21,3,3,0,0,1-1.3-1.28c-.56-.85-1.12-1.71-1.71-2.55-.74-1.08-1.52-2.13-2.27-3.19-.21-.29-.45-.44-.63-.34s-.21.4-.18.64c.16,1.56,0,3.12,0,4.68a2,2,0,0,1-.42,1.2,3.77,3.77,0,0,0-.72,1.32c0,.15-.21.29-.34.39s-.43.25-.64.39a1.42,1.42,0,0,1-.92.21,2.52,2.52,0,0,1-2.16-1.41,1.78,1.78,0,0,1-.25-1.06c.08-1.32.15-2.64.2-4,0-.4-.06-.81-.08-1.21,0-.93-.08-1.87-.08-2.8a15,15,0,0,0-.08-2.6,2.16,2.16,0,0,1,0-.44l.12-2.73a1,1,0,0,1,0-.17c.07-.77.16-1.54.23-2.32s.08-1.35.14-2c0-.3.09-.6.14-.9s.15-.63.19-.95a.4.4,0,0,0-.15-.3c-.06,0-.2.07-.3.12s0,0,0,0c-.45.53-.89,1.07-1.35,1.6,0,.07-.17.15-.23.13a.34.34,0,0,1-.2-.22,3.94,3.94,0,0,1,0-1.64,15.48,15.48,0,0,1,1.35-2.92,8.86,8.86,0,0,1,.71-1,2.14,2.14,0,0,0,.54-1.35,1.41,1.41,0,0,1,.28-.66c.11-.22.29-.41.38-.63a.79.79,0,0,1,.75-.55,1.85,1.85,0,0,0,.91-.29.33.33,0,0,1,.13-.07c1-.33,1.91-1,2.91-1.42A10.53,10.53,0,0,1,83.34,38,8.08,8.08,0,0,1,87,38.5,4.52,4.52,0,0,1,89.63,41c.21.52.44,1,.64,1.55a1.35,1.35,0,0,1,.09.56c-.07.8-.15,1.61-.26,2.41a4.6,4.6,0,0,1-.27.87c0,.09-.09.16-.12.25A18.25,18.25,0,0,1,88,49.88a14.82,14.82,0,0,1-1,1.35c-.47.61-.92,1.24-1.43,1.81-.84,1-1.71,1.89-2.58,2.82-.32.34-.33.55,0,.92q.82,1,1.62,2.1c.42.56.82,1.14,1.22,1.71s.83,1.24,1.25,1.85l1.71,2.47c.36.53.71,1.08,1.06,1.62a1.74,1.74,0,0,1,.24,1c0,.39,0,.78,0,1.16s-.33.79-.69,1.05A2.75,2.75,0,0,1,87.08,70.31ZM85,44.06l0,0a9.67,9.67,0,0,0-.33-.95.54.54,0,0,0-.69-.3c-.33.06-.67.12-1,.2a3.31,3.31,0,0,0-.53.18c-.58.25-1.14.54-1.73.76a.92.92,0,0,0-.67.93c0,.12,0,.25,0,.37-.05.78-.1,1.56-.16,2.34,0,.12-.06.23-.07.34a9.28,9.28,0,0,0-.15,1.18,11.85,11.85,0,0,1-.16,2.22,9,9,0,0,0-.14,1.16c0,.11,0,.28.12.32a.47.47,0,0,0,.36,0,.89.89,0,0,0,.29-.26c.45-.54.9-1.08,1.33-1.64s.84-1.1,1.23-1.67a14.89,14.89,0,0,0,.78-1.33,12.14,12.14,0,0,0,.63-1.31c.28-.67.51-1.34.76-2A3.11,3.11,0,0,0,85,44.06Z"/><path d="M95.32,70.55H94.26a1,1,0,0,1-.82-.38c-.41-.46-.84-.89-1.29-1.31a.82.82,0,0,1-.28-.57,1.84,1.84,0,0,0-.17-.66.8.8,0,0,1,0-.82,1.32,1.32,0,0,0,.19-.6,1.29,1.29,0,0,1,.59-1.06c.53-.37.51-.55.27-1.13a7.07,7.07,0,0,1-.44-1.62,19.79,19.79,0,0,1-.19-2.32c0-1.14-.05-2.28,0-3.42,0-.82.17-1.63.2-2.45,0-1,.18-2,.32-3,0-.18,0-.38,0-.57s.1-.68.15-1c0-.18.08-.36.1-.54a.57.57,0,0,0-.28-.52,1.4,1.4,0,0,1-.56-1.81,3.8,3.8,0,0,0,.32-1.14,1.3,1.3,0,0,1,.25-.58c.36-.47.74-.93,1.13-1.38a3.1,3.1,0,0,0,.67-1.25,2.73,2.73,0,0,1,1.58-2,1.87,1.87,0,0,1,.67-.08.91.91,0,0,1,.31.09,1.79,1.79,0,0,0,1.54-.16,6.9,6.9,0,0,1,2.44-.73,2.08,2.08,0,0,0,.36-.05,9,9,0,0,1,2.37-.19,4.81,4.81,0,0,1,2.75.93,4.43,4.43,0,0,1,1.42,1.74,1.37,1.37,0,0,1,.1.92,5.8,5.8,0,0,0-.1,1,4.68,4.68,0,0,1-.19,1.44,13.71,13.71,0,0,1-1.64,3.51c-1,1.6-2.15,3.16-3.22,4.73-.09.13-.21.24-.3.37a.54.54,0,0,0,.12.82c.51.38,1,.75,1.55,1.12a3.93,3.93,0,0,1,1.73,3,7.55,7.55,0,0,1,0,1.78,6.42,6.42,0,0,1-.62,1.82c-.26.54-.55,1.07-.82,1.6A11.53,11.53,0,0,1,103,66.19a13.52,13.52,0,0,1-2.93,2.51A7.73,7.73,0,0,1,97.44,70c-.53.11-1,.33-1.55.49-.19,0-.38.06-.56.1ZM98.48,50c.06.1.09.24.17.28a.39.39,0,0,0,.31-.07,2.41,2.41,0,0,0,.4-.44c.26-.34.49-.7.76-1A31.07,31.07,0,0,0,102.6,45c.09-.15.18-.35,0-.47a.52.52,0,0,0-.47,0c-.74.36-1.48.73-2.18,1.16a1.25,1.25,0,0,0-.51.67A21.11,21.11,0,0,0,99,48.49a2.54,2.54,0,0,1-.3.93A3.5,3.5,0,0,0,98.48,50Zm-.76,10.82h0c0,.66.11,1.32.16,2,0,.2,0,.41.24.5s.38-.07.52-.2l.07-.08a12.07,12.07,0,0,0,2.06-2.84.7.7,0,0,0-.7-1c-.61,0-1.21.13-1.82.21a.58.58,0,0,0-.53.66C97.68,60.25,97.7,60.52,97.72,60.79Z"/><path d="M147.76,58.93c-.09.52-.19,1-.27,1.56-.12.81-.2,1.62-.35,2.43-.25,1.35-.12,2.72-.24,4.08a4.23,4.23,0,0,0,.08.93,1.61,1.61,0,0,1-.67,1.65,2.2,2.2,0,0,1-1.5.56.78.78,0,0,0-.46.14,1.77,1.77,0,0,1-1.82,0,2.91,2.91,0,0,1-.67-.42,2,2,0,0,1-.8-1.27c-.1-.75-.26-1.5-.37-2.25a3.6,3.6,0,0,1,.06-.79,6.13,6.13,0,0,0,.11-.73,19.16,19.16,0,0,1,.51-3.7c0-.2,0-.4.08-.59.08-.54.17-1.08.26-1.62,0,0,0,0,0-.07.06-.93.37-1.81.51-2.72a2.33,2.33,0,0,1,.08-.46,12.13,12.13,0,0,0,.43-2.74c.25-1.42.45-2.85.68-4.28.17-1,.35-2,.54-3.05s.41-2.21.63-3.32a2.48,2.48,0,0,1,.22-.47c.07-.15.17-.28.23-.44a3,3,0,0,1,1.81-1.71,1.7,1.7,0,0,1,.75,0c.28,0,.56.06.84.08a2.59,2.59,0,0,1,1.69.89.75.75,0,0,1,.12.58,3,3,0,0,0,.1,1.32,1.63,1.63,0,0,1,0,.66c-.09.65-.21,1.3-.33,1.95-.17.9-.36,1.8-.54,2.7,0,0,0,.08,0,.12a.72.72,0,0,0,.07.28s.18,0,.27,0a.31.31,0,0,0,.12-.09c.89-.82,1.83-1.6,2.67-2.47,1.16-1.2,2.26-2.46,3.37-3.71a1.07,1.07,0,0,1,1-.42,2.53,2.53,0,0,1,1.34.37,1.26,1.26,0,0,0,.4.14,1.36,1.36,0,0,1,.95,1.73A11.83,11.83,0,0,1,158,47.13a34.18,34.18,0,0,1-4,4.36c-.41.4-.84.79-1.26,1.19a.45.45,0,0,0-.09.66,6.77,6.77,0,0,0,.49.6L156,57.31c1,1.24,2.1,2.49,3.18,3.72.35.4.79.74,1.17,1.14a2.61,2.61,0,0,1,.42.62c.19.4.34.81.49,1.22a1.29,1.29,0,0,1,.1.51,6.65,6.65,0,0,0,.05,1.48.68.68,0,0,1-.16.48,7.5,7.5,0,0,1-.77.83.81.81,0,0,1-.45.2,2.45,2.45,0,0,0-1.13.46.8.8,0,0,1-.93.06.91.91,0,0,0-.52-.07,1.14,1.14,0,0,1-.87-.28.8.8,0,0,0-.27-.18,3.91,3.91,0,0,1-1.73-1.32c-1.2-1.28-2.26-2.68-3.33-4.06l-2.46-3.22a4,4,0,0,0-.38-.51.64.64,0,0,0-.45-.17c-.09,0-.15.26-.2.41a.94.94,0,0,0,0,.29Z"/><path d="M69.32,64c0,1.36,0,2.58,0,3.81a11.68,11.68,0,0,1-.18,1.67,1.11,1.11,0,0,1-.72.86.91.91,0,0,0-.63.83c0,.37-.21.5-.57.47a8.29,8.29,0,0,1-1-.15.58.58,0,0,0-.54.16.81.81,0,0,1-1.34-.07,3.09,3.09,0,0,1-.48-1c-.25-.91-.45-1.83-.66-2.75-.05-.23-.06-.47-.09-.71s-.06-.62-.13-.93a.88.88,0,0,1,.25-.91,1.68,1.68,0,0,0,.5-1,21.33,21.33,0,0,0,.16-3.39c0-.21,0-.43,0-.64.06-.63-.22-.87-.82-.7l-1.87.49c-.26.07-.52.11-.78.16a1.15,1.15,0,0,0-1,1c-.11.53-.24,1-.34,1.58a1.51,1.51,0,0,0,0,.56,3.38,3.38,0,0,1,0,1.45,5.26,5.26,0,0,0-.07.89,2.81,2.81,0,0,1-.63,1.93A2.45,2.45,0,0,0,57.79,69a.65.65,0,0,1-.44.66.4.4,0,0,1-.55-.23c0-.12-.09-.25-.14-.37a.54.54,0,0,0-.63-.32c-.22.06-.31.22-.3.53,0,.13,0,.26,0,.4a.52.52,0,0,1-.7.49,1.35,1.35,0,0,1-.9-.75c-.16-.38-.33-.76-.47-1.15a1.48,1.48,0,0,1-.09-.51c0-.93,0-1.85.07-2.78,0-.53.14-1.06.22-1.59.11-.71.22-1.42.34-2.13a1,1,0,0,0-.33-1,3.88,3.88,0,0,1-.63-1.57.32.32,0,0,1,0-.19,8,8,0,0,1,.87-1.1,3.29,3.29,0,0,0,1-1.75c.39-1.7.79-3.39,1.23-5.08.22-.84.52-1.66.79-2.48s.57-1.6.84-2.41c.21-.58.38-1.18.6-1.76a14.94,14.94,0,0,1,.66-1.6,14.12,14.12,0,0,1,.87-1.44,5.58,5.58,0,0,1,.68-.79,1.93,1.93,0,0,1,.87-.43,2.41,2.41,0,0,1,2,.2,6.24,6.24,0,0,0,1,.32,6.64,6.64,0,0,1,2.88,2.36,5.62,5.62,0,0,1,.4.77,9.09,9.09,0,0,1,1,3.08c0,.58.18,1.15.25,1.72,0,.35,0,.71.06,1.06s.09.66.13,1a5.7,5.7,0,0,1,.06.58c0,1,0,2.07,0,3.1a1.24,1.24,0,0,0,.56.92,9.67,9.67,0,0,1,.93.88,1,1,0,0,1,0,1.58c-.31.31-.63.61-1,.9a1.58,1.58,0,0,0-.52,1C69.21,60.76,69.39,62.42,69.32,64ZM63.54,49.89l.1,0c-.17-.64-.33-1.28-.53-1.9a.33.33,0,0,0-.62-.07,1.11,1.11,0,0,0-.19.58,12.43,12.43,0,0,1-.68,2.94c-.28,1-.58,1.94-.86,2.92-.11.39.09.61.48.53q1-.23,2.1-.48A.7.7,0,0,0,64,53.6c-.09-1-.2-2-.31-3C63.62,50.36,63.58,50.13,63.54,49.89Z"/><path d="M36.44,63.93c0-.64,0-1.27,0-1.91,0-.79.13-1.58.2-2.37,0-.26,0-.52.07-.78s.05-.73.1-1.09a.82.82,0,0,0-.27-.78,3.56,3.56,0,0,1-.42-.45.67.67,0,0,1,0-.91.83.83,0,0,0,.14-.92.67.67,0,0,1,.22-.78l.55-.5a.76.76,0,0,0,.29-.66A20.78,20.78,0,0,1,37.47,50a2.65,2.65,0,0,1,.16-.73c.16-.54,0-.82-.61-.79a1.32,1.32,0,0,1-1.11-.36,1.08,1.08,0,0,1-.36-1,1.5,1.5,0,0,0-.07-.59,1.07,1.07,0,0,1,.12-.8,5,5,0,0,1,1.95-1.82c.08-.07.18-.11.27-.18a.44.44,0,0,0,.15-.61,1.29,1.29,0,0,1-.09-.84,4.36,4.36,0,0,0,0-.62.9.9,0,0,1,.28-.69,2.78,2.78,0,0,0,.41-.43,4.58,4.58,0,0,1,1.29-1,.9.9,0,0,1,1.07,0,3.93,3.93,0,0,0,.68.34,2.06,2.06,0,0,1,1.24,1.21c.2.52.35.58.88.42.71-.21,1.43-.36,2.12-.61A31,31,0,0,1,49,40.22a3.18,3.18,0,0,1,2.44.44,4.19,4.19,0,0,1,1.28,1.27.89.89,0,0,1,.09.81c-.08.28-.13.57-.2.86a1.76,1.76,0,0,1-.67,1,5.68,5.68,0,0,0-.68.61,1.64,1.64,0,0,1-.94.5,35.29,35.29,0,0,0-4.2.91c-.55.17-1.12.27-1.67.45a11.25,11.25,0,0,0-1.36.53.82.82,0,0,0-.45.77c0,.33,0,.67,0,1a6.18,6.18,0,0,1-.11.85c0,.2-.14.42.06.58s.41,0,.6,0c.72-.29,1.43-.62,2.17-.87a9.62,9.62,0,0,1,1.53-.29.75.75,0,0,1,.39,0,8.28,8.28,0,0,1,2.74,1.44,2,2,0,0,1,.78,1.26,1.27,1.27,0,0,1-.33,1,4,4,0,0,1-2,1.12,12.74,12.74,0,0,0-3.25,1.26c-.81.47-1.64.88-2.47,1.31a1.07,1.07,0,0,0-.72,1.1c0,.19,0,.39,0,.59a2.58,2.58,0,0,0,0,.62,4.86,4.86,0,0,1,0,1.9,3,3,0,0,0-.06.51c0,.16.06.39.17.45a.63.63,0,0,0,.5,0c.35-.15.68-.34,1-.52a19,19,0,0,1,3.68-1.59,12.26,12.26,0,0,1,1.34-.28,1.29,1.29,0,0,1,.87.21,8.26,8.26,0,0,0,.85.4l.67.31a.69.69,0,0,1,.4.59.74.74,0,0,0,.31.54c.37.31.38.53,0,.9a.61.61,0,0,0-.19.56.63.63,0,0,1-.18.61A4.09,4.09,0,0,0,50.67,65a1.93,1.93,0,0,1-1.05.83c-.54.22-1.11.39-1.65.6s-1.13.46-1.67.72c-1.06.52-2.1,1.13-3.19,1.6s-2,.74-3,1.09a1.89,1.89,0,0,1-1.22,0c-.36-.12-.73-.22-1.1-.32a.93.93,0,0,1-.73-.67c-.1-.34-.16-.69-.24-1s-.1-.45-.14-.68a8,8,0,0,1-.2-1.09c0-.69,0-1.37,0-2.06Z"/><path d="M124.73,59c.06-.87.1-2.07.24-3.25.11-1,.34-1.92.53-2.88.14-.68.25-1.37.43-2,.28-1,.59-2.1.92-3.14a12,12,0,0,1,.46-1.12,17,17,0,0,1,1.24-2.62c.26-.4.46-.83.7-1.25a2.17,2.17,0,0,1,.32-.47c.57-.61,1.16-1.2,1.74-1.8a1.53,1.53,0,0,1,1-.48c.57-.07,1.13-.16,1.7-.25a4.67,4.67,0,0,1,2.57.48,2.84,2.84,0,0,1,1.31.82c.24.32.49.64.71,1a.73.73,0,0,1-.08.84c-.28.4-.26.54,0,.93a3.61,3.61,0,0,1,.87,1.91.83.83,0,0,0,0,.15,13.1,13.1,0,0,1,.51,3.46,5.34,5.34,0,0,1-.08,1.19c0,.33-.09.67-.09,1,0,1.09,0,2.18,0,3.27a19.47,19.47,0,0,1-.21,2c-.07.55-.17,1.09-.28,1.63a30.21,30.21,0,0,1-.88,4,19.4,19.4,0,0,1-.68,1.94,10.2,10.2,0,0,1-3.26,4.13,5.1,5.1,0,0,1-2.1.94,2.07,2.07,0,0,0-.5.15,4.23,4.23,0,0,1-1.7.4,2.52,2.52,0,0,1-1.09-.17,4.15,4.15,0,0,1-1.9-1.64c-.17-.28-.35-.54-.53-.81a12.36,12.36,0,0,1-1-2.17,11.2,11.2,0,0,1-.76-3.27C124.76,61,124.77,60.14,124.73,59Zm9.59-10a2,2,0,0,0-.53-1.69c-.26-.24-.49-.21-.67.09a1.15,1.15,0,0,0-.1.23,14.91,14.91,0,0,0-.85,2.16,1.46,1.46,0,0,1-.07.19c-.2.66-.46,1.31-.6,2-.24,1.17-.41,2.36-.6,3.54a17.76,17.76,0,0,0-.21,3.92,4.41,4.41,0,0,1,0,.52c0,.31,0,.61,0,.91s.07.76.12,1.14a4.78,4.78,0,0,0,.5,1.65c.08.17.21.34.41.3a.68.68,0,0,0,.42-.29,7.13,7.13,0,0,0,.54-1.27,23.58,23.58,0,0,1,.89-3.19,1.65,1.65,0,0,0,.07-.32c.09-.58.15-1.16.27-1.74a28.55,28.55,0,0,0,.48-4.13c.06-.74.11-1.48.16-2.22a4,4,0,0,0,0-.69C134.42,49.65,134.37,49.28,134.32,48.92Z"/><path d="M108.07,58.3c.06-.59.13-1.23.18-1.87,0-.22,0-.45,0-.67,0-.4.06-.81.1-1.21a2.56,2.56,0,0,0,0-.27,18.35,18.35,0,0,1,.54-3.37,21,21,0,0,1,.7-2.43c.17-.56.36-1.11.58-1.65s.57-1.3.87-1.95a5.39,5.39,0,0,0,.64-1.76,2,2,0,0,1,.36-.79,9.91,9.91,0,0,1,.75-1,.91.91,0,0,1,.43-.31,18.61,18.61,0,0,0,2.08-.8c.43-.13.86-.29,1.3-.4a3.51,3.51,0,0,1,2.36.36,6.71,6.71,0,0,1,1.14.7,2,2,0,0,1,.7,1.08c.2.63.41,1.26.65,1.87.35.94.77,1.85,1.06,2.8a6.83,6.83,0,0,1,.44,2.38c-.06,1,0,2,0,2.92V52a8,8,0,0,1,0,2.44c-.08.76-.16,1.51-.25,2.27-.16,1.19-.29,2.4-.51,3.58a14.73,14.73,0,0,1-.67,2.33c-.38,1.06-.81,2.11-1.23,3.16a4.21,4.21,0,0,1-.49.94q-.69.89-1.47,1.71a3,3,0,0,1-1.74.77,2.93,2.93,0,0,0-1.07.35,1.74,1.74,0,0,1-1,.25,8.18,8.18,0,0,0-1,0,2.64,2.64,0,0,1-1.7-.65,5.69,5.69,0,0,1-2.12-2.74,7,7,0,0,0-.38-.78,11.5,11.5,0,0,1-.84-2.67,13.48,13.48,0,0,1-.26-2C108.2,60.1,108.15,59.23,108.07,58.3Zm9.61-5.87h0c0-.58,0-1.16,0-1.74a2.32,2.32,0,0,0-.05-.59,5.87,5.87,0,0,0-1.31-2.58c-.21-.24-.43-.26-.61,0a3.12,3.12,0,0,0-.34.74c-.26.7-.5,1.4-.74,2.1-.13.4-.24.81-.35,1.21s-.16.57-.23.86c-.12.52-.28,1-.36,1.57-.14,1-.21,1.9-.33,2.85a12.64,12.64,0,0,0,.09,2.75c.09.76.24,1.52.38,2.27a2.78,2.78,0,0,0,.25.62c.12.26.23.53.36.79a3.61,3.61,0,0,0,.33.65.32.32,0,0,0,.56,0,4.86,4.86,0,0,0,.43-.77c.13-.29.23-.59.33-.89.23-.7.48-1.41.67-2.12s.29-1.31.41-2a8.78,8.78,0,0,0,.1-.88c0-.41.07-.82.12-1.23.09-.67.22-1.34.28-2S117.68,53,117.68,52.43Z"/><path d="M38.54,77.36c0,.16,0,.33,0,.49a.62.62,0,0,1-1.24,0,2.67,2.67,0,0,1,0-.49c0-.74.09-1.47.14-2.2a1.65,1.65,0,0,1,0-.32.69.69,0,0,1,1.16-.36,1.85,1.85,0,0,1,.34.44c.13.18.23.39.36.56s.35.22.52,0,.27-.4.4-.6a2.82,2.82,0,0,1,.18-.29.73.73,0,0,1,.77-.29.64.64,0,0,1,.51.57c0,.26.05.53.07.79,0,.69.11,1.37.13,2.06a.61.61,0,0,1-.86.63.55.55,0,0,1-.42-.47,2,2,0,0,1,0-.49,3.42,3.42,0,0,0,0-.45,1.34,1.34,0,0,0-.14-.36,1.86,1.86,0,0,0-.34.19c-.1.1-.16.24-.25.34a.44.44,0,0,1-.72,0c-.1-.11-.16-.24-.26-.33a1.49,1.49,0,0,0-.31-.2,1.48,1.48,0,0,0-.13.35,2.67,2.67,0,0,0,0,.4Z"/><path d="M135.55,76.36c0-.49,0-1,0-1.46a.59.59,0,0,1,.39-.61.64.64,0,0,1,.74.2c.33.41.64.83,1,1.25a1.5,1.5,0,0,0,.27.29c.13.11.24.06.26-.11s0-.21,0-.32a5.21,5.21,0,0,1,0-.79.61.61,0,0,1,.64-.54.55.55,0,0,1,.58.56c0,.45,0,.91,0,1.36v1.46c0,.3,0,.59-.38.71a.78.78,0,0,1-.91-.27c-.27-.35-.51-.72-.77-1.08a2.48,2.48,0,0,0-.28-.36.32.32,0,0,0-.23-.08s-.09.13-.09.21,0,.36.05.54a4,4,0,0,1,0,.49.6.6,0,0,1-.66.6.57.57,0,0,1-.63-.61c0-.48,0-1,0-1.44Z"/><path d="M157.43,75.57l.25.06a1.29,1.29,0,0,1,.21.07c.38.17.58.44.52.73a.77.77,0,0,1-.75.53l-.45.07,0,.11a1.42,1.42,0,0,0,.33.11c.2,0,.4,0,.59,0a1.94,1.94,0,0,1,.64.16A.52.52,0,0,1,159,78a.49.49,0,0,1-.44.44,4.87,4.87,0,0,1-.76.06c-.47,0-.93,0-1.39,0s-.85-.28-.85-.9c0-.8,0-1.6,0-2.4a2.48,2.48,0,0,1,0-.27.7.7,0,0,1,.64-.64c.65,0,1.3-.08,2-.07a.6.6,0,0,1,.62.69.54.54,0,0,1-.4.53,4.69,4.69,0,0,1-.64.09l-.35,0Z"/><path d="M97.87,76.38c0-.49,0-1,0-1.47a.59.59,0,0,1,.4-.62.56.56,0,0,1,.75.43,5.11,5.11,0,0,1,0,.55c0,.28.15.4.42.42a4.24,4.24,0,0,0,.62,0,.4.4,0,0,0,.42-.45,2.64,2.64,0,0,1,0-.4.59.59,0,0,1,.55-.51.58.58,0,0,1,.65.42,1.75,1.75,0,0,1,.07.51c0,.69,0,1.38,0,2.06a3.37,3.37,0,0,1,0,.55.6.6,0,0,1-.71.52.58.58,0,0,1-.59-.6c0-.13,0-.25,0-.38a.4.4,0,0,0-.41-.48,3.25,3.25,0,0,0-.54,0c-.37,0-.49.14-.48.51,0,.13,0,.26,0,.39a.57.57,0,0,1-.61.61.56.56,0,0,1-.64-.6c0-.28,0-.57,0-.86l0-.57Z"/><path d="M60,77.56a.7.7,0,0,0-.73.36,1,1,0,0,1-.8.48c-.43,0-.63-.25-.49-.66.07-.21.15-.41.24-.62l1-2.38a.73.73,0,0,1,.73-.46.77.77,0,0,1,.77.44c.25.56.46,1.13.69,1.69.14.35.32.69.46,1a1.62,1.62,0,0,1,.12.43.41.41,0,0,1-.36.5.82.82,0,0,1-.95-.42A.65.65,0,0,0,60,77.56Zm-.08-1.08H60c.05-.08.14-.17.13-.24s-.1-.15-.16-.23c-.06.09-.16.16-.18.25S59.84,76.41,59.88,76.48Z"/><path d="M80,74.19a2,2,0,0,1,1.37.45.55.55,0,0,1,.22.73.6.6,0,0,1-.72.28,3,3,0,0,1-.4-.2,1,1,0,0,0-1.4.44A.88.88,0,0,0,79.2,77a1,1,0,0,0,1.07.3,2.48,2.48,0,0,0,.35-.13,2.49,2.49,0,0,1,.47-.12.51.51,0,0,1,.56.29.53.53,0,0,1-.12.64,1.63,1.63,0,0,1-.49.33,2.48,2.48,0,0,1-1.91.09,2.27,2.27,0,0,1-1.47-2,2,2,0,0,1,.57-1.4A2.13,2.13,0,0,1,80,74.19Z"/><path d="M119.33,76.39c0,.45,0,.9,0,1.34a.66.66,0,0,1-1.32,0c0-.39,0-.78,0-1.17s0-.82,0-1.23a2.73,2.73,0,0,1,.07-.64.54.54,0,0,1,.54-.43.6.6,0,0,1,.62.4,2,2,0,0,1,.08.55c0,.38,0,.76,0,1.14Z"/></g></svg>