<svg id="Layer_1" data-name="Layer 1" xmlns="http://www.w3.org/2000/svg" viewBox="0 0 36.51 35.95">
  <defs>
    <style>
      .cls-1 {
        fill: #fff;
        fill-rule: evenodd;
      }
    </style>
  </defs>
  <path class="cls-1" d="M3,34a.79.79,0,0,1-.78-.79V2.68l0-.12,0-.13.06-.11.09-.11.07-.06.09-.06A.55.55,0,0,1,2.84,2L3,2H33.55a.88.88,0,0,1,.3.09l0,0,.06,0,.09.08.07.08.09.16,0,.11V33.2a.79.79,0,0,1-.78.79Zm.79-1.58H32.69V10.57H3.82Zm0-28.87V9H32.69V3.54M18.25,28.13A12.52,12.52,0,0,1,11.71,26,23.4,23.4,0,0,1,7.12,22a.79.79,0,0,1,0-1A23.05,23.05,0,0,1,11.71,17a12.43,12.43,0,0,1,6.54-2.18A12.38,12.38,0,0,1,24.79,17,23.65,23.65,0,0,1,29.39,21a.79.79,0,0,1,0,1A23.27,23.27,0,0,1,24.79,26,12.47,12.47,0,0,1,18.25,28.13Zm0-11.71a10.68,10.68,0,0,0-5.69,1.94A21.35,21.35,0,0,0,9,21.22l-.27.27.27.27a21.35,21.35,0,0,0,3.52,2.86,10.68,10.68,0,0,0,5.69,1.94A10.71,10.71,0,0,0,24,24.62a20.79,20.79,0,0,0,3.51-2.86l.27-.27-.27-.27A20.79,20.79,0,0,0,24,18.36,10.71,10.71,0,0,0,18.25,16.42Zm0,8.2a3.13,3.13,0,1,1,3.13-3.13A3.13,3.13,0,0,1,18.25,24.62Zm0-4.69a1.56,1.56,0,1,0,1.56,1.56A1.56,1.56,0,0,0,18.25,19.93Zm-7-12.88a.79.79,0,1,1,0-1.57H12.4a.79.79,0,0,1,0,1.57Zm-4.69,0a.79.79,0,0,1,0-1.57H7.72a.79.79,0,0,1,0,1.57Z"/>
</svg>
