<svg id="Layer_1" data-name="Layer 1" xmlns="http://www.w3.org/2000/svg" viewBox="0 0 36.51 35.95">
  <defs>
    <style>
      .cls-1 {
        fill: #fff;
      }
    </style>
  </defs>
  <g>
    <path class="cls-1" d="M12.68,25.22a5.68,5.68,0,1,1,4.69-9.67l2.09,2.09a.75.75,0,0,1-.07,1,.73.73,0,0,1-1,0l-2.07-2.07a4.23,4.23,0,0,0-2.89-1.16,4.12,4.12,0,0,0-3,1.32,4.12,4.12,0,0,0,2.89,7h.18a.76.76,0,0,1,.79.72.75.75,0,0,1-.71.76Z"/>
    <path class="cls-1" d="M21.52,25.27a7.18,7.18,0,0,1-5.15-2.13l-2.55-2.5a.68.68,0,0,1-.23-.51.81.81,0,0,1,.21-.56.69.69,0,0,1,.51-.22.84.84,0,0,1,.55.21l2.56,2.52a5.83,5.83,0,0,0,8.24-8.25,5.91,5.91,0,0,0-4.15-1.71,5.77,5.77,0,0,0-2.21.44.61.61,0,0,1-.24,0,.74.74,0,0,1-.69-.48.77.77,0,0,1,.39-1,7.15,7.15,0,0,1,2.76-.54,7.29,7.29,0,0,1,6.75,4.52,7.18,7.18,0,0,1,0,5.59,7.29,7.29,0,0,1-4,4A6.72,6.72,0,0,1,21.52,25.27Z"/>
    <path class="cls-1" d="M7.29,34.28A5.35,5.35,0,0,1,2,28.94V7A5.35,5.35,0,0,1,7.29,1.68H29.21A5.34,5.34,0,0,1,34.55,7V28.94A5.17,5.17,0,0,1,33,32.68a5.32,5.32,0,0,1-3.83,1.6Zm0-31.18A3.87,3.87,0,0,0,3.43,7V28.89a3.86,3.86,0,0,0,3.86,3.86H29.21a3.86,3.86,0,0,0,3.87-3.86V7A3.87,3.87,0,0,0,29.21,3.1Z"/>
  </g>
</svg>
