<svg id="Layer_1" data-name="Layer 1" xmlns="http://www.w3.org/2000/svg" viewBox="0 0 36.51 35.95">
  <g>
    <path d="M13,25.55a6,6,0,0,1,.4-12,5.94,5.94,0,0,1,4.2,1.74l2.1,2.09a1.05,1.05,0,0,1-.09,1.47,1,1,0,0,1-.68.26,1,1,0,0,1-.68-.26l-2.08-2.08a3.92,3.92,0,0,0-2.68-1.07A3.82,3.82,0,0,0,10.65,17a3.89,3.89,0,0,0,0,5.32,3.83,3.83,0,0,0,2.67,1.16h.17a1.07,1.07,0,0,1,1.1,1,1.05,1.05,0,0,1-1,1.06H13Z"/>
    <path d="M21.52,25.57a7.45,7.45,0,0,1-5.36-2.22l-2.55-2.49a1,1,0,0,1-.32-.73,1.08,1.08,0,0,1,.29-.76,1,1,0,0,1,.73-.32,1.13,1.13,0,0,1,.75.29l2.57,2.53A5.53,5.53,0,0,0,25.45,14a5.59,5.59,0,0,0-3.94-1.62,5.52,5.52,0,0,0-2.09.41.86.86,0,0,1-.36.07,1.06,1.06,0,0,1-.43-2,7.48,7.48,0,0,1,2.89-.57,7.6,7.6,0,0,1,7,4.7,7.51,7.51,0,0,1,0,5.83A7.62,7.62,0,0,1,24.43,25,7.06,7.06,0,0,1,21.52,25.57Z"/>
    <path d="M7.29,34.58a5.65,5.65,0,0,1-5.64-5.64V7A5.65,5.65,0,0,1,7.29,1.38H29.21A5.65,5.65,0,0,1,34.85,7V28.94a5.45,5.45,0,0,1-1.59,3.95,5.65,5.65,0,0,1-4,1.69Zm0-31.18A3.57,3.57,0,0,0,3.73,7V28.89a3.57,3.57,0,0,0,3.56,3.56H29.21a3.57,3.57,0,0,0,3.57-3.56V7A3.57,3.57,0,0,0,29.21,3.4Z"/>
  </g>
</svg>
