<svg id="Layer_1" data-name="Layer 1" xmlns="http://www.w3.org/2000/svg" viewBox="0 0 36.51 35.95">
  <g>
    <path d="M13.28,25.86a6.28,6.28,0,1,1,4.51-10.74l2.1,2.1a1.35,1.35,0,0,1-.1,1.9,1.31,1.31,0,0,1-1.76,0L15.94,17a3.64,3.64,0,0,0-2.47-1,3.51,3.51,0,0,0-2.6,1.13,3.52,3.52,0,0,0,2.45,6h.17a1.34,1.34,0,1,1,.09,2.68h-.3Z"/>
    <path d="M21.52,25.87a7.8,7.8,0,0,1-5.58-2.31L13.4,21.07a1.29,1.29,0,0,1-.41-.93,1.38,1.38,0,0,1,.37-1,1.28,1.28,0,0,1,1-.41,1.38,1.38,0,0,1,.95.37l2.58,2.53a5.23,5.23,0,0,0,7.4-7.4,5.31,5.31,0,0,0-3.73-1.53,5.18,5.18,0,0,0-2,.39,1.27,1.27,0,0,1-.47.09,1.36,1.36,0,0,1-.57-2.59,7.92,7.92,0,0,1,6.06,14.63A7.44,7.44,0,0,1,21.52,25.87Z"/>
    <path d="M7.29,34.88a6,6,0,0,1-5.94-5.94V7A6,6,0,0,1,7.29,1.08H29.21A5.94,5.94,0,0,1,35.15,7V28.94a5.74,5.74,0,0,1-1.68,4.16,6,6,0,0,1-4.26,1.78Zm0-31.18A3.27,3.27,0,0,0,4,7V28.89a3.26,3.26,0,0,0,3.26,3.26H29.21a3.27,3.27,0,0,0,3.27-3.26V7A3.28,3.28,0,0,0,29.21,3.7Z"/>
  </g>
</svg>
