<?xml version="1.0" encoding="utf-8"?>
<!-- Generator: Adobe Illustrator 25.0.1, SVG Export Plug-In . SVG Version: 6.00 Build 0)  -->
<svg version="1.1" id="Layer_1" xmlns="http://www.w3.org/2000/svg" xmlns:xlink="http://www.w3.org/1999/xlink" x="0px" y="0px"
	 viewBox="0 0 170.1 113.4" style="enable-background:new 0 0 170.1 113.4;" xml:space="preserve">
<style type="text/css">
	.st0{fill:#FFFFFF;}
	.st1{fill:#1D1D1B;}
</style>
<path class="st0" d="M80.8,73.5c-1.8,0-5.1-0.3-7.7-2L73,71.4c-0.4-0.2-0.9-0.5-1.3-0.8c-0.7-0.6-1.1-1.4-1.1-2.3c0-0.2,0-0.4,0-0.6
	c0-0.3,0-0.5,0-0.8c0.1-0.5,0.1-0.9,0.1-1.3c0-0.3-0.1-0.6-0.3-0.9c-0.3-0.4-0.4-0.7-0.5-1c0-0.2-0.1-0.4-0.1-0.6
	c-0.1-0.2-0.2-0.5-0.2-0.8l0,0c-0.1-0.1-0.1-0.2-0.2-0.3c0-0.1,0-0.1,0-0.2c0-0.2-0.1-0.3-0.1-0.5c0-0.1,0-0.2-0.1-0.2
	c-0.1-0.1-0.1-0.4,0-0.5c0.1-0.1,0.2-0.2,0.3-0.3c0.4-0.3,0.8-0.5,1.2-0.6l1-0.3c0,0,0,0,0,0c0-0.2,0.2-0.3,0.3-0.3l0.8-0.4l0.1-0.1
	c0.2-0.1,0.4-0.2,0.5-0.2c0.1-0.2,0.2-0.4,0.2-0.6c0.1-0.2,0.2-0.4,0.4-0.5c0.1-0.1,0.2-0.2,0.3-0.3c0.2-0.2,0.4-0.3,0.7-0.5
	c0.4-0.2,0.9-0.4,1.4-0.6c1.4-0.3,2.7-0.7,3.9-1.3l0.1,0l0.3,0l0.1,0.2c0.1,0.2,0,0.3-0.1,0.5c0.3,0,0.6,0,0.9,0
	c1.8,0,3.3,0.5,4.9,1c1.5,0.5,3,1,5,1.2l0.3,0v0.5L91.6,58c-0.6,0.1-1.4,0.2-2.3,0.2c-0.9,0-1.9-0.1-2.6-0.1c1.4,0.6,2.9,1,4.4,1.3
	l0.2,0v0.4L91.1,60c-0.6,0.1-1.2,0.2-2.1,0.2c-0.8,0-1.6-0.1-2.2-0.1c-0.1,0-0.2,0-0.3,0c1.3,1.1,3.7,1.8,7.7,2l0.3,0v0.5l-0.2,0.1
	c-1,0.4-2,0.5-3.2,0.6c-0.7,0.1-1.5,0.1-2.3,0.3c-0.8,0.1-1.4,0.5-1.8,1c-0.2,0.4-0.3,0.9-0.2,1.2c2.8,0.1,5.4,0.7,8,1.8l0.2,0.1
	v0.5l-0.3,0c-0.7-0.1-1.5-0.1-2.2-0.1c-1.8,0-3.3,0.3-4.4,0.5c-0.2,0-0.4,0.1-0.6,0.1c1.5,0.5,3.6,0.6,4.9,0.7c0.5,0,1,0.1,1.3,0.1
	l2.5,0.4l-2.6,0.2c-0.4,0-1,0.1-1.8,0.3c-1.5,0.2-3.4,0.5-4.9,0.6c1,0.4,2.1,0.7,3.2,1l0.2,0.1v0.5l-0.3,0.1c-2.4,0-4.9-0.3-7.2-0.8
	c-0.4-0.1-0.7-0.1-1.1-0.1c-0.5,0-1,0.1-1.4,0.3c0.9,0.4,1.9,0.8,2.9,1l1.3,0.3l-1.4,0.2C82.6,73.4,81.8,73.5,80.8,73.5z"/>
<path class="st1" d="M69,67v-0.2c0-0.2,0-0.3,0-0.5s0-0.4,0-0.6s-0.1-0.2-0.2-0.3c-0.2-0.4-0.4-0.9-0.5-1.4c0-0.1-0.1-0.3-0.1-0.4
	l0,0l0,0c-0.1-0.1-0.1-0.3-0.2-0.4c-0.1-0.1-0.1-0.3-0.2-0.4H18.4l-0.9,4.8H69V67z"/>
<path class="st1" d="M109.7,62.7H98.5l-0.8,0.5c-1.8,1-3.9,1.5-5.9,1.7c2,0.5,3.9,1.4,5.6,2.6h45.3l0.8-4.8L109.7,62.7z"/>
<polygon class="st1" points="20.4,51.1 24.4,28.1 30.1,28.1 26.9,46.3 33.6,46.3 32.8,51.1 "/>
<polygon class="st1" points="35.7,51.1 39.7,28.1 45.4,28.1 41.4,51.1 "/>
<polygon class="st1" points="44.5,51.1 48.5,28.1 63,28.1 62.1,33 53.4,33 52.6,37.1 60.2,37.1 59.4,41.8 51.8,41.8 51,46.3 
	59.8,46.3 59,51.1 "/>
<path class="st1" d="M61.8,51.1l4-23h8c1.2,0,2.3,0.1,3.5,0.3c0.9,0.2,1.8,0.6,2.5,1.2c0.7,0.7,1.1,1.5,1.2,2.4
	c0.2,1.3,0.1,2.6-0.2,3.8c-0.2,1.3-0.6,2.5-1.1,3.6c-0.5,0.9-1.2,1.7-2,2.3c-0.8,0.6-1.8,1-2.8,1.2c-1.2,0.2-2.4,0.3-3.6,0.3h-2.5
	l-1.4,7.7H61.8z M72,38.7c0.8,0.1,1.5-0.2,2.2-0.6c0.6-0.7,1-1.5,1.1-2.4c0.2-1.4,0.1-2-0.2-2.3c-0.5-0.4-1.2-0.6-1.9-0.5h-2.5
	l-1,5.8L72,38.7z"/>
<path class="st1" d="M89.5,51.1l-0.2-4.2h-5.2l-1.6,4.2h-5.9l10-23h6.7l2,23H89.5z M89.1,42.2l-0.2-7.3l-2.8,7.3H89.1z"/>
<polygon class="st1" points="85.7,26.8 87.2,22.9 111.3,22.9 "/>
<path class="st1" d="M100.4,51.5c-0.6,0-1.2,0-1.7-0.1c-0.6-0.1-1.1-0.2-1.6-0.3L96.7,51l0.8-4.8l0.5,0.2c0.4,0.1,0.7,0.2,1.1,0.2
	c0.4,0.1,0.9,0.1,1.3,0.1c0.8,0,1.2-0.2,1.3-0.3c0.3-0.4,0.5-0.8,0.5-1.3l2.1-12.2h-3.2l0.8-4.8h8.9l-3,17.1
	c-0.2,0.9-0.4,1.8-0.7,2.6c-0.3,0.8-0.7,1.4-1.2,2c-0.6,0.6-1.4,1-2.2,1.2C102.7,51.5,101.5,51.6,100.4,51.5z"/>
<path class="st1" d="M121.2,51.1l-0.2-4.2h-5.2l-1.6,4.2h-5.9l10-23h6.7l2,23H121.2z M120.8,42.2l-0.2-7.3l-2.8,7.3H120.8z"/>
<path class="st1" d="M147.6,30.6l12.9-2.9h-20c-2.2-0.1-4.5,0.5-6.3,1.8c-1.6,1.2-2.6,3-2.9,5c-0.2,1-0.2,2,0,2.9
	c0.1,0.8,0.5,1.5,1,2.1c0.6,0.6,1.2,1,2,1.3c0.9,0.3,1.9,0.6,2.8,0.8c0.7,0.1,1.5,0.3,2.2,0.5c0.4,0.1,0.8,0.3,1.1,0.5
	c0.2,0.1,0.3,0.3,0.3,0.5c0,0.3,0,0.6,0,0.9c-0.1,0.8-0.4,1.6-1,2.1c-0.7,0.4-1.6,0.7-2.4,0.6c-0.7,0.1-1.5-0.1-2.1-0.5
	c-0.4-0.6-0.5-1.3-0.2-2l0.1-0.5h-5.7l-0.1,0.4c-0.2,1.1-0.3,2.2-0.1,3.3c0.1,0.9,0.5,1.8,1.2,2.4c0.7,0.7,1.6,1.1,2.5,1.4
	c1.2,0.3,2.5,0.4,3.8,0.4c1.2,0,2.4-0.1,3.5-0.4c1-0.2,2-0.7,2.9-1.3c0.9-0.6,1.6-1.4,2.1-2.3c0.6-1.1,1-2.3,1.2-3.5
	c0.2-0.8,0.2-1.7,0.1-2.5c-0.1-0.7-0.4-1.4-0.9-2c-0.6-0.6-1.3-1-2.1-1.3c-1.1-0.4-2.2-0.7-3.4-0.8c-0.6-0.1-1.3-0.2-1.9-0.4
	c-0.3-0.1-0.7-0.3-0.9-0.5c-0.2-0.2-0.3-0.4-0.3-0.7c0-0.4,0-0.8,0.1-1.1c0.1-0.6,0.4-1.2,0.8-1.6c0.6-0.4,1.4-0.6,2.1-0.5
	c1.2,0,1.7,0.3,1.9,0.5c0.3,0.5,0.4,1.1,0.2,1.6l-0.1,0.5h5.7l0.1-0.4c0.2-1,0.2-2.1,0.1-3.2C147.8,31.3,147.7,31,147.6,30.6z"/>
<path class="st1" d="M15.9,77.5h4.6c0.7,0,1.3,0,2,0.2c0.4,0.1,0.8,0.3,1.1,0.6c0.3,0.3,0.4,0.6,0.5,1c0.1,0.5,0,1-0.1,1.5
	c-0.1,0.6-0.3,1.2-0.7,1.8c-0.3,0.4-0.7,0.8-1.2,1c1.1,0.5,1.6,1.5,1.3,3.1c-0.1,0.5-0.3,1-0.5,1.5c-0.2,0.4-0.5,0.8-0.9,1.1
	c-0.4,0.3-0.9,0.6-1.4,0.7c-0.7,0.2-1.3,0.3-2,0.3h-4.8L15.9,77.5z M18.8,88c0.4,0,0.9-0.1,1.2-0.3c0.3-0.3,0.6-0.8,0.6-1.2
	c0.1-0.6,0-1.1-0.2-1.3c-0.3-0.2-0.7-0.3-1.1-0.3h-2L16.8,88H18.8z M18.2,79.8l-0.5,2.9h1.7c0.4,0,0.8-0.1,1.2-0.3
	c0.3-0.3,0.5-0.7,0.5-1.2c0.1-0.4,0.1-0.8-0.1-1.1c-0.3-0.3-0.6-0.4-1-0.4H18.2z"/>
<path class="st1" d="M33.4,87.8H30l-0.9,2.4h-2.8l5.5-12.7h3.4l1.1,12.7h-2.8L33.4,87.8z M30.9,85.6h2.4l-0.2-5.7l0,0L30.9,85.6z"/>
<path class="st1" d="M47.2,86.5c0-0.2,0-0.4,0-0.6c0-0.2-0.1-0.3-0.3-0.4c-0.2-0.2-0.5-0.3-0.7-0.3c-0.4-0.1-0.9-0.2-1.3-0.3
	c-0.5-0.1-1.1-0.2-1.6-0.4c-0.4-0.2-0.8-0.4-1.1-0.7c-0.3-0.3-0.5-0.7-0.5-1.1c-0.1-0.5-0.1-1.1,0-1.6c0.2-1.1,0.7-2,1.5-2.7
	c1.1-0.7,2.3-1.1,3.6-1c0.7,0,1.3,0.1,2,0.2c0.5,0.1,0.9,0.3,1.3,0.7c0.3,0.3,0.5,0.7,0.6,1.2c0.1,0.6,0.1,1.2,0,1.7H48
	c0.1-0.4,0.1-0.8-0.2-1.2c-0.4-0.3-0.8-0.4-1.3-0.4c-0.5,0-1,0.1-1.4,0.4c-0.3,0.3-0.5,0.7-0.6,1.1c0,0.2,0,0.5,0,0.7
	c0,0.2,0.1,0.4,0.3,0.5c0.2,0.2,0.4,0.3,0.6,0.4c0.4,0.1,0.8,0.2,1.1,0.3c0.6,0.1,1.3,0.3,1.9,0.5c0.4,0.1,0.8,0.4,1.1,0.7
	c0.2,0.3,0.4,0.6,0.4,0.9c0.1,0.5,0.1,0.9,0,1.4c-0.1,0.7-0.3,1.3-0.7,1.9c-0.3,0.5-0.7,0.9-1.2,1.2c-0.5,0.3-1,0.6-1.6,0.7
	c-0.7,0.1-1.3,0.2-2,0.2c-0.7,0-1.4-0.1-2.1-0.2c-0.5-0.1-1-0.4-1.3-0.7c-0.3-0.3-0.5-0.8-0.6-1.2c-0.1-0.6-0.1-1.2,0.1-1.8h2.7
	c-0.2,0.5-0.1,1,0.2,1.4c0.4,0.3,0.9,0.5,1.4,0.4c0.5,0,1.1-0.1,1.6-0.4C47,87.5,47.2,87,47.2,86.5z"/>
<path class="st1" d="M60.2,83.7l2.8,6.6h-3.1l-2.2-5.4l-0.9,5.4h-2.7l2.2-12.7h2.7l-0.9,5.2l3.8-5.2h3.1L60.2,83.7z"/>
<path class="st1" d="M69.3,77.5h7.8l-0.4,2.2h-5l-0.5,2.9h4.4l-0.4,2.2h-4.4L70.2,88h5l-0.4,2.2h-7.7L69.3,77.5z"/>
<path class="st1" d="M83.4,79.8h-2.8l0.4-2.2h8.4L89,79.8h-2.8l-1.8,10.5h-2.7L83.4,79.8z"/>
<path class="st1" d="M93.5,77.5h4.6c0.7,0,1.3,0.1,2,0.2c0.4,0.1,0.8,0.3,1.1,0.6c0.3,0.3,0.4,0.6,0.5,1c0,0.5,0,1-0.1,1.5
	c-0.1,0.6-0.3,1.2-0.7,1.8c-0.3,0.4-0.7,0.8-1.2,1c1.1,0.5,1.6,1.5,1.3,3.1c-0.1,0.5-0.3,1-0.5,1.5c-0.2,0.4-0.5,0.8-0.9,1.1
	c-0.4,0.4-0.9,0.6-1.5,0.8c-0.7,0.2-1.3,0.3-2,0.3h-4.8L93.5,77.5z M96.4,88c0.4,0,0.9-0.1,1.2-0.3c0.3-0.3,0.6-0.8,0.6-1.2
	c0.1-0.6,0-1.1-0.2-1.3c-0.3-0.2-0.7-0.3-1.1-0.3H95L94.4,88H96.4z M95.9,79.8l-0.5,2.9h1.7c0.4,0,0.8-0.1,1.2-0.3
	c0.3-0.3,0.5-0.7,0.6-1.2c0.1-0.4,0-0.8-0.2-1.1c-0.3-0.3-0.6-0.4-1-0.4L95.9,79.8z"/>
<path class="st1" d="M106.1,81.6c0.1-1.3,0.7-2.4,1.7-3.3c1.1-0.8,2.4-1.2,3.8-1.1c1.7,0,2.8,0.3,3.4,1c0.7,1,0.9,2.2,0.5,3.3
	l-0.8,4.5c-0.1,1.3-0.8,2.5-1.7,3.3c-1.1,0.8-2.4,1.1-3.8,1.1c-1.6,0-2.8-0.3-3.4-1.1c-0.7-1-0.8-2.2-0.5-3.3L106.1,81.6z
	 M112.8,81.6c0.1-0.5,0.1-1.1-0.2-1.6c-0.4-0.4-0.9-0.6-1.4-0.5c-0.6,0-1.1,0.1-1.6,0.5c-0.4,0.4-0.7,1-0.7,1.5l-0.8,4.7
	c-0.2,0.5-0.1,1.1,0.2,1.5c0.4,0.4,0.9,0.5,1.4,0.5c0.6,0,1.1-0.1,1.6-0.5c0.4-0.4,0.7-1,0.7-1.5L112.8,81.6z"/>
<path class="st1" d="M121,77.5h2.7L121.9,88h3.9l-0.4,2.2h-6.6L121,77.5z"/>
<path class="st1" d="M136.4,86.5c0-0.2,0-0.4,0-0.6c0-0.2-0.1-0.3-0.3-0.4c-0.2-0.2-0.5-0.3-0.7-0.3c-0.4-0.1-0.9-0.2-1.3-0.3
	c-0.5-0.1-1.1-0.2-1.6-0.4c-0.4-0.2-0.8-0.4-1.1-0.7c-0.3-0.3-0.5-0.7-0.5-1.1c-0.1-0.5,0-1,0.1-1.6c0.2-1.1,0.7-2,1.6-2.7
	c1.1-0.7,2.3-1.1,3.6-1c0.7,0,1.3,0.1,2,0.2c0.5,0.1,0.9,0.3,1.3,0.7c0.3,0.3,0.5,0.7,0.6,1.2c0.1,0.6,0.1,1.2-0.1,1.7h-2.7
	c0.1-0.4,0.1-0.8-0.2-1.2c-0.4-0.3-0.8-0.4-1.3-0.4c-0.5,0-1,0.1-1.4,0.4c-0.3,0.3-0.5,0.7-0.6,1.1c0,0.2,0,0.5,0,0.7
	c0,0.2,0.1,0.4,0.3,0.5c0.2,0.2,0.4,0.3,0.6,0.4c0.4,0.1,0.8,0.2,1.1,0.3c0.6,0.1,1.3,0.3,1.9,0.5c0.4,0.1,0.8,0.4,1.1,0.7
	c0.3,0.3,0.4,0.6,0.5,1c0.1,0.5,0,0.9-0.1,1.4c-0.1,0.7-0.3,1.3-0.6,1.9c-0.3,0.5-0.7,0.9-1.1,1.2c-0.5,0.3-1,0.6-1.6,0.7
	c-0.7,0.1-1.3,0.2-2,0.2c-0.7,0-1.4-0.1-2.1-0.2c-0.5-0.1-1-0.4-1.3-0.7c-0.3-0.3-0.5-0.8-0.6-1.2c-0.1-0.6-0.1-1.2,0.1-1.8h2.7
	c-0.2,0.5-0.1,1,0.2,1.4c0.4,0.3,0.9,0.5,1.4,0.4c0.5,0,1.1-0.1,1.6-0.4C136.2,87.5,136.4,87,136.4,86.5z"/>
<path class="st1" d="M85.2,70.5c1.9,0.4,6.8-0.6,8.2-0.7c-1.2-0.2-5.3-0.2-7.3-1.2c0,0,0-0.1,0-0.1c1,0.2,4.2-1.1,8.4-0.5
	c0,0,0-0.1,0-0.1c-2.5-1.1-5.3-1.7-8.1-1.8c-0.3-0.8-0.1-2.4,2.1-2.8s4-0.3,5.5-0.9v-0.1c-4.6-0.3-7.1-1.1-8.3-2.6
	c-0.2-0.2,3.2,0.4,5.2-0.1v-0.1c-1.8-0.4-3.6-0.9-5.3-1.7c-2-0.7,3,0.3,5.8-0.3v-0.1c-4.8-0.5-7-2.7-11.3-2.2
	c-0.3,0,0.5-0.8,0.2-0.7c-1.3,0.6-2.6,1.1-4,1.4c-0.5,0.1-0.9,0.3-1.3,0.6c-0.2,0.1-0.4,0.2-0.6,0.4c-0.1,0.1-0.2,0.1-0.2,0.2
	c-0.1,0.2-0.2,0.3-0.3,0.5c-0.1,0.2-0.2,0.3-0.2,0.5c0,0.1-0.1,0.2-0.2,0.2c-0.2,0.1-0.4,0.2-0.7,0.3l-0.8,0.4
	c-0.1,0.1-0.2,0.2-0.1,0.3s0,0,0,0h-0.1l-1.1,0.4c-0.4,0.1-0.8,0.3-1.2,0.6c-0.1,0.1-0.2,0.2-0.2,0.2c-0.1,0.1-0.1,0.2,0,0.2
	c0.1,0.1,0.1,0.2,0.1,0.4c0,0.2,0.1,0.4,0.1,0.6c0,0.1,0.1,0.2,0.2,0.3c0,0,0,0.1,0,0.1c0,0.2,0.1,0.5,0.2,0.7
	c0.1,0.2,0.1,0.4,0.1,0.6c0.1,0.3,0.2,0.6,0.4,0.9l0.1,0.1c0.2,0.3,0.4,0.6,0.4,1c0,0.4,0,0.9-0.1,1.3c0,0.5-0.1,0.9-0.1,1.3
	c0,0.8,0.4,1.5,1,2.1c0.4,0.3,0.9,0.6,1.3,0.9c0,0,0.1,0.1,0.1,0.1c3.6,2.5,8.7,2,9.6,1.9l0,0c-1.2-0.3-2.3-0.7-3.4-1.3
	c0,0,0-0.1,0-0.1c1-0.5,2.1-0.6,3.2-0.3c2.4,0.5,4.8,0.8,7.2,0.8c0,0,0,0,0-0.1C88.2,71.8,86.6,71.3,85.2,70.5 M75.8,68.5
	c-0.2,0.2-0.5,0.3-0.7,0.4c-0.3,0.1-0.5,0.3-0.7,0.5C74.2,69.5,74,69.8,74,70c0,0.2,0.1,0.4,0.2,0.6l0.1,0.1h-0.1
	c-0.1,0-0.1,0-0.2,0c-0.3-0.1-0.5-0.2-0.7-0.4c-0.2-0.2-0.3-0.4-0.4-0.6c-0.1-0.3-0.3-0.7-0.3-1c-0.1,0.1-0.1,0.3-0.1,0.5
	c-0.1-0.2-0.2-0.4-0.3-0.6c0,0.4,0,0.7,0,1.1c-0.3-0.4-0.5-0.8-0.7-1.3c-0.1-0.4-0.1-0.7,0-1.1c0-0.3,0.1-0.6,0.3-0.9
	c0,0.4,0.1,0.9,0.2,1.3c0-0.1,0.1-0.1,0.2-0.1s0.1,0.1,0.2,0.1c0.1,0,0.2,0,0.3,0c-0.2,0-0.1-0.3-0.1-0.4c0-0.2,0-0.5,0.1-0.7
	c0.2,0.4,0.4,0.7,0.6,1c0.4,0.3,0.9,0.4,1.3,0.8c0,0,0.3-0.5,0.5-0.1c0-0.2,0.1-0.4,0.2-0.6c0.1,0,0.1,0.2,0.2,0.3
	c0.1,0.1,0.1,0.1,0.2,0.1c0.3,0,0.7-0.1,1-0.2c-0.2,0.1-0.3,0.3-0.4,0.4C76.1,68.3,76,68.4,75.8,68.5 M71,62.9h-0.1c0,0-0.1,0-0.1,0
	s0,0.1,0.1,0.1s0.2,0.5,0.2,0.6s0.1,0.4,0.2,0.6c0,0,0.1,0.1,0,0.2c-0.5-0.4-0.9-1-1.1-1.7c0-0.2-0.2-0.4,0.1-0.4s0.3,0.2,0.4,0.2
	c0.5,0.2,0.9,0.1,1.3-0.2c0.1,0,0.1-0.1,0.2-0.1c0.1,0,0.2,0.1,0.3,0.1c0.2,0.1,0.5,0.2,0.8,0.2c0.6,0.2,1.1,0.7,1.3,1.3
	c-0.3-0.4-0.7-0.8-1.2-0.9c-0.2,0-0.4,0-0.7,0c0.1,0,0.1,0,0.1,0.1c0,0.1,0,0.1,0,0.2c-0.1,0.4-0.1,0.9,0,1.3
	c-0.2-0.3-0.4-0.6-0.6-0.9c-0.2-0.3-0.1-0.7-0.1-0.8c-0.3,0-0.6,0-0.9,0L71,62.9 M79.1,63.9c-0.2,0.1-0.3,0.7-0.4,0.8
	c0-0.1-0.1-0.2-0.2-0.2c-0.4,0.3-0.3,0.9-0.5,1.4c-0.1,0.2-0.2,0.3-0.3,0.4c-0.7,0.5-1.6,0.5-2.3-0.1c-0.2,0.4-0.4,0.8-0.7,1.2
	c0.5-1,0.6-2.1,0.4-3.2c-0.2-0.5-0.5-1-0.8-1.4c-0.2-0.3-0.5-0.5-0.9-0.7c-0.3-0.1-0.7-0.1-1-0.3c-0.1-0.1-0.3-0.2-0.4-0.2
	c-0.1,0-0.2,0.1-0.3,0.2c-0.1,0.1-0.2,0.1-0.4,0.1c-0.1,0-0.2-0.1-0.3-0.1c0.1-0.1,0.3-0.2,0.3-0.4c0.3-0.6,0.9-0.7,1.4-0.9
	c0.3-0.1,0.5-0.2,0.8-0.3s0.8-0.2,1.2-0.3c0.1,0,0.2,0,0.2,0c0.1,0,0.3,0,0.4,0s0.2,0,0.3,0.2l0,0c0,0,0,0.1,0,0.1
	c-0.1,0-0.1,0.1-0.2,0.1l-0.2,0.1l0,0c0.2,0,0.5,0.1,0.7,0.1c0.3,0,0.5,0,0.8-0.1c0.2,0,0.4-0.1,0.5-0.2c0,0,0.2-0.4,0.2-0.4h-0.5
	c-0.2,0-0.3,0-0.5,0c0.2-0.1,0.5-0.2,0.7-0.3c0.1,0,0.2-0.1,0.3-0.1c0.1,0,0.2,0,0.3,0c-0.1-0.1-0.2-0.5-0.4-0.5
	c-0.2,0-0.3,0-0.5,0.1c-0.2,0-0.3,0.1-0.5,0.2c-0.2,0.1-0.3,0.1-0.5,0.2c-0.2,0.1-0.3,0.3-0.6,0.2s-0.1-0.3-0.1-0.4
	c0.1-0.1,0.2-0.2,0.2-0.3l-1,0.6c-0.4,0.2-0.8,0.2-1.1,0.4c-0.2,0.1-0.4,0.2-0.6,0.3c-0.2,0-0.4,0.1-0.5,0.1
	c-0.1,0.1-0.3,0.2-0.5,0.2c-0.2,0-0.4,0-0.5,0c-0.4,0-0.8,0-1.2,0.1c0.2-0.1,0.3-0.1,0.4-0.2c0.2-0.1,0.4-0.1,0.6-0.2l0.6-0.2
	c0.2,0,0.3-0.1,0.5-0.2c0.1,0,0.1-0.1,0.2-0.2s0.2-0.1,0.3-0.2c0.1-0.1,0.3-0.3,0.5-0.3c0.2-0.1,0.5,0.1,0.7-0.2
	c0.3-0.4,0.5-1,1.1-1.2c0.1,0,0.2,0,0.3,0c0.2,0,0.4,0,0.6,0c0.5,0,1-0.1,1.5-0.1c0.3,0,0.3-0.1,0.5,0.1c0.1,0.2,0.3,0.5,0.3,0.7
	c0-0.3,0.1-0.6,0.2-0.9l1.2,0.8c0.1,0,0.1,0.1,0.1,0.1c0,0,0,0.1,0,0.1c-0.1,0.3-0.2,0.7-0.2,1.1c0,0.1,0.2,0.7,0.2,0.7
	c-0.2,0-0.3,0-0.4-0.1c0,0.2,0.1,0.4,0.1,0.6c0.1,0.2,0.2,0.4,0.2,0.5c-0.3-0.6-1.4-0.4-2-0.4c0,0.5,0.3,0.9,0.7,1.2
	c0.2,0.1,0.5,0.2,0.7,0.3c0.1,0,0.1,0.1,0.2,0.1c0.1,0,0.2-0.1,0.2,0c0,0,0,0.1,0,0.1c0.1,0.5,0.1,1,0.2,1.5c0,0-0.6-0.4-0.6-0.4
	L79.1,63.9 M81.9,57.7c-0.4-0.4-0.9-0.8-1.4-1c-1-0.2-2-0.3-3.1-0.2c1.4-0.4,2.9-0.6,4.4-0.7c0.5,0,1,0,1.4,0.2
	c0.6,0.2,1.1,0.4,1.7,0.6c-1.1-0.1-2.2-0.2-3.2-0.1c0.7,0.4,1.4,0.9,2.1,1.4c0.7,0.5,1.5,0.8,2.3,0.9c-1.5,0.2-3-0.2-4.2-1.1
	 M88.6,62.2c0,0-2.9,1.3-5.1-0.1c1.2,0.4,2.5,0.4,3.7,0.1c-1.2-0.3-2.3-1-3.1-2C85.4,61.3,87,61.9,88.6,62.2 M78.8,71
	c-0.1,0.1-0.1,0.2-0.2,0.3c-0.1,0.2,0,0.5,0.1,0.7c0.2,0.3,0.6,0.4,0.8,0.7c-0.8-0.2-1.5-0.4-2.2-0.7c-0.8-0.2-1.7-0.5-2.6-0.7
	c0.7,0.2,1.5,0.3,2.3,0.2c0.7-0.2,1.4-0.4,2.1-0.7C79,70.8,78.9,70.9,78.8,71 M84.3,69.9c-1.1-0.2-2.1-0.6-3-1.2
	c-0.9-0.5-1.9-1-2.2-2c0.3,0,0.5,0,0.8,0.1c-0.2-0.4-0.3-0.8-0.3-1.2l0.8,0.4c-0.1-0.4-0.1-0.7-0.2-1.1c0.1,0.3,1,0.4,1.2,0.5
	c0.4,0.2,0.8,0.4,1.2,0.6c2.3,1.2,3.7,0.7,5.3,1s3.4,0.4,3.4,0.5c-1.2,0.2-2.4,0.3-3.6,0.3c-1.3-0.2-2.5-0.2-3.3-0.3
	c-1.2-0.2-2.3-0.6-3.3-1.4c0,0.4,0.1,0.7,0.2,1l-0.7-0.1c0.5,0.5,1.1,1,1.8,1.4c1,0.5,2.1,0.9,3.3,1l3.6,0.6c-0.2,0-0.4,0-0.6,0
	c-1,0.2-2,0.2-3,0.2C85.3,69.9,84.8,69.9,84.3,69.9"/>
</svg>
