<?xml version="1.0" encoding="utf-8"?>
<!-- Generator: Adobe Illustrator 25.0.1, SVG Export Plug-In . SVG Version: 6.00 Build 0)  -->
<svg version="1.1" id="Layer_1" xmlns="http://www.w3.org/2000/svg" xmlns:xlink="http://www.w3.org/1999/xlink" x="0px" y="0px"
	 viewBox="0 0 170.1 113.4" style="enable-background:new 0 0 170.1 113.4;" xml:space="preserve">
<path d="M62.1,62.8l-3-25.3c-0.3-2.2-0.4-4.7-0.4-4.7h-0.1c0,0-0.5,2.5-1.2,4.7l-7.7,25.3h-3.9l-7.7-25.3c-0.7-2.2-1.2-4.7-1.2-4.7
	H37c0,0-0.2,2.5-0.4,4.7l-3,25.3h-5.3L33,26.3h6.6l7.2,23.8c0.6,2.1,1.1,4.5,1.1,4.5H48c0,0,0.5-2.4,1.1-4.5l7.2-23.8h6.6l4.7,36.5
	H62.1z"/>
<path d="M81,63.4c-7.8,0-11.7-3.2-11.7-8.5c0-7.6,8.1-8.9,16.3-9.4v-1.7c0-3.4-2.3-4.6-5.7-4.6c-2.6,0-5.7,0.8-7.5,1.7L70.9,37
	c2.2-1,5.8-1.9,9.5-1.9c6.5,0,10.4,2.5,10.4,9.2v17.1C88.8,62.5,84.8,63.4,81,63.4z M85.6,49.1c-5.5,0.3-11.1,0.8-11.1,5.6
	c0,2.9,2.2,4.6,6.4,4.6c1.8,0,3.8-0.3,4.7-0.7V49.1z"/>
<path d="M107.7,39.9c-0.8-0.2-1.8-0.3-2.8-0.3c-1.6,0-3.2,0.3-4.3,0.7v22.5h-5.5V37c2.6-1.1,6.5-1.9,10.5-1.9c1.2,0,2.3,0.1,3.1,0.2
	L107.7,39.9z"/>
<path d="M119,63.4c-3.2,0-6.5-0.9-8.5-1.9l1.9-4.2c1.4,0.9,4.4,1.8,6.5,1.8c3,0,4.9-1.5,4.9-3.7c0-2.5-2.1-3.4-4.8-4.4
	c-3.6-1.4-7.7-3-7.7-8.1c0-4.5,3.5-7.6,9.5-7.6c3.3,0,6,0.8,7.9,1.9L127,41c-1.2-0.8-3.6-1.6-5.6-1.6c-2.9,0-4.5,1.5-4.5,3.5
	c0,2.5,2,3.3,4.7,4.3c3.8,1.4,8,3,8,8.3C129.6,60.2,125.9,63.4,119,63.4z"/>
<g>
	<path d="M84.9,82.4l7.2-7.2c1.1-1.1,2.1-2.3,2.1-3.6c0-1.8-1.2-3.1-3.8-3.1c-1.5,0-3.1,0.4-4.2,0.9l-0.6-1.3c1.3-0.6,3.1-1,4.9-1
		c3.7,0,5.4,1.9,5.4,4.4c0,1.6-1.1,3.1-2.5,4.4l-5.3,5h8.5v1.4L84.9,82.4L84.9,82.4z"/>
	<path d="M105.4,82.6c-4.2,0-6.3-3.4-6.3-7.8s2.1-7.8,6.3-7.8c4.2,0,6.3,3.4,6.3,7.8C111.8,79.2,109.7,82.6,105.4,82.6z M105.4,68.5
		c-3.2,0-4.7,2.7-4.7,6.4s1.5,6.4,4.7,6.4s4.7-2.7,4.7-6.4S108.6,68.5,105.4,68.5z"/>
	<path d="M125,82.4v4.4h-1.6v-4.4H114v-1.3l9.2-13.7h1.8v13.7h2.2v1.3H125z M123.5,68.9c0,0-0.6,1.2-1.4,2.3l-6.6,9.8h7.9v-9.5
		C123.5,70.3,123.6,68.9,123.5,68.9L123.5,68.9z"/>
	<path d="M131.4,87.1l-0.5-1.4c4.6-1.3,7.4-4.3,8.6-7.6c-1,0.4-2.5,0.8-3.8,0.8c-3.9,0-6.5-2.1-6.5-5.8c0-3.1,2.5-5.9,6.2-5.9
		c4.3,0,6.4,3.3,6.4,7.2C141.8,79.5,138.2,85.2,131.4,87.1z M135.4,68.5c-2.8,0-4.6,2.2-4.6,4.5c0,3,2.1,4.5,5,4.5
		c1.2,0,3-0.4,4.1-0.9c0.2-0.8,0.3-1.6,0.3-2.4C140.2,71,138.5,68.5,135.4,68.5z"/>
</g>
</svg>
