<?xml version="1.0" encoding="utf-8"?>
<!-- Generator: Adobe Illustrator 25.0.1, SVG Export Plug-In . SVG Version: 6.00 Build 0)  -->
<svg version="1.1" id="Layer_1" xmlns="http://www.w3.org/2000/svg" xmlns:xlink="http://www.w3.org/1999/xlink" x="0px" y="0px"
	 viewBox="0 0 170.1 113.4" style="enable-background:new 0 0 170.1 113.4;" xml:space="preserve">
<style type="text/css">
	.st0{fill:#1D1D1B;}
</style>
<path class="st0" d="M12.5,37c-2.1,0.1-4.1-0.7-5.5-2.2c-0.8-0.8-1.4-1.9-1.7-3.1C5.1,30.1,5,28.4,5,26.7c0-1.7,0.1-3.4,0.3-5
	c0.2-1.2,0.8-2.2,1.7-3.1c1.4-1.5,3.4-2.3,5.5-2.2c3.8-0.2,7.1,2.6,7.5,6.4h-4c-0.2-1.7-1.7-2.9-3.4-2.9c-1-0.1-1.9,0.3-2.6,1.1
	c-0.8,0.9-1,1.8-1,5.7s0.2,4.9,1,5.7c0.7,0.7,1.6,1.1,2.5,1c1.7,0.1,3.2-1.1,3.5-2.8h4C19.6,34.4,16.3,37.2,12.5,37z"/>
<path class="st0" d="M34.7,34.8c-1.4,1.5-3.4,2.3-5.5,2.2c-2.1,0.1-4.1-0.7-5.5-2.2c-2-2.1-2-4.6-2-8.1s-0.1-6,2-8.1
	c1.4-1.5,3.4-2.3,5.5-2.2c2.1-0.1,4,0.7,5.5,2.2c2.1,2.1,2,4.6,2,8.1S36.7,32.7,34.7,34.8z M31.7,21c-0.6-0.7-1.6-1.1-2.5-1.1
	c-1,0-1.9,0.4-2.6,1.1c-0.8,0.9-1,1.8-1,5.7s0.2,4.9,1,5.7c0.7,0.7,1.6,1.1,2.6,1.1c1,0,1.9-0.4,2.5-1.1c0.8-0.9,1-1.8,1-5.7
	S32.5,21.8,31.7,21z"/>
<path class="st0" d="M53.8,36.8V25l-3.9,7.7h-2.7L43.3,25v11.8h-4V16.5h3.9l5.3,11l5.3-11h3.9v20.3H53.8z"/>
<path class="st0" d="M68.9,29.2H65v7.6h-4V16.5h7.9c4.2,0,6.7,2.9,6.7,6.3S73.1,29.2,68.9,29.2z M68.7,20.1H65v5.6h3.7
	c1.5,0,2.8-1.2,2.8-2.8S70.2,20.1,68.7,20.1C68.7,20.1,68.7,20.1,68.7,20.1L68.7,20.1z"/>
<path class="st0" d="M77.6,36.8V16.5h4v16.8h9.2v3.5H77.6z"/>
<path class="st0" d="M92.7,36.8V16.5h13.4v3.5h-9.4v4.8h8v3.5h-8v4.9h9.4v3.5H92.7z"/>
<path class="st0" d="M116.9,20.1v16.8h-4V20.1h-5.3v-3.5h14.6v3.5L116.9,20.1z"/>
<path class="st0" d="M124.1,36.8V16.5h13.4v3.5h-9.4v4.8h8v3.5h-8v4.9h9.4v3.5H124.1z"/>
<path class="st0" d="M140,36.8V16.5h4v16.8h9.2v3.5H140z"/>
<path class="st0" d="M160.7,28.5v8.3h-3.9v-8.3l-6.1-12h4.3l3.8,8.2l3.7-8.2h4.3L160.7,28.5z"/>
<polyline class="st0" points="160.8,39.3 160.8,40.6 5.4,40.6 5.4,39.3 "/>
<path class="st0" d="M12.9,67.2c-4.2,0-7.5-2.8-7.5-7.1V46.7h4V60c0,2.3,1.4,3.7,3.5,3.7c1.9,0.1,3.4-1.4,3.5-3.2c0-0.2,0-0.3,0-0.5
	V46.7h3.9v13.4C20.4,64.4,17.1,67.2,12.9,67.2z"/>
<path class="st0" d="M29,67.2c-3.1,0-5.4-0.7-7.4-2.7l2.6-2.5c1.3,1.2,3.1,1.8,4.9,1.7c2.3,0,3.6-0.9,3.6-2.5c0-0.6-0.2-1.3-0.7-1.7
	c-0.5-0.4-1.1-0.7-1.8-0.7l-2.5-0.3c-1.5-0.1-2.8-0.7-3.9-1.7c-1-1.1-1.5-2.5-1.5-4c0-3.6,2.7-6.2,7.1-6.2c2.4-0.2,4.8,0.7,6.6,2.4
	l-2.5,2.5c-1.1-1-2.6-1.5-4.1-1.4c-2.1,0-3.1,1.2-3.1,2.6c0,0.5,0.2,1.1,0.6,1.5c0.5,0.5,1.2,0.7,1.9,0.8l2.4,0.3
	c1.4,0.1,2.8,0.7,3.9,1.6c1.1,1.2,1.7,2.7,1.6,4.3C36.5,65,33.3,67.2,29,67.2z"/>
<path class="st0" d="M38.7,67.1V46.7h13.4v3.5h-9.4v4.8h8v3.5h-8v4.9h9.4v3.5H38.7z"/>
<path class="st0" d="M54.5,67.1V46.7h4v16.8h9.2v3.5H54.5z"/>
<path class="st0" d="M69.6,67.1V46.7H83v3.5h-9.4v4.8h8v3.5h-8v4.9H83v3.5H69.6z"/>
<path class="st0" d="M91.8,67.2c-3.1,0-5.4-0.7-7.4-2.7L87,62c1.3,1.2,3.1,1.8,4.9,1.7c2.3,0,3.6-0.9,3.6-2.5c0-0.6-0.2-1.3-0.6-1.7
	c-0.5-0.4-1.1-0.7-1.8-0.7l-2.5-0.3c-1.5-0.1-2.8-0.7-3.9-1.7c-1-1.1-1.5-2.5-1.4-4c0-3.6,2.7-6.2,7.1-6.2c2.4-0.2,4.8,0.7,6.6,2.4
	l-2.5,2.5c-1.1-1-2.7-1.5-4.2-1.4c-2.1,0-3.2,1.2-3.2,2.6c0,0.5,0.2,1.1,0.6,1.5c0.5,0.4,1.2,0.7,1.9,0.8l2.4,0.3
	c1.4,0.1,2.8,0.6,3.9,1.6c1.1,1.2,1.7,2.7,1.6,4.3C99.4,65,96.1,67.2,91.8,67.2z"/>
<path class="st0" d="M107.7,67.2c-3.1,0-5.4-0.7-7.4-2.7l2.6-2.5c1.3,1.2,3.1,1.8,4.9,1.7c2.3,0,3.6-0.9,3.6-2.5
	c0-0.6-0.2-1.3-0.6-1.7c-0.5-0.4-1.1-0.7-1.8-0.7l-2.4-0.3c-1.5-0.1-2.8-0.7-3.9-1.7c-1-1.1-1.5-2.5-1.5-4c0-3.6,2.7-6.2,7.1-6.2
	c2.4-0.2,4.8,0.7,6.6,2.4l-2.5,2.5c-1.1-1-2.6-1.5-4.2-1.4c-2.1,0-3.1,1.2-3.1,2.6c0,0.5,0.2,1.1,0.6,1.5c0.5,0.5,1.2,0.7,1.9,0.8
	l2.4,0.3c1.4,0.1,2.8,0.6,3.9,1.6c1.1,1.2,1.7,2.7,1.6,4.3C115.2,65,112,67.2,107.7,67.2z"/>
<g>
	<path class="st0" d="M11.3,94.6c-3.4,0-5.6-0.8-7.5-2.7l-0.1-0.1l2.7-2.7l0.1,0.1c1.3,1.2,3.1,1.8,4.8,1.7c1.6,0,3.5-0.4,3.5-2.4
		c0-0.6-0.2-1.2-0.6-1.6c-0.5-0.4-1.1-0.7-1.7-0.7l-2.4-0.3c-1.5-0.1-2.9-0.7-4-1.7C5,83,4.5,81.5,4.6,80c0-3.8,2.8-6.3,7.2-6.3
		c2.5-0.2,4.9,0.7,6.7,2.4l0.1,0.1l-2.7,2.7l-0.1-0.1c-1.1-1-2.6-1.5-4.1-1.4c-2.2,0-3,1.3-3,2.4c0,0.5,0.2,1,0.6,1.4
		c0.5,0.4,1.1,0.7,1.8,0.8l2.4,0.3c1.5,0.1,2.9,0.7,4,1.6c1.1,1.2,1.7,2.8,1.6,4.4C19,92.1,15.9,94.6,11.3,94.6z M4.1,91.8
		c1.8,1.8,4,2.6,7.2,2.6c4.5,0,7.4-2.4,7.4-6c0.1-1.6-0.4-3.1-1.5-4.3c-1.1-0.9-2.4-1.4-3.8-1.5L11,82.2c-0.7-0.1-1.4-0.4-2-0.8
		c-0.4-0.4-0.7-1-0.6-1.5c0-1.6,1.3-2.7,3.3-2.7c1.5-0.1,3,0.4,4.2,1.3l2.3-2.3c-1.7-1.6-4-2.3-6.3-2.2c-4.2,0-7,2.4-7,6
		c-0.1,1.4,0.5,2.9,1.5,3.9c1.1,0.9,2.4,1.5,3.9,1.7l2.5,0.3c0.7,0,1.3,0.3,1.9,0.7c0.5,0.5,0.7,1.1,0.7,1.8c0,1.7-1.3,2.6-3.7,2.6
		c-1.8,0.1-3.6-0.5-4.9-1.7L4.1,91.8z"/>
	<path class="st0" d="M29.5,94.4h-4.2V77.7h-5.3v-3.8h14.8v3.8h-5.3V94.4z M25.5,94.2h3.8V77.4h5.3v-3.3H20.2v3.3h5.3L25.5,94.2z"/>
	<path class="st0" d="M40.6,94.4h-4.2V73.9h4.2V94.4z M36.6,94.2h3.7V74.1h-3.7L36.6,94.2z"/>
	<path class="st0" d="M50.6,94.6c-2.1,0-4.1-0.8-5.6-2.3c-0.9-0.8-1.5-1.9-1.7-3.1c-0.3-1.7-0.4-3.4-0.4-5.1c0-1.7,0.1-3.4,0.3-5.1
		c0.2-1.2,0.9-2.3,1.7-3.1c1.5-1.5,3.5-2.3,5.6-2.3c3.9-0.2,7.2,2.7,7.6,6.5v0.1H54v-0.1c-0.2-1.6-1.7-2.8-3.3-2.8
		c-0.9-0.1-1.8,0.3-2.4,1c-0.8,0.9-1,1.8-1,5.7s0.2,4.8,1,5.7c0.6,0.7,1.5,1.1,2.5,1c1.7,0,3.1-1.2,3.3-2.8v-0.1h4.3v0.2
		C57.9,91.9,54.5,94.8,50.6,94.6z M50.6,73.9c-2,0-4,0.7-5.4,2.2c-0.8,0.8-1.4,1.9-1.6,3c-0.3,1.7-0.4,3.3-0.3,5
		c0,1.7,0.1,3.3,0.3,5c0.2,1.1,0.8,2.2,1.6,3c1.4,1.4,3.4,2.2,5.4,2.2c3.7,0.2,6.9-2.5,7.4-6.1h-3.8c-0.3,1.7-1.8,2.9-3.5,2.9
		c-1,0.1-2-0.3-2.7-1.1c-0.9-0.9-1-1.9-1-5.8s0.2-4.9,1-5.8c0.7-0.7,1.6-1.1,2.6-1.1c1.7-0.1,3.2,1.2,3.5,2.9H58
		C57.6,76.5,54.3,73.8,50.6,73.9L50.6,73.9z"/>
	<path class="st0" d="M76.8,94.4h-4.9l-5.2-9.2l-2.5,3v6.2H60V73.9h4.2v8.6l7-8.6h5.2l-6.8,8.2L76.8,94.4z M72,94.2h4.3l-7.1-12.1
		l6.6-7.9h-4.5L64,83.2v-9.1h-3.7v20.1H64v-6l2.8-3.3L72,94.2z"/>
	<path class="st0" d="M91.7,94.4H78.1V73.9h13.6v3.8h-9.4v4.5h8V86h-8v4.7h9.4L91.7,94.4z M78.3,94.2h13.1v-3.3h-9.4v-5.2h8v-3.3h-8
		v-5h9.4v-3.3H78.3L78.3,94.2z"/>
	<path class="st0" d="M109.6,94.4h-4.9l-4-8.1h-2.6v8.1h-4.2V73.9h8.1c3.9,0,6.7,2.6,6.7,6.3c0.1,2.4-1.4,4.6-3.7,5.4L109.6,94.4z
		 M104.9,94.2h4.3l-4.5-8.7h0.1c2.2-0.8,3.7-2.9,3.6-5.2c0-3.6-2.7-6.1-6.5-6.1h-7.8v20h3.7v-8.1h3L104.9,94.2z M101.8,83h-3.9v-5.6
		h3.9c1.5-0.1,2.9,1.1,3,2.6s-1.1,2.9-2.6,3C102,83,101.9,83,101.8,83L101.8,83z M98.1,82.8h3.6c1.4,0.1,2.7-0.9,2.8-2.3
		c0.1-1.4-0.9-2.7-2.3-2.8c-0.2,0-0.3,0-0.5,0h-3.6V82.8z"/>
	<path class="st0" d="M117.4,94.6c-3.4,0-5.6-0.8-7.5-2.7l-0.1-0.1l2.7-2.7l0.1,0.1c1.3,1.2,3.1,1.8,4.8,1.7c1.6,0,3.5-0.4,3.5-2.4
		c0-0.6-0.2-1.2-0.6-1.6c-0.5-0.4-1.1-0.7-1.7-0.7l-2.4-0.3c-1.5-0.1-2.9-0.7-4-1.7c-1-1.1-1.6-2.6-1.5-4.1c0-3.8,2.8-6.3,7.2-6.3
		c2.5-0.2,4.9,0.7,6.7,2.4l0.1,0.1l-2.7,2.7l-0.1-0.1c-1.1-1-2.6-1.5-4.1-1.4c-2.2,0-3,1.3-3,2.4c0,0.5,0.2,1,0.6,1.4
		c0.5,0.4,1.1,0.7,1.8,0.8l2.4,0.3c1.5,0.1,2.9,0.7,4,1.6c1.1,1.2,1.7,2.8,1.6,4.4C125.1,92.1,122,94.6,117.4,94.6z M110.2,91.8
		c1.8,1.8,4,2.6,7.2,2.6c4.5,0,7.4-2.4,7.4-6c0.1-1.6-0.5-3.1-1.5-4.2c-1.1-0.9-2.4-1.4-3.8-1.5l-2.4-0.3c-0.7-0.1-1.4-0.4-2-0.8
		c-0.4-0.4-0.7-1-0.6-1.5c0-1.6,1.3-2.7,3.3-2.7c1.5-0.1,3,0.4,4.2,1.3l2.3-2.3c-1.7-1.6-4-2.4-6.3-2.2c-4.2,0-7,2.4-7,6
		c-0.1,1.4,0.4,2.9,1.4,3.9c1.1,0.9,2.4,1.5,3.9,1.7l2.5,0.3c0.7,0,1.3,0.3,1.9,0.7c0.5,0.5,0.7,1.1,0.7,1.8c0,1.7-1.3,2.6-3.7,2.6
		c-1.8,0.1-3.6-0.5-4.9-1.7L110.2,91.8z"/>
</g>
</svg>
