<?xml version="1.0" encoding="utf-8"?>
<!-- Generator: Adobe Illustrator 25.0.1, SVG Export Plug-In . SVG Version: 6.00 Build 0)  -->
<svg version="1.1" id="Layer_1" xmlns="http://www.w3.org/2000/svg" xmlns:xlink="http://www.w3.org/1999/xlink" x="0px" y="0px"
	 viewBox="0 0 98.4 20" style="enable-background:new 0 0 98.4 20;" xml:space="preserve">
<g>
	<path d="M23.6,0.7c-2,0-3.7,1.4-4.2,3.3H2.8C2.5,4,2.2,4.1,2,4.3C1.8,4.5,1.7,4.8,1.7,5.1c0,0.3,0.1,0.6,0.3,0.8
		c0.2,0.2,0.5,0.3,0.8,0.3h16.5c0.5,1.9,2.2,3.3,4.2,3.3s3.7-1.4,4.2-3.3h3.4c0.3,0,0.6-0.1,0.8-0.3c0.2-0.2,0.3-0.5,0.3-0.8
		s-0.1-0.6-0.3-0.8C31.8,4.1,31.5,4,31.2,4h-3.4C27.3,2.1,25.6,0.7,23.6,0.7z M23.6,2.9c1.2,0,2.2,1,2.2,2.2s-1,2.2-2.2,2.2
		s-2.2-1-2.2-2.2S22.4,2.9,23.6,2.9z M10.5,10.5c-2,0-3.7,1.4-4.2,3.3H2.8c-0.3,0-0.6,0.1-0.8,0.3c-0.2,0.2-0.3,0.5-0.3,0.8
		s0.1,0.6,0.3,0.8C2.2,15.9,2.5,16,2.8,16h3.4c0.5,1.9,2.2,3.3,4.2,3.3s3.7-1.4,4.2-3.3h16.5l0,0c0.3,0,0.6-0.1,0.8-0.3
		c0.2-0.2,0.3-0.5,0.3-0.8s-0.1-0.6-0.3-0.8s-0.5-0.3-0.8-0.3H14.7C14.2,11.9,12.5,10.5,10.5,10.5L10.5,10.5z M10.5,12.7
		c1.2,0,2.2,1,2.2,2.2c0,1.2-1,2.2-2.2,2.2s-2.2-1-2.2-2.2C8.3,13.7,9.2,12.7,10.5,12.7z"/>
</g>
<g>
	<path d="M48.4,3.2v2.2h-5.8V9H47v2.2h-4.4v5.9h-2.8V3.2H48.4z"/>
	<path d="M52.8,3.2v13.9H50V3.2H52.8z"/>
	<path d="M58.5,14.9H63v2.2h-7.4V3.2h2.8V14.9z"/>
	<path d="M72.5,3.2v2.2h-3.7v11.6H66V5.5h-3.7V3.2H72.5z"/>
	<path d="M76.9,5.5v3.5h4.7v2.2h-4.7v3.7h5.3v2.3h-8.1V3.2h8.1v2.3H76.9z"/>
	<path d="M91.9,17.1l-3.1-5.4h-1.3v5.4h-2.8V3.2H90c1.1,0,2,0.2,2.7,0.6s1.3,0.9,1.7,1.5S95,6.7,95,7.5c0,0.9-0.3,1.7-0.8,2.5
		c-0.5,0.7-1.3,1.2-2.4,1.5l3.3,5.6H91.9z M87.6,9.6h2.3c0.8,0,1.3-0.2,1.7-0.5c0.4-0.4,0.6-0.9,0.6-1.5c0-0.6-0.2-1.1-0.6-1.5
		c-0.4-0.4-0.9-0.5-1.7-0.5h-2.3V9.6z"/>
</g>
</svg>
