<?xml version="1.0" encoding="utf-8"?>
<!-- Generator: Adobe Illustrator 25.0.1, SVG Export Plug-In . SVG Version: 6.00 Build 0)  -->
<svg version="1.1" id="Layer_1" xmlns="http://www.w3.org/2000/svg" xmlns:xlink="http://www.w3.org/1999/xlink" x="0px" y="0px"
	 viewBox="0 0 34 20" style="enable-background:new 0 0 34 20;" xml:space="preserve">
<g>
	<path d="M23.6,0.7c-2,0-3.7,1.4-4.2,3.3H2.8C2.5,4,2.2,4.1,2,4.3C1.8,4.5,1.7,4.8,1.7,5.1c0,0.3,0.1,0.6,0.3,0.8
		c0.2,0.2,0.5,0.3,0.8,0.3h16.5c0.5,1.9,2.2,3.3,4.2,3.3c2,0,3.7-1.4,4.2-3.3h3.4c0.3,0,0.6-0.1,0.8-0.3c0.2-0.2,0.3-0.5,0.3-0.8
		c0-0.3-0.1-0.6-0.3-0.8C31.8,4.1,31.5,4,31.2,4h-3.4C27.3,2.1,25.6,0.7,23.6,0.7z M23.6,2.9c1.2,0,2.2,1,2.2,2.2s-1,2.2-2.2,2.2
		c-1.2,0-2.2-1-2.2-2.2S22.4,2.9,23.6,2.9z M10.5,10.5c-2,0-3.7,1.4-4.2,3.3H2.8c-0.3,0-0.6,0.1-0.8,0.3c-0.2,0.2-0.3,0.5-0.3,0.8
		c0,0.3,0.1,0.6,0.3,0.8C2.2,15.9,2.5,16,2.8,16h3.4c0.5,1.9,2.2,3.3,4.2,3.3c2,0,3.7-1.4,4.2-3.3h16.5h0c0.3,0,0.6-0.1,0.8-0.3
		c0.2-0.2,0.3-0.5,0.3-0.8c0-0.3-0.1-0.6-0.3-0.8c-0.2-0.2-0.5-0.3-0.8-0.3H14.7C14.2,11.9,12.5,10.5,10.5,10.5L10.5,10.5z
		 M10.5,12.7c1.2,0,2.2,1,2.2,2.2c0,1.2-1,2.2-2.2,2.2s-2.2-1-2.2-2.2C8.3,13.7,9.2,12.7,10.5,12.7z"/>
</g>
</svg>
