<svg xmlns="http://www.w3.org/2000/svg" viewBox="0 0 122.61 122.61">
  <defs>
    <style>
      .cls-1 {
        fill: #fd0e3e;
      }
    </style>
  </defs>
  <g id="Layer_1" data-name="Layer 1">
    <g id="Layer_1-2" data-name="Layer 1">
      <g>
        <rect class="cls-1" x="3" y="3" width="116.61" height="116.61" rx="28.89"/>
        <path d="M90.72,6a25.91,25.91,0,0,1,25.89,25.89V90.72a25.91,25.91,0,0,1-25.89,25.89H31.89A25.91,25.91,0,0,1,6,90.72V31.89A25.91,25.91,0,0,1,31.89,6H90.72m0-6H31.89A31.89,31.89,0,0,0,0,31.89H0V90.72a31.89,31.89,0,0,0,31.89,31.89H90.72a31.89,31.89,0,0,0,31.89-31.89h0V31.89A31.89,31.89,0,0,0,90.72,0Z"/>
      </g>
      <polygon points="48.67 95.71 78.86 65.51 0 65.51 0 57.09 78.86 57.09 48.66 26.89 54.62 20.94 94.99 61.31 54.62 101.67 48.67 95.71"/>
    </g>
  </g>
</svg>
