<svg xmlns="http://www.w3.org/2000/svg" viewBox="0 0 624.55 47.32">
  <g id="Layer_1" data-name="Layer 1">
    <g>
      <path d="M392.69,20.69h0L372.28.29,369.17,3.4l18.2,18.21H207.1V26H387.37l-18.2,18.2,3.11,3.11L395.8,23.81Z"/>
      <g>
        <path d="M29.28,41.52c-2.89,2.89-7,4.18-11.56,4.18H1.91V1.91H17.72c4.55,0,8.67,1.29,11.56,4.18C34.2,11,33.71,17,33.71,23.62S34.2,36.6,29.28,41.52Zm-6-29.28a7.62,7.62,0,0,0-6.39-2.7H10.46V38.08h6.46a7.63,7.63,0,0,0,6.39-2.71c1.6-2,1.85-5.1,1.85-11.75S24.91,14.21,23.31,12.24Z"/>
        <path d="M64.26,45.7,61.68,38H46.12L43.47,45.7H34.55L50.48,1.91h6.71l16,43.79ZM54.05,14.83,48.51,30.76H59.4Z"/>
        <path d="M102.5,41.09a16.46,16.46,0,0,1-12.37,5,16.06,16.06,0,0,1-11.81-4.8,12.66,12.66,0,0,1-3.56-6.58A59.88,59.88,0,0,1,74,23.81a59.93,59.93,0,0,1,.74-10.89,12.48,12.48,0,0,1,3.56-6.58,16.06,16.06,0,0,1,11.81-4.8c10,0,15.32,6.4,16.49,14H98c-1.05-4.25-3.63-6.4-7.88-6.4a7,7,0,0,0-5.47,2.34c-1.6,2-2.09,3.62-2.09,12.3s.37,10.33,2.09,12.36a6.76,6.76,0,0,0,5.47,2.28A7.86,7.86,0,0,0,96.22,36a8.64,8.64,0,0,0,2-5.85V28.48H90.13V21.35h16.55v6.39C106.68,34.14,105.51,37.89,102.5,41.09Z"/>
        <path d="M138.18,45.7,120.84,18.82V45.7h-8.55V1.91h7.63l17.34,26.82V1.91h8.55V45.7Z"/>
        <path d="M153.07,45.7V1.91h8.55V45.7Z"/>
        <path d="M181.66,46.07c-6.65,0-11.69-1.41-16-5.78l5.54-5.53c2.77,2.76,6.52,3.69,10.58,3.69,5,0,7.75-1.91,7.75-5.42a4.86,4.86,0,0,0-1.36-3.69,6.45,6.45,0,0,0-3.87-1.53L179,27.07c-3.75-.56-6.52-1.72-8.49-3.63-2.09-2.09-3.13-4.92-3.13-8.61,0-7.81,5.78-13.29,15.25-13.29,6,0,10.39,1.48,14.15,5.11L191.37,12c-2.76-2.65-6.09-3-9-3-4.55,0-6.76,2.53-6.76,5.54a4.24,4.24,0,0,0,1.29,3.14A7.57,7.57,0,0,0,181,19.38l5.17.74c4,.55,6.51,1.66,8.36,3.38,2.34,2.21,3.38,5.41,3.38,9.29C197.89,41.27,190.82,46.07,181.66,46.07Z"/>
      </g>
      <g>
        <path d="M420.38,46.07c-6.64,0-11.68-1.41-16-5.78l5.54-5.53c2.77,2.76,6.52,3.69,10.58,3.69,5,0,7.75-1.91,7.75-5.42a4.9,4.9,0,0,0-1.36-3.69A6.45,6.45,0,0,0,423,27.81l-5.29-.74c-3.75-.56-6.52-1.72-8.49-3.63-2.09-2.09-3.14-4.92-3.14-8.61,0-7.81,5.78-13.29,15.26-13.29,6,0,10.39,1.48,14.14,5.11L430.1,12c-2.77-2.65-6.09-3-9-3-4.55,0-6.77,2.53-6.77,5.54a4.21,4.21,0,0,0,1.3,3.14,7.53,7.53,0,0,0,4.06,1.72l5.16.74c4,.55,6.52,1.66,8.37,3.38,2.33,2.21,3.38,5.41,3.38,9.29C436.62,41.27,429.55,46.07,420.38,46.07Z"/>
        <path d="M467,45.7,455.75,25.78l-5.65,6.76V45.7h-8.55V1.91h8.55V21L465.53,1.91h10.4L461.41,19.32,477,45.7Z"/>
        <path d="M496,46.07c-9,0-16.11-6.09-16.11-15.37V1.91h8.54V30.39c0,5,3,8.06,7.57,8.06s7.63-3,7.63-8.06V1.91h8.48V30.7C512.09,40,505,46.07,496,46.07Z"/>
        <path d="M542.19,45.7l-8.55-17.46h-6.15V45.7h-8.55V1.91H536.1c8.92,0,14.21,6.09,14.21,13.41a11.79,11.79,0,0,1-8,11.5l9.78,18.88ZM535.55,9.54h-8.06V21.1h8.06c3.75,0,6.21-2.4,6.21-5.78S539.3,9.54,535.55,9.54Z"/>
        <path d="M574.93,45.7H556.6V1.91h17.59c8.55,0,13.53,4.8,13.53,12.3a10.12,10.12,0,0,1-5.41,9,10.18,10.18,0,0,1,6,9.84C588.34,41.27,582.74,45.7,574.93,45.7ZM573.51,9.54h-8.36V19.62h8.36c3.63,0,5.66-2,5.66-5S577.14,9.54,573.51,9.54Zm.56,17.77h-8.92V38.08h8.92c3.87,0,5.72-2.46,5.72-5.42S577.94,27.31,574.07,27.31Z"/>
        <path d="M594.09,45.7V1.91h28.84V9.54H602.64V19.81h17.28v7.63H602.64V38.08h20.29V45.7Z"/>
      </g>
    </g>
  </g>
</svg>
