<svg xmlns="http://www.w3.org/2000/svg" viewBox="0 0 253.03 67.08">
  <defs>
    <style>
      .cls-1 {
        fill: #fff;
      }
    </style>
  </defs>
  <g id="Layer_1" data-name="Layer 1">
    <path class="cls-1" d="M243.82,2.41a6.84,6.84,0,0,1,6.84,6.83V47a6.84,6.84,0,0,1-6.84,6.83h-14a2.39,2.39,0,0,0-2.38,2.38v6.55l-13.2-8.55a2.35,2.35,0,0,0-1.29-.38H9.21A6.83,6.83,0,0,1,2.38,47V9.24A6.83,6.83,0,0,1,9.21,2.41H243.82m0-2.38H9.21A9.21,9.21,0,0,0,0,9.24V47a9.21,9.21,0,0,0,9.21,9.21H213l16.87,10.92V56.16h14A9.21,9.21,0,0,0,253,47V9.24A9.21,9.21,0,0,0,243.82,0Z"/>
    <g>
      <path class="cls-1" d="M21.63,32.81H27V36H17.53V19.13h4.1Z"/>
      <path class="cls-1" d="M41.32,30.26H32a2.77,2.77,0,0,0,.8,1.91,2.45,2.45,0,0,0,1.74.66,2.17,2.17,0,0,0,2.14-1.29h4.36a5.81,5.81,0,0,1-1.21,2.37,6,6,0,0,1-2.19,1.66,7.08,7.08,0,0,1-3,.6,7.16,7.16,0,0,1-3.5-.84,6,6,0,0,1-2.4-2.4A7.38,7.38,0,0,1,28,29.28a7.48,7.48,0,0,1,.85-3.65,5.88,5.88,0,0,1,2.39-2.4,7.21,7.21,0,0,1,3.52-.84,7.11,7.11,0,0,1,3.46.82,5.76,5.76,0,0,1,2.36,2.33,7,7,0,0,1,.86,3.52A9.94,9.94,0,0,1,41.32,30.26ZM37.2,28a2.12,2.12,0,0,0-.72-1.68,2.68,2.68,0,0,0-1.8-.62,2.59,2.59,0,0,0-1.74.6,2.63,2.63,0,0,0-.88,1.7Z"/>
      <path class="cls-1" d="M43.5,25.63a5.85,5.85,0,0,1,2.12-2.4,5.56,5.56,0,0,1,3-.84,5.12,5.12,0,0,1,2.49.58,4.21,4.21,0,0,1,1.64,1.51v-1.9h4.1V36h-4.1v-1.9a4.45,4.45,0,0,1-1.67,1.51,5.08,5.08,0,0,1-2.48.58,5.53,5.53,0,0,1-3-.85,5.94,5.94,0,0,1-2.12-2.43,8.08,8.08,0,0,1-.78-3.63A8,8,0,0,1,43.5,25.63Zm8.4,1.23A2.75,2.75,0,0,0,49.82,26a2.78,2.78,0,0,0-2.07.87,3.33,3.33,0,0,0-.86,2.42,3.39,3.39,0,0,0,.86,2.43,2.85,2.85,0,0,0,4.15,0,3.34,3.34,0,0,0,.85-2.42A3.34,3.34,0,0,0,51.9,26.86Z"/>
      <path class="cls-1" d="M65.6,32.14l2.91-9.56h4.36L68.12,36H63.06l-4.75-13.4H62.7Z"/>
      <path class="cls-1" d="M86.48,30.26H77.19A2.82,2.82,0,0,0,78,32.17a2.45,2.45,0,0,0,1.74.66,2.15,2.15,0,0,0,2.13-1.29h4.37a6,6,0,0,1-3.41,4,7,7,0,0,1-3,.6,7.16,7.16,0,0,1-3.5-.84,5.9,5.9,0,0,1-2.4-2.4,7.38,7.38,0,0,1-.87-3.65A7.49,7.49,0,0,1,74,25.63a5.85,5.85,0,0,1,2.38-2.4,7.25,7.25,0,0,1,3.53-.84,7.11,7.11,0,0,1,3.46.82,5.82,5.82,0,0,1,2.36,2.33,7,7,0,0,1,.85,3.52A9.89,9.89,0,0,1,86.48,30.26ZM82.35,28a2.12,2.12,0,0,0-.72-1.68,2.68,2.68,0,0,0-1.8-.62,2.61,2.61,0,0,0-1.74.6,2.66,2.66,0,0,0-.87,1.7Z"/>
      <path class="cls-1" d="M93.77,25.63a5.71,5.71,0,0,1,2.12-2.4,5.54,5.54,0,0,1,3-.84,5.08,5.08,0,0,1,2.48.58A4.24,4.24,0,0,1,103,24.48v-1.9h4.1V36H103v-1.9a4.45,4.45,0,0,1-1.67,1.51,5.08,5.08,0,0,1-2.48.58,5.51,5.51,0,0,1-3-.85,5.8,5.8,0,0,1-2.12-2.43A8,8,0,0,1,93,29.26,7.89,7.89,0,0,1,93.77,25.63Zm8.4,1.23a2.75,2.75,0,0,0-2.08-.89,2.8,2.8,0,0,0-2.08.87,3.37,3.37,0,0,0-.85,2.42A3.42,3.42,0,0,0,98,31.69a2.86,2.86,0,0,0,4.16,0,3.38,3.38,0,0,0,.85-2.42A3.38,3.38,0,0,0,102.17,26.86Z"/>
      <path class="cls-1" d="M136.24,24a5.74,5.74,0,0,1,1.48,4.2V36h-4.08V28.7a2.78,2.78,0,0,0-.68-2,2.53,2.53,0,0,0-1.89-.71,2.49,2.49,0,0,0-1.88.71,2.75,2.75,0,0,0-.69,2V36h-4.08V28.7a2.74,2.74,0,0,0-.68-2,2.86,2.86,0,0,0-3.77,0,2.78,2.78,0,0,0-.68,2V36h-4.11V22.58h4.11v1.68a4.37,4.37,0,0,1,1.63-1.33,5.09,5.09,0,0,1,2.28-.49,5.56,5.56,0,0,1,2.7.65,4.66,4.66,0,0,1,1.86,1.85,5.3,5.3,0,0,1,1.9-1.8,5.06,5.06,0,0,1,2.61-.7A5.27,5.27,0,0,1,136.24,24Z"/>
      <path class="cls-1" d="M153,30.26h-9.29a2.77,2.77,0,0,0,.81,1.91,2.45,2.45,0,0,0,1.74.66,2.15,2.15,0,0,0,2.13-1.29h4.37a5.94,5.94,0,0,1-1.21,2.37,6.08,6.08,0,0,1-2.2,1.66,7,7,0,0,1-2.95.6,7.16,7.16,0,0,1-3.5-.84,5.9,5.9,0,0,1-2.4-2.4,7.38,7.38,0,0,1-.87-3.65,7.6,7.6,0,0,1,.85-3.65,5.94,5.94,0,0,1,2.39-2.4,7.23,7.23,0,0,1,3.53-.84,7.11,7.11,0,0,1,3.46.82,5.88,5.88,0,0,1,2.36,2.33,7,7,0,0,1,.85,3.52A9.89,9.89,0,0,1,153,30.26ZM148.91,28a2.12,2.12,0,0,0-.72-1.68,2.68,2.68,0,0,0-1.8-.62,2.59,2.59,0,0,0-1.74.6,2.66,2.66,0,0,0-.87,1.7Z"/>
      <path class="cls-1" d="M157.34,35.57a5.33,5.33,0,0,1-2.16-1.65,4.32,4.32,0,0,1-.89-2.34h4.06a1.55,1.55,0,0,0,.65,1.13,2.25,2.25,0,0,0,1.41.43,2,2,0,0,0,1.19-.3.92.92,0,0,0,.42-.78.91.91,0,0,0-.6-.85,12.29,12.29,0,0,0-1.94-.61,17.35,17.35,0,0,1-2.4-.71,4.2,4.2,0,0,1-1.66-1.17,3.24,3.24,0,0,1-.7-2.18,3.76,3.76,0,0,1,.64-2.1,4.3,4.3,0,0,1,1.87-1.5,7.34,7.34,0,0,1,2.94-.55,5.88,5.88,0,0,1,4,1.25A4.84,4.84,0,0,1,165.81,27H162a1.63,1.63,0,0,0-.61-1.1,2.16,2.16,0,0,0-1.36-.41,1.81,1.81,0,0,0-1.1.28.86.86,0,0,0-.39.75.94.94,0,0,0,.62.87,9.67,9.67,0,0,0,1.9.57,21.2,21.2,0,0,1,2.43.76,4.22,4.22,0,0,1,1.64,1.2,3.37,3.37,0,0,1,.73,2.22,3.54,3.54,0,0,1-.66,2.1,4.4,4.4,0,0,1-1.89,1.45,7.31,7.31,0,0,1-2.87.53A7.68,7.68,0,0,1,157.34,35.57Z"/>
      <path class="cls-1" d="M170.49,35.57a5.33,5.33,0,0,1-2.16-1.65,4.32,4.32,0,0,1-.89-2.34h4.06a1.55,1.55,0,0,0,.65,1.13,2.25,2.25,0,0,0,1.41.43,2,2,0,0,0,1.19-.3.92.92,0,0,0,.42-.78.91.91,0,0,0-.6-.85,12.29,12.29,0,0,0-1.94-.61,17.35,17.35,0,0,1-2.4-.71,4.2,4.2,0,0,1-1.66-1.17,3.24,3.24,0,0,1-.7-2.18,3.76,3.76,0,0,1,.64-2.1,4.3,4.3,0,0,1,1.87-1.5,7.34,7.34,0,0,1,2.94-.55,5.88,5.88,0,0,1,4,1.25A4.84,4.84,0,0,1,179,27h-3.79a1.63,1.63,0,0,0-.61-1.1,2.16,2.16,0,0,0-1.36-.41,1.81,1.81,0,0,0-1.1.28.86.86,0,0,0-.39.75.94.94,0,0,0,.62.87,9.67,9.67,0,0,0,1.9.57,21.2,21.2,0,0,1,2.43.76,4.22,4.22,0,0,1,1.64,1.2,3.37,3.37,0,0,1,.73,2.22,3.54,3.54,0,0,1-.66,2.1,4.4,4.4,0,0,1-1.89,1.45,7.31,7.31,0,0,1-2.87.53A7.68,7.68,0,0,1,170.49,35.57Z"/>
      <path class="cls-1" d="M181.33,25.63a5.78,5.78,0,0,1,2.12-2.4,5.56,5.56,0,0,1,3-.84,5.08,5.08,0,0,1,2.48.58,4.24,4.24,0,0,1,1.65,1.51v-1.9h4.1V36h-4.1v-1.9a4.45,4.45,0,0,1-1.67,1.51,5.08,5.08,0,0,1-2.48.58,5.53,5.53,0,0,1-3-.85,5.87,5.87,0,0,1-2.12-2.43,8.08,8.08,0,0,1-.78-3.63A8,8,0,0,1,181.33,25.63Zm8.4,1.23a2.75,2.75,0,0,0-2.08-.89,2.8,2.8,0,0,0-2.08.87,3.37,3.37,0,0,0-.85,2.42,3.42,3.42,0,0,0,.85,2.43,2.86,2.86,0,0,0,4.16,0,3.38,3.38,0,0,0,.85-2.42A3.38,3.38,0,0,0,189.73,26.86Z"/>
      <path class="cls-1" d="M205.2,23a4.21,4.21,0,0,1,1.64,1.51v-1.9h4.1V36a7.52,7.52,0,0,1-.73,3.35A5.58,5.58,0,0,1,208,41.69a7.23,7.23,0,0,1-3.73.89,7.76,7.76,0,0,1-4.83-1.41,5.3,5.3,0,0,1-2.11-3.8h4.06a2,2,0,0,0,.91,1.21,3.29,3.29,0,0,0,1.78.44,2.77,2.77,0,0,0,2-.73,3.12,3.12,0,0,0,.76-2.34V34.06a4.52,4.52,0,0,1-1.66,1.52,5,5,0,0,1-2.47.59,5.57,5.57,0,0,1-3-.85,5.94,5.94,0,0,1-2.12-2.43,8.08,8.08,0,0,1-.78-3.63,8,8,0,0,1,.78-3.63,5.85,5.85,0,0,1,2.12-2.4,5.56,5.56,0,0,1,3-.84A5.12,5.12,0,0,1,205.2,23Zm.79,3.89a2.75,2.75,0,0,0-2.08-.89,2.78,2.78,0,0,0-2.07.87,3.33,3.33,0,0,0-.86,2.42,3.39,3.39,0,0,0,.86,2.43,2.85,2.85,0,0,0,4.15,0,3.34,3.34,0,0,0,.85-2.42A3.34,3.34,0,0,0,206,26.86Z"/>
      <path class="cls-1" d="M226.4,30.26h-9.29a2.77,2.77,0,0,0,.8,1.91,2.48,2.48,0,0,0,1.74.66,2.16,2.16,0,0,0,2.14-1.29h4.37a6,6,0,0,1-3.41,4,7,7,0,0,1-2.95.6,7.23,7.23,0,0,1-3.51-.84,6,6,0,0,1-2.4-2.4,7.49,7.49,0,0,1-.86-3.65,7.48,7.48,0,0,1,.85-3.65,5.88,5.88,0,0,1,2.39-2.4,7.23,7.23,0,0,1,3.53-.84,7.07,7.07,0,0,1,3.45.82,5.84,5.84,0,0,1,2.37,2.33,7.11,7.11,0,0,1,.85,3.52A9.89,9.89,0,0,1,226.4,30.26ZM222.27,28a2.12,2.12,0,0,0-.72-1.68,2.68,2.68,0,0,0-1.8-.62,2.59,2.59,0,0,0-1.74.6,2.67,2.67,0,0,0-.88,1.7Z"/>
      <path class="cls-1" d="M229.45,35.53a2.07,2.07,0,0,1-.68-1.57,2.14,2.14,0,0,1,.68-1.61,2.49,2.49,0,0,1,1.77-.65,2.45,2.45,0,0,1,1.74.65,2.14,2.14,0,0,1,.68,1.61,2.07,2.07,0,0,1-.68,1.57,2.44,2.44,0,0,1-1.74.64A2.49,2.49,0,0,1,229.45,35.53Zm3.93-17L232.9,30h-3.48l-.48-11.49Z"/>
    </g>
  </g>
</svg>
